goteka-black.ufo
<glyph name="quotedbl" format="2">
  <advance width="879"/>
  <unicode hex="0022"/>
  <outline>
    <contour>
      <point x="148" y="937" type="line"/>
      <point x="148" y="1396" type="line"/>
      <point x="378" y="1396" type="line"/>
      <point x="378" y="937" type="line"/>
    </contour>
    <contour>
      <point x="420" y="937" type="line"/>
      <point x="420" y="1396" type="line"/>
      <point x="650" y="1396" type="line"/>
      <point x="650" y="937" type="line"/>
    </contour>
  </outline>
</glyph>
<glyph name="numbersign" format="2">
  <advance width="1452"/>
  <unicode hex="0023"/>
  <outline>
    <contour>
      <point x="1089" y="900" type="line"/>
      <point x="1005" y="563" type="line"/>
      <point x="1241" y="563" type="line"/>
      <point x="1191" y="360" type="line"/>
      <point x="953" y="360" type="line"/>
      <point x="861" y="0" type="line"/>
      <point x="649" y="0" type="line"/>
      <point x="739" y="360" type="line"/>
      <point x="519" y="360" type="line"/>
      <point x="426" y="0" type="line"/>
      <point x="214" y="0" type="line"/>
      <point x="303" y="360" type="line"/>
      <point x="80" y="360" type="line"/>
      <point x="125" y="563" type="line"/>
      <point x="354" y="563" type="line"/>
      <point x="439" y="900" type="line"/>
      <point x="211" y="900" type="line"/>
      <point x="262" y="1101" type="line"/>
      <point x="492" y="1101" type="line"/>
      <point x="581" y="1463" type="line"/>
      <point x="798" y="1463" type="line"/>
      <point x="705" y="1101" type="line"/>
      <point x="926" y="1101" type="line"/>
      <point x="1015" y="1463" type="line"/>
      <point x="1230" y="1463" type="line"/>
      <point x="1140" y="1101" type="line"/>
      <point x="1379" y="1101" type="line"/>
      <point x="1324" y="900" type="line"/>
    </contour>
    <contour>
      <point x="873" y="900" type="line"/>
      <point x="653" y="900" type="line"/>
      <point x="569" y="563" type="line"/>
      <point x="789" y="563" type="line"/>
    </contour>
  </outline>
</glyph>
<glyph name="quotesingle" format="2">
  <advance width="513"/>
  <unicode hex="0027"/>
  <outline>
    <contour>
      <point x="148" y="936" type="line"/>
      <point x="148" y="1395" type="line"/>
      <point x="378" y="1395" type="line"/>
      <point x="378" y="936" type="line"/>
    </contour>
  </outline>
</glyph>
<glyph name="asterisk" format="2">
  <advance width="755"/>
  <unicode hex="002A"/>
  <outline>
    <contour>
      <point x="309" y="822" type="line"/>
      <point x="437" y="1021" type="line"/>
      <point x="566" y="822" type="line"/>
      <point x="565" y="822" type="line"/>
      <point x="437" y="1020" type="line"/>
      <point x="642" y="1094" type="line"/>
      <point x="642" y="1094" type="line"/>
      <point x="437" y="1020" type="line"/>
      <point x="437" y="1266" type="line"/>
      <point x="438" y="1266" type="line"/>
      <point x="438" y="1020" type="line"/>
      <point x="233" y="1094" type="line"/>
      <point x="233" y="1094" type="line"/>
      <point x="438" y="1019" type="line"/>
      <point x="310" y="822" type="line"/>
    </contour>
  </outline>
</glyph>
<glyph name="plus" format="2">
  <advance width="1197"/>
  <unicode hex="002B"/>
  <outline>
    <contour>
      <point x="1069" y="538" type="line"/>
      <point x="720" y="538" type="line"/>
      <point x="720" y="191" type="line"/>
      <point x="489" y="191" type="line"/>
      <point x="489" y="538" type="line"/>
      <point x="142" y="538" type="line"/>
      <point x="142" y="766" type="line"/>
      <point x="489" y="766" type="line"/>
      <point x="489" y="1115" type="line"/>
      <point x="720" y="1115" type="line"/>
      <point x="720" y="766" type="line"/>
      <point x="1069" y="766" type="line"/>
    </contour>
  </outline>
</glyph>
<glyph name="slash" format="2">
  <advance width="958"/>
  <unicode hex="002F"/>
  <outline>
    <contour>
      <point x="250" y="47" type="line"/>
      <point x="96" y="47" type="line"/>
    </contour>
    <contour>
      <point x="24" y="0" type="line"/>
      <point x="652" y="1463" type="line"/>
      <point x="909" y="1463" type="line"/>
      <point x="281" y="0" type="line"/>
    </contour>
  </outline>
</glyph>
<glyph name="zero" format="2">
  <advance width="1561"/>
  <unicode hex="0030"/>
  <outline>
    <contour>
      <point x="744" y="1483" type="qcurve"/>
      <point x="919" y="1485"/>
      <point x="1062" y="1386" type="qcurve"/>
      <point x="1203" y="1289"/>
      <point x="1278" y="1119" type="qcurve"/>
      <point x="1357" y="949"/>
      <point x="1357" y="733" type="qcurve"/>
      <point x="1360" y="516"/>
      <point x="1279" y="345" type="qcurve"/>
      <point x="1204" y="179"/>
      <point x="1064" y="78" type="qcurve"/>
      <point x="923" y="-19"/>
      <point x="744" y="-22" type="qcurve"/>
      <point x="567" y="-21"/>
      <point x="420" y="76" type="qcurve"/>
      <point x="286" y="178"/>
      <point x="205" y="345" type="qcurve"/>
      <point x="127" y="516"/>
      <point x="127" y="733" type="qcurve"/>
      <point x="125" y="948"/>
      <point x="203" y="1118" type="qcurve"/>
      <point x="286" y="1287"/>
      <point x="420" y="1384" type="qcurve"/>
      <point x="566" y="1486"/>
    </contour>
    <contour>
      <point x="744" y="1261" type="qcurve"/>
      <point x="636" y="1261"/>
      <point x="551" y="1197" type="qcurve"/>
      <point x="468" y="1134"/>
      <point x="415" y="1014" type="qcurve"/>
      <point x="365" y="890"/>
      <point x="365" y="733" type="qcurve"/>
      <point x="365" y="580"/>
      <point x="415" y="454" type="qcurve"/>
      <point x="465" y="336"/>
      <point x="552" y="267" type="qcurve"/>
      <point x="636" y="202"/>
      <point x="744" y="202" type="qcurve"/>
      <point x="850" y="202"/>
      <point x="933" y="266" type="qcurve"/>
      <point x="1021" y="335"/>
      <point x="1069" y="450" type="qcurve"/>
      <point x="1121" y="581"/>
      <point x="1119" y="733" type="qcurve"/>
      <point x="1121" y="889"/>
      <point x="1069" y="1012" type="qcurve"/>
      <point x="1021" y="1133"/>
      <point x="933" y="1197" type="qcurve"/>
      <point x="850" y="1261"/>
    </contour>
  </outline>
</glyph>
<glyph name="two" format="2">
  <advance width="1272"/>
  <unicode hex="0032"/>
  <outline>
    <contour>
      <point x="111" y="186" type="line"/>
      <point x="628" y="632" type="line"/>
      <point x="663" y="662"/>
      <point x="712" y="707" type="qcurve"/>
      <point x="759" y="749"/>
      <point x="799" y="801" type="qcurve"/>
      <point x="841" y="854"/>
      <point x="870" y="915" type="qcurve"/>
      <point x="896" y="971"/>
      <point x="896" y="1033" type="qcurve"/>
      <point x="897" y="1056"/>
      <point x="884" y="1096" type="qcurve"/>
      <point x="872" y="1136"/>
      <point x="841" y="1174" type="qcurve"/>
      <point x="814" y="1212"/>
      <point x="766" y="1238" type="qcurve"/>
      <point x="719" y="1264"/>
      <point x="650" y="1264" type="qcurve"/>
      <point x="549" y="1265"/>
      <point x="460" y="1204" type="qcurve"/>
      <point x="365" y="1140"/>
      <point x="275" y="1027" type="qcurve"/>
      <point x="102" y="1166" type="line"/>
      <point x="329" y="1483"/>
      <point x="650" y="1483" type="qcurve"/>
      <point x="802" y="1483"/>
      <point x="897" y="1427" type="qcurve"/>
      <point x="990" y="1371"/>
      <point x="1042" y="1296" type="qcurve"/>
      <point x="1094" y="1222"/>
      <point x="1113" y="1146" type="qcurve"/>
      <point x="1132" y="1073"/>
      <point x="1132" y="1034" type="qcurve"/>
      <point x="1133" y="850"/>
      <point x="1025" y="717" type="qcurve"/>
      <point x="926" y="597"/>
      <point x="787" y="475" type="qcurve"/>
      <point x="506" y="227" type="line"/>
      <point x="1146" y="227" type="line"/>
      <point x="1146" y="0" type="line"/>
      <point x="111" y="0" type="line"/>
    </contour>
  </outline>
</glyph>
<glyph name="six" format="2">
  <advance width="1336"/>
  <unicode hex="0036"/>
  <outline>
    <contour>
      <point x="720" y="949" type="qcurve"/>
      <point x="809" y="950"/>
      <point x="897" y="924" type="qcurve"/>
      <point x="987" y="898"/>
      <point x="1058" y="838" type="qcurve"/>
      <point x="1130" y="780"/>
      <point x="1175" y="692" type="qcurve"/>
      <point x="1222" y="602"/>
      <point x="1221" y="476" type="qcurve"/>
      <point x="1222" y="415"/>
      <point x="1198" y="331" type="qcurve"/>
      <point x="1175" y="243"/>
      <point x="1117" y="166" type="qcurve"/>
      <point x="1058" y="88"/>
      <point x="956" y="34" type="qcurve"/>
      <point x="852" y="-21"/>
      <point x="696" y="-22" type="qcurve"/>
      <point x="602" y="-21"/>
      <point x="504" y="8" type="qcurve"/>
      <point x="400" y="39"/>
      <point x="316" y="121" type="qcurve"/>
      <point x="232" y="206"/>
      <point x="180" y="348" type="qcurve"/>
      <point x="130" y="491"/>
      <point x="129" y="712" type="qcurve"/>
      <point x="129" y="877"/>
      <point x="177" y="1017" type="qcurve"/>
      <point x="225" y="1158"/>
      <point x="306" y="1261" type="qcurve"/>
      <point x="388" y="1366"/>
      <point x="496" y="1423" type="qcurve"/>
      <point x="606" y="1483"/>
      <point x="728" y="1483" type="qcurve"/>
      <point x="888" y="1484"/>
      <point x="999" y="1417" type="qcurve"/>
      <point x="1104" y="1354"/>
      <point x="1180" y="1280" type="qcurve"/>
      <point x="1044" y="1089" type="line"/>
      <point x="971" y="1159"/>
      <point x="890" y="1214" type="qcurve"/>
      <point x="819" y="1263"/>
      <point x="721" y="1262" type="qcurve"/>
      <point x="637" y="1263"/>
      <point x="574" y="1214" type="qcurve"/>
      <point x="507" y="1161"/>
      <point x="461" y="1079" type="qcurve"/>
      <point x="414" y="995"/>
      <point x="391" y="892" type="qcurve"/>
      <point x="368" y="790"/>
      <point x="368" y="865" type="qcurve"/>
      <point x="320" y="786"/>
      <point x="427" y="865" type="qcurve"/>
      <point x="541" y="948"/>
    </contour>
    <contour>
      <point x="690" y="193" type="qcurve"/>
      <point x="770" y="193"/>
      <point x="823" y="224" type="qcurve"/>
      <point x="880" y="256"/>
      <point x="915" y="301" type="qcurve"/>
      <point x="950" y="348"/>
      <point x="967" y="398" type="qcurve"/>
      <point x="984" y="448"/>
      <point x="984" y="475" type="qcurve"/>
      <point x="984" y="547"/>
      <point x="955" y="594" type="qcurve"/>
      <point x="924" y="644"/>
      <point x="881" y="672" type="qcurve"/>
      <point x="834" y="703"/>
      <point x="783" y="717" type="qcurve"/>
      <point x="730" y="732"/>
      <point x="690" y="732" type="qcurve"/>
      <point x="585" y="733"/>
      <point x="496" y="671" type="qcurve"/>
      <point x="411" y="613"/>
      <point x="388" y="516" type="qcurve"/>
      <point x="408" y="417"/>
      <point x="446" y="350" type="qcurve"/>
      <point x="485" y="286"/>
      <point x="529" y="250" type="qcurve"/>
      <point x="576" y="215"/>
      <point x="617" y="204" type="qcurve"/>
      <point x="662" y="193"/>
    </contour>
  </outline>
</glyph>
<glyph name="nine" format="2">
  <advance width="1336"/>
  <unicode hex="0039"/>
  <outline>
    <contour>
      <point x="630" y="512" type="qcurve"/>
      <point x="540" y="512"/>
      <point x="453" y="539" type="qcurve"/>
      <point x="364" y="567"/>
      <point x="293" y="623" type="qcurve"/>
      <point x="223" y="682"/>
      <point x="176" y="769" type="qcurve"/>
      <point x="129" y="861"/>
      <point x="129" y="987" type="qcurve"/>
      <point x="129" y="1048"/>
      <point x="151" y="1132" type="qcurve"/>
      <point x="176" y="1218"/>
      <point x="233" y="1296" type="qcurve"/>
      <point x="293" y="1375"/>
      <point x="395" y="1429" type="qcurve"/>
      <point x="498" y="1483"/>
      <point x="653" y="1483" type="qcurve"/>
      <point x="746" y="1484"/>
      <point x="845" y="1455" type="qcurve"/>
      <point x="950" y="1425"/>
      <point x="1034" y="1340" type="qcurve"/>
      <point x="1116" y="1260"/>
      <point x="1168" y="1115" type="qcurve"/>
      <point x="1222" y="973"/>
      <point x="1221" y="750" type="qcurve"/>
      <point x="1222" y="584"/>
      <point x="1173" y="445" type="qcurve"/>
      <point x="1124" y="305"/>
      <point x="1043" y="201" type="qcurve"/>
      <point x="963" y="98"/>
      <point x="854" y="39" type="qcurve"/>
      <point x="744" y="-21"/>
      <point x="620" y="-22" type="qcurve"/>
      <point x="462" y="-21"/>
      <point x="351" y="46" type="qcurve"/>
      <point x="246" y="111"/>
      <point x="168" y="181" type="qcurve"/>
      <point x="305" y="372" type="line"/>
      <point x="377" y="306"/>
      <point x="459" y="249" type="qcurve"/>
      <point x="532" y="201"/>
      <point x="629" y="200" type="qcurve"/>
      <point x="712" y="199"/>
      <point x="775" y="248" type="qcurve"/>
      <point x="843" y="302"/>
      <point x="888" y="384" type="qcurve"/>
      <point x="937" y="468"/>
      <point x="959" y="570" type="qcurve"/>
      <point x="983" y="672"/>
      <point x="984" y="590" type="qcurve"/>
      <point x="1033" y="675"/>
      <point x="922" y="596" type="qcurve"/>
      <point x="810" y="516"/>
    </contour>
    <contour>
      <point x="659" y="1270" type="qcurve"/>
      <point x="580" y="1270"/>
      <point x="526" y="1239" type="qcurve"/>
      <point x="470" y="1206"/>
      <point x="435" y="1161" type="qcurve"/>
      <point x="400" y="1114"/>
      <point x="382" y="1064" type="qcurve"/>
      <point x="365" y="1014"/>
      <point x="365" y="987" type="qcurve"/>
      <point x="365" y="915"/>
      <point x="394" y="869" type="qcurve"/>
      <point x="426" y="819"/>
      <point x="468" y="789" type="qcurve"/>
      <point x="515" y="760"/>
      <point x="567" y="744" type="qcurve"/>
      <point x="619" y="729"/>
      <point x="659" y="729" type="qcurve"/>
      <point x="765" y="729"/>
      <point x="854" y="791" type="qcurve"/>
      <point x="939" y="851"/>
      <point x="962" y="946" type="qcurve"/>
      <point x="943" y="1045"/>
      <point x="903" y="1112" type="qcurve"/>
      <point x="866" y="1177"/>
      <point x="821" y="1212" type="qcurve"/>
      <point x="776" y="1247"/>
      <point x="733" y="1258" type="qcurve"/>
      <point x="689" y="1270"/>
    </contour>
  </outline>
</glyph>
<glyph name="semicolon" format="2">
  <advance width="600"/>
  <unicode hex="003B"/>
  <outline>
    <contour>
      <point x="141" y="-151" type="line"/>
      <point x="240" y="-37"/>
      <point x="245" y="-20" type="qcurve"/>
      <point x="248" y="-21"/>
      <point x="201" y="22" type="qcurve"/>
      <point x="159" y="69"/>
      <point x="159" y="126" type="qcurve"/>
      <point x="159" y="186"/>
      <point x="202" y="227" type="qcurve"/>
      <point x="245" y="267"/>
      <point x="305" y="267" type="qcurve"/>
      <point x="381" y="267"/>
      <point x="422" y="208" type="qcurve"/>
      <point x="462" y="156"/>
      <point x="462" y="76" type="qcurve"/>
      <point x="463" y="13"/>
      <point x="429" y="-57" type="qcurve"/>
      <point x="399" y="-118"/>
      <point x="285" y="-258" type="qcurve"/>
    </contour>
    <contour>
      <point x="305" y="730" type="qcurve"/>
      <point x="245" y="731"/>
      <point x="201" y="774" type="qcurve"/>
      <point x="159" y="816"/>
      <point x="159" y="876" type="qcurve"/>
      <point x="159" y="932"/>
      <point x="200" y="978" type="qcurve"/>
      <point x="245" y="1021"/>
      <point x="305" y="1021" type="qcurve"/>
      <point x="365" y="1021"/>
      <point x="407" y="978" type="qcurve"/>
      <point x="451" y="932"/>
      <point x="449" y="876" type="qcurve"/>
      <point x="450" y="816"/>
      <point x="408" y="774" type="qcurve"/>
      <point x="367" y="732"/>
    </contour>
  </outline>
</glyph>
<glyph name="less" format="2">
  <advance width="1184"/>
  <unicode hex="003C"/>
  <outline>
    <contour>
      <point x="118" y="587" type="line"/>
      <point x="118" y="753" type="line"/>
      <point x="1039" y="1208" type="line"/>
      <point x="1039" y="978" type="line"/>
      <point x="409" y="671" type="line"/>
      <point x="1039" y="363" type="line"/>
      <point x="1039" y="131" type="line"/>
    </contour>
  </outline>
</glyph>
<glyph name="equal" format="2">
  <advance width="1197"/>
  <unicode hex="003D"/>
  <outline>
    <contour>
      <point x="142" y="965" type="line"/>
      <point x="1069" y="965" type="line"/>
      <point x="1069" y="738" type="line"/>
      <point x="142" y="738" type="line"/>
    </contour>
    <contour>
      <point x="142" y="566" type="line"/>
      <point x="1069" y="566" type="line"/>
      <point x="1069" y="339" type="line"/>
      <point x="142" y="339" type="line"/>
    </contour>
  </outline>
</glyph>
<glyph name="greater" format="2">
  <advance width="1181"/>
  <unicode hex="003E"/>
  <outline>
    <contour>
      <point x="157" y="363" type="line"/>
      <point x="786" y="671" type="line"/>
      <point x="157" y="978" type="line"/>
      <point x="157" y="1207" type="line"/>
      <point x="1077" y="753" type="line"/>
      <point x="1077" y="587" type="line"/>
      <point x="157" y="131" type="line"/>
    </contour>
  </outline>
</glyph>
<glyph name="question" format="2">
  <advance width="1138"/>
  <unicode hex="003F"/>
  <outline>
    <contour>
      <point x="412" y="828" type="line"/>
      <point x="614" y="828"/>
      <point x="718" y="907" type="qcurve"/>
      <point x="818" y="983"/>
      <point x="817" y="1073" type="qcurve"/>
      <point x="818" y="1162"/>
      <point x="755" y="1213" type="qcurve"/>
      <point x="686" y="1268"/>
      <point x="571" y="1268" type="qcurve"/>
      <point x="510" y="1269"/>
      <point x="462" y="1249" type="qcurve"/>
      <point x="411" y="1229"/>
      <point x="368" y="1199" type="qcurve"/>
      <point x="325" y="1171"/>
      <point x="292" y="1141" type="qcurve"/>
      <point x="259" y="1111"/>
      <point x="212" y="1052" type="qcurve"/>
      <point x="56" y="1207" type="line"/>
      <point x="284" y="1493"/>
      <point x="580" y="1493" type="qcurve"/>
      <point x="719" y="1493"/>
      <point x="824" y="1440" type="qcurve"/>
      <point x="933" y="1386"/>
      <point x="995" y="1288" type="qcurve"/>
      <point x="1056" y="1189"/>
      <point x="1053" y="1073" type="qcurve"/>
      <point x="1056" y="975"/>
      <point x="998" y="878" type="qcurve"/>
      <point x="944" y="788"/>
      <point x="837" y="720" type="qcurve"/>
      <point x="739" y="656"/>
      <point x="647" y="636" type="qcurve"/>
      <point x="647" y="367" type="line"/>
      <point x="412" y="367" type="line"/>
    </contour>
    <contour>
      <point x="530" y="0" type="qcurve"/>
      <point x="469" y="0"/>
      <point x="427" y="43" type="qcurve"/>
      <point x="386" y="87"/>
      <point x="384" y="146" type="qcurve"/>
      <point x="386" y="202"/>
      <point x="427" y="243" type="qcurve"/>
      <point x="469" y="288"/>
      <point x="530" y="287" type="qcurve"/>
      <point x="590" y="289"/>
      <point x="631" y="243" type="qcurve"/>
      <point x="671" y="201"/>
      <point x="671" y="147" type="qcurve"/>
      <point x="674" y="88"/>
      <point x="632" y="44" type="qcurve"/>
      <point x="589" y="0"/>
    </contour>
  </outline>
</glyph>
<glyph name="at" format="2">
  <advance width="1712"/>
  <unicode hex="0040"/>
  <outline>
    <contour>
      <point x="1076" y="195" type="qcurve"/>
      <point x="1025" y="243"/>
      <point x="1026" y="234" type="qcurve"/>
      <point x="1028" y="237"/>
      <point x="944" y="191" type="qcurve"/>
      <point x="856" y="143"/>
      <point x="756" y="141" type="qcurve"/>
      <point x="603" y="143"/>
      <point x="506" y="243" type="qcurve"/>
      <point x="408" y="345"/>
      <point x="408" y="502" type="qcurve"/>
      <point x="408" y="639"/>
      <point x="477" y="752" type="qcurve"/>
      <point x="544" y="866"/>
      <point x="650" y="932" type="qcurve"/>
      <point x="760" y="1006"/>
      <point x="879" y="1002" type="qcurve"/>
      <point x="983" y="1004"/>
      <point x="1058" y="953" type="qcurve"/>
      <point x="1135" y="907"/>
      <point x="1108" y="967" type="qcurve"/>
      <point x="1111" y="979" type="line"/>
      <point x="1326" y="962" type="line"/>
      <point x="1288" y="763"/>
      <point x="1288" y="760" type="qcurve"/>
      <point x="1223" y="431"/>
      <point x="1223" y="394" type="qcurve"/>
      <point x="1223" y="360"/>
      <point x="1240" y="345" type="qcurve"/>
      <point x="1258" y="332"/>
      <point x="1278" y="335" type="qcurve"/>
      <point x="1323" y="343"/>
      <point x="1361" y="370" type="qcurve"/>
      <point x="1397" y="395"/>
      <point x="1418" y="452" type="qcurve"/>
      <point x="1449" y="520"/>
      <point x="1449" y="625" type="qcurve"/>
      <point x="1451" y="759"/>
      <point x="1376" y="874" type="qcurve"/>
      <point x="1301" y="995"/>
      <point x="1177" y="1064" type="qcurve"/>
      <point x="1052" y="1136"/>
      <point x="900" y="1135" type="qcurve"/>
      <point x="740" y="1137"/>
      <point x="598" y="1052" type="qcurve"/>
      <point x="460" y="969"/>
      <point x="371" y="824" type="qcurve"/>
      <point x="290" y="684"/>
      <point x="287" y="517" type="qcurve"/>
      <point x="290" y="376"/>
      <point x="364" y="249" type="qcurve"/>
      <point x="439" y="127"/>
      <point x="568" y="46" type="qcurve"/>
      <point x="697" y="-28"/>
      <point x="844" y="-29" type="qcurve"/>
      <point x="948" y="-29"/>
      <point x="1024" y="-7" type="qcurve"/>
      <point x="1109" y="19"/>
      <point x="1260" y="107" type="qcurve"/>
      <point x="1364" y="-62" type="line"/>
      <point x="1193" y="-171"/>
      <point x="1085" y="-202" type="qcurve"/>
      <point x="974" y="-232"/>
      <point x="841" y="-234" type="qcurve"/>
      <point x="634" y="-234"/>
      <point x="460" y="-132" type="qcurve"/>
      <point x="288" y="-32"/>
      <point x="180" y="138" type="qcurve"/>
      <point x="77" y="315"/>
      <point x="78" y="515" type="qcurve"/>
      <point x="79" y="736"/>
      <point x="190" y="927" type="qcurve"/>
      <point x="303" y="1117"/>
      <point x="491" y="1228" type="qcurve"/>
      <point x="682" y="1343"/>
      <point x="903" y="1341" type="qcurve"/>
      <point x="1103" y="1344"/>
      <point x="1277" y="1246" type="qcurve"/>
      <point x="1451" y="1149"/>
      <point x="1553" y="983" type="qcurve"/>
      <point x="1658" y="821"/>
      <point x="1657" y="625" type="qcurve"/>
      <point x="1657" y="471"/>
      <point x="1602" y="355" type="qcurve"/>
      <point x="1548" y="241"/>
      <point x="1456" y="179" type="qcurve"/>
      <point x="1366" y="118"/>
      <point x="1258" y="118" type="qcurve"/>
      <point x="1153" y="121"/>
    </contour>
    <contour>
      <point x="788" y="342" type="qcurve"/>
      <point x="892" y="344"/>
      <point x="958" y="416" type="qcurve"/>
      <point x="1026" y="494"/>
      <point x="1038" y="620" type="qcurve"/>
      <point x="1042" y="631"/>
      <point x="1040" y="651" type="qcurve"/>
      <point x="1042" y="727"/>
      <point x="1005" y="764" type="qcurve"/>
      <point x="969" y="802"/>
      <point x="892" y="802" type="qcurve"/>
      <point x="827" y="802"/>
      <point x="768" y="762" type="qcurve"/>
      <point x="708" y="723"/>
      <point x="672" y="655" type="qcurve"/>
      <point x="635" y="585"/>
      <point x="633" y="507" type="qcurve"/>
      <point x="634" y="433"/>
      <point x="675" y="387" type="qcurve"/>
      <point x="716" y="340"/>
    </contour>
  </outline>
</glyph>
<glyph name="E" format="2">
  <advance width="1257"/>
  <unicode hex="0045"/>
  <outline>
    <contour>
      <point x="400" y="1233" type="line"/>
      <point x="400" y="857" type="line"/>
      <point x="1078" y="857" type="line"/>
      <point x="1078" y="630" type="line"/>
      <point x="400" y="630" type="line"/>
      <point x="400" y="227" type="line"/>
      <point x="1152" y="227" type="line"/>
      <point x="1152" y="0" type="line"/>
      <point x="164" y="0" type="line"/>
      <point x="164" y="1463" type="line"/>
      <point x="1152" y="1463" type="line"/>
      <point x="1152" y="1233" type="line"/>
    </contour>
  </outline>
</glyph>
<glyph name="H" format="2">
  <advance width="1496"/>
  <unicode hex="0048"/>
  <outline>
    <contour>
      <point x="1346" y="1463" type="line"/>
      <point x="1346" y="0" type="line"/>
      <point x="1111" y="0" type="line"/>
      <point x="1111" y="635" type="line"/>
      <point x="398" y="635" type="line"/>
      <point x="398" y="0" type="line"/>
      <point x="164" y="0" type="line"/>
      <point x="164" y="1463" type="line"/>
      <point x="398" y="1463" type="line"/>
      <point x="398" y="865" type="line"/>
      <point x="1111" y="865" type="line"/>
      <point x="1111" y="1463" type="line"/>
    </contour>
  </outline>
</glyph>
<glyph name="Q" format="2">
  <advance width="1703"/>
  <unicode hex="0051"/>
  <outline>
    <contour>
      <point x="862" y="1483" type="qcurve"/>
      <point x="1064" y="1485"/>
      <point x="1231" y="1383" type="qcurve"/>
      <point x="1402" y="1280"/>
      <point x="1503" y="1107" type="qcurve"/>
      <point x="1608" y="938"/>
      <point x="1605" y="731" type="qcurve"/>
      <point x="1607" y="530"/>
      <point x="1503" y="356" type="qcurve"/>
      <point x="1467" y="298"/>
      <point x="1451" y="277" type="qcurve"/>
      <point x="1590" y="153" type="line"/>
      <point x="1438" y="-21" type="line"/>
      <point x="1281" y="114" type="line"/>
      <point x="1277" y="109"/>
      <point x="1232" y="84" type="qcurve"/>
      <point x="1064" y="-19"/>
      <point x="862" y="-22" type="qcurve"/>
      <point x="665" y="-21"/>
      <point x="493" y="82" type="qcurve"/>
      <point x="323" y="185"/>
      <point x="218" y="356" type="qcurve"/>
      <point x="113" y="529"/>
      <point x="113" y="731" type="qcurve"/>
      <point x="113" y="936"/>
      <point x="219" y="1106" type="qcurve"/>
      <point x="322" y="1278"/>
      <point x="491" y="1381" type="qcurve"/>
      <point x="664" y="1487"/>
    </contour>
    <contour>
      <point x="862" y="1246" type="qcurve"/>
      <point x="730" y="1248"/>
      <point x="610" y="1178" type="qcurve"/>
      <point x="551" y="1141"/>
      <point x="505" y="1096" type="qcurve"/>
      <point x="460" y="1051"/>
      <point x="423" y="991" type="qcurve"/>
      <point x="353" y="868"/>
      <point x="353" y="731" type="qcurve"/>
      <point x="351" y="599"/>
      <point x="420" y="478" type="qcurve"/>
      <point x="492" y="359"/>
      <point x="608" y="288" type="qcurve"/>
      <point x="729" y="213"/>
      <point x="862" y="215" type="qcurve"/>
      <point x="993" y="213"/>
      <point x="1112" y="288" type="qcurve"/>
      <point x="1132" y="299"/>
      <point x="1101" y="274" type="qcurve"/>
      <point x="927" y="425" type="line"/>
      <point x="1076" y="602" type="line"/>
      <point x="1271" y="432" type="line"/>
      <point x="1270" y="431"/>
      <point x="1300" y="478" type="qcurve"/>
      <point x="1371" y="599"/>
      <point x="1368" y="731" type="qcurve"/>
      <point x="1371" y="866"/>
      <point x="1299" y="988" type="qcurve"/>
      <point x="1232" y="1107"/>
      <point x="1114" y="1176" type="qcurve"/>
      <point x="995" y="1248"/>
    </contour>
  </outline>
</glyph>
<glyph name="R" format="2">
  <advance width="1414"/>
  <unicode hex="0052"/>
  <outline>
    <contour>
      <point x="164" y="1463" type="line"/>
      <point x="715" y="1463" type="line"/>
      <point x="858" y="1463"/>
      <point x="968" y="1407" type="qcurve"/>
      <point x="1089" y="1353"/>
      <point x="1152" y="1250" type="qcurve"/>
      <point x="1224" y="1149"/>
      <point x="1223" y="1018" type="qcurve"/>
      <point x="1224" y="859"/>
      <point x="1114" y="737" type="qcurve"/>
      <point x="1011" y="621"/>
      <point x="916" y="600" type="qcurve"/>
      <point x="1336" y="0" type="line"/>
      <point x="1057" y="0" type="line"/>
      <point x="658" y="571" type="line"/>
      <point x="398" y="571" type="line"/>
      <point x="398" y="0" type="line"/>
      <point x="164" y="0" type="line"/>
    </contour>
    <contour>
      <point x="398" y="1233" type="line"/>
      <point x="398" y="799" type="line"/>
      <point x="692" y="799" type="line"/>
      <point x="831" y="799"/>
      <point x="909" y="860" type="qcurve"/>
      <point x="986" y="918"/>
      <point x="986" y="1019" type="qcurve"/>
      <point x="988" y="1118"/>
      <point x="911" y="1172" type="qcurve"/>
      <point x="831" y="1234"/>
      <point x="693" y="1233" type="qcurve"/>
    </contour>
  </outline>
</glyph>
<glyph name="T" format="2">
  <advance width="1261"/>
  <unicode hex="0054"/>
  <outline>
    <contour>
      <point x="520" y="1233" type="line"/>
      <point x="103" y="1233" type="line"/>
      <point x="103" y="1463" type="line"/>
      <point x="1175" y="1463" type="line"/>
      <point x="1175" y="1233" type="line"/>
      <point x="755" y="1233" type="line"/>
      <point x="755" y="0" type="line"/>
      <point x="520" y="0" type="line"/>
    </contour>
  </outline>
</glyph>
<glyph name="W" format="2">
  <advance width="1906"/>
  <unicode hex="0057"/>
  <outline>
    <contour>
      <point x="7" y="1463" type="line"/>
      <point x="244" y="1463" type="line"/>
      <point x="516" y="457" type="line"/>
      <point x="833" y="1463" type="line"/>
      <point x="1041" y="1463" type="line"/>
      <point x="1359" y="457" type="line"/>
      <point x="1627" y="1463" type="line"/>
      <point x="1867" y="1463" type="line"/>
      <point x="1476" y="0" type="line"/>
      <point x="1262" y="0" type="line"/>
      <point x="934" y="1038" type="line"/>
      <point x="609" y="0" type="line"/>
      <point x="399" y="0" type="line"/>
    </contour>
  </outline>
</glyph>
<glyph name="X" format="2">
  <advance width="1522"/>
  <unicode hex="0058"/>
  <outline>
    <contour>
      <point x="908" y="731" type="line"/>
      <point x="1446" y="0" type="line"/>
      <point x="1160" y="0" type="line"/>
      <point x="753" y="532" type="line"/>
      <point x="333" y="0" type="line"/>
      <point x="42" y="0" type="line"/>
      <point x="602" y="729" type="line"/>
      <point x="42" y="1463" type="line"/>
      <point x="331" y="1463" type="line"/>
      <point x="755" y="932" type="line"/>
      <point x="1162" y="1463" type="line"/>
      <point x="1449" y="1463" type="line"/>
    </contour>
  </outline>
</glyph>
<glyph name="Y" format="2">
  <advance width="1469"/>
  <unicode hex="0059"/>
  <outline>
    <contour>
      <point x="604" y="591" type="line"/>
      <point x="12" y="1463" type="line"/>
      <point x="300" y="1463" type="line"/>
      <point x="729" y="836" type="line"/>
      <point x="1153" y="1463" type="line"/>
      <point x="1435" y="1463" type="line"/>
      <point x="847" y="591" type="line"/>
      <point x="847" y="0" type="line"/>
      <point x="604" y="0" type="line"/>
    </contour>
  </outline>
</glyph>
<glyph name="Z" format="2">
  <advance width="1357"/>
  <unicode hex="005A"/>
  <outline>
    <contour>
      <point x="125" y="175" type="line"/>
      <point x="924" y="1233" type="line"/>
      <point x="140" y="1233" type="line"/>
      <point x="140" y="1463" type="line"/>
      <point x="1252" y="1463" type="line"/>
      <point x="1252" y="1276" type="line"/>
      <point x="460" y="227" type="line"/>
      <point x="1252" y="227" type="line"/>
      <point x="1252" y="0" type="line"/>
      <point x="125" y="0" type="line"/>
    </contour>
  </outline>
</glyph>
<glyph name="underscore" format="2">
  <advance width="1187"/>
  <unicode hex="005F"/>
  <outline>
    <contour>
      <point x="17" y="-41" type="line"/>
      <point x="1192" y="-41" type="line"/>
      <point x="1192" y="-258" type="line"/>
      <point x="17" y="-258" type="line"/>
    </contour>
  </outline>
</glyph>
<glyph name="b" format="2">
  <advance width="1277"/>
  <unicode hex="0062"/>
  <outline>
    <contour>
      <point x="654" y="838" type="qcurve"/>
      <point x="578" y="837"/>
      <point x="517" y="797" type="qcurve"/>
      <point x="456" y="760"/>
      <point x="423" y="688" type="qcurve"/>
      <point x="388" y="612"/>
      <point x="387" y="515" type="qcurve"/>
      <point x="388" y="416"/>
      <point x="423" y="345" type="qcurve"/>
      <point x="457" y="273"/>
      <point x="518" y="233" type="qcurve"/>
      <point x="578" y="194"/>
      <point x="654" y="195" type="qcurve"/>
      <point x="730" y="193"/>
      <point x="790" y="233" type="qcurve"/>
      <point x="853" y="273"/>
      <point x="887" y="344" type="qcurve"/>
      <point x="922" y="416"/>
      <point x="921" y="515" type="qcurve"/>
      <point x="922" y="612"/>
      <point x="887" y="686" type="qcurve"/>
      <point x="853" y="757"/>
      <point x="793" y="797" type="qcurve"/>
      <point x="730" y="838"/>
    </contour>
    <contour>
      <point x="157" y="0" type="line"/>
      <point x="157" y="1463" type="line"/>
      <point x="387" y="1463" type="line"/>
      <point x="387" y="985" type="line"/>
      <point x="357" y="932"/>
      <point x="455" y="992" type="qcurve"/>
      <point x="555" y="1052"/>
      <point x="679" y="1052" type="qcurve"/>
      <point x="815" y="1055"/>
      <point x="925" y="982" type="qcurve"/>
      <point x="1033" y="914"/>
      <point x="1097" y="789" type="qcurve"/>
      <point x="1159" y="664"/>
      <point x="1160" y="515" type="qcurve"/>
      <point x="1159" y="363"/>
      <point x="1098" y="242" type="qcurve"/>
      <point x="1033" y="118"/>
      <point x="927" y="48" type="qcurve"/>
      <point x="816" y="-24"/>
      <point x="680" y="-24" type="qcurve"/>
      <point x="557" y="-24"/>
      <point x="458" y="35" type="qcurve"/>
      <point x="359" y="95"/>
      <point x="387" y="45" type="qcurve"/>
      <point x="387" y="0" type="line"/>
    </contour>
  </outline>
</glyph>
<glyph name="d" format="2">
  <advance width="1279"/>
  <unicode hex="0064"/>
  <outline>
    <contour>
      <point x="622" y="193" type="qcurve"/>
      <point x="699" y="196"/>
      <point x="760" y="233" type="qcurve"/>
      <point x="821" y="273"/>
      <point x="854" y="343" type="qcurve"/>
      <point x="891" y="420"/>
      <point x="890" y="515" type="qcurve"/>
      <point x="891" y="614"/>
      <point x="854" y="685" type="qcurve"/>
      <point x="821" y="759"/>
      <point x="760" y="798" type="qcurve"/>
      <point x="700" y="838"/>
      <point x="622" y="837" type="qcurve"/>
      <point x="548" y="838"/>
      <point x="486" y="796" type="qcurve"/>
      <point x="424" y="759"/>
      <point x="389" y="686" type="qcurve"/>
      <point x="355" y="614"/>
      <point x="355" y="515" type="qcurve"/>
      <point x="355" y="420"/>
      <point x="390" y="345" type="qcurve"/>
      <point x="425" y="274"/>
      <point x="484" y="233" type="qcurve"/>
      <point x="548" y="196"/>
    </contour>
    <contour>
      <point x="1120" y="1463" type="line"/>
      <point x="1120" y="0" type="line"/>
      <point x="890" y="0" type="line"/>
      <point x="890" y="49" type="line"/>
      <point x="919" y="99"/>
      <point x="822" y="39" type="qcurve"/>
      <point x="724" y="-22"/>
      <point x="598" y="-22" type="qcurve"/>
      <point x="463" y="-24"/>
      <point x="352" y="48" type="qcurve"/>
      <point x="243" y="119"/>
      <point x="180" y="243" type="qcurve"/>
      <point x="121" y="368"/>
      <point x="117" y="515" type="qcurve"/>
      <point x="120" y="667"/>
      <point x="180" y="789" type="qcurve"/>
      <point x="243" y="916"/>
      <point x="351" y="982" type="qcurve"/>
      <point x="463" y="1055"/>
      <point x="598" y="1054" type="qcurve"/>
      <point x="721" y="1055"/>
      <point x="820" y="995" type="qcurve"/>
      <point x="918" y="936"/>
      <point x="890" y="986" type="qcurve"/>
      <point x="890" y="1463" type="line"/>
    </contour>
  </outline>
</glyph>
<glyph name="i" format="2">
  <advance width="531"/>
  <unicode hex="0069"/>
  <outline>
    <contour>
      <point x="272" y="1108" type="qcurve"/>
      <point x="216" y="1105"/>
      <point x="174" y="1150" type="qcurve"/>
      <point x="133" y="1194"/>
      <point x="134" y="1244" type="qcurve"/>
      <point x="133" y="1299"/>
      <point x="173" y="1340" type="qcurve"/>
      <point x="214" y="1381"/>
      <point x="270" y="1381" type="qcurve"/>
      <point x="326" y="1386"/>
      <point x="368" y="1342" type="qcurve"/>
      <point x="413" y="1298"/>
      <point x="408" y="1245" type="qcurve"/>
      <point x="415" y="1196"/>
      <point x="372" y="1150" type="qcurve"/>
      <point x="331" y="1105"/>
    </contour>
    <contour>
      <point x="156" y="1030" type="line"/>
      <point x="386" y="1030" type="line"/>
      <point x="386" y="0" type="line"/>
      <point x="156" y="0" type="line"/>
    </contour>
  </outline>
</glyph>
<glyph name="m" format="2">
  <advance width="1744"/>
  <unicode hex="006D"/>
  <outline>
    <contour>
      <point x="1218" y="1054" type="qcurve"/>
      <point x="1329" y="1057"/>
      <point x="1415" y="1001" type="qcurve"/>
      <point x="1501" y="950"/>
      <point x="1550" y="854" type="qcurve"/>
      <point x="1597" y="763"/>
      <point x="1597" y="645" type="qcurve"/>
      <point x="1597" y="0" type="line"/>
      <point x="1369" y="0" type="line"/>
      <point x="1369" y="626" type="line"/>
      <point x="1371" y="723"/>
      <point x="1319" y="782" type="qcurve"/>
      <point x="1274" y="838"/>
      <point x="1199" y="837" type="qcurve"/>
      <point x="1105" y="839"/>
      <point x="1050" y="784" type="qcurve"/>
      <point x="994" y="730"/>
      <point x="993" y="645" type="qcurve"/>
      <point x="993" y="0" type="line"/>
      <point x="763" y="0" type="line"/>
      <point x="763" y="625" type="line"/>
      <point x="764" y="723"/>
      <point x="713" y="782" type="qcurve"/>
      <point x="666" y="838"/>
      <point x="595" y="837" type="qcurve"/>
      <point x="502" y="839"/>
      <point x="445" y="784" type="qcurve"/>
      <point x="388" y="730"/>
      <point x="387" y="645" type="qcurve"/>
      <point x="387" y="0" type="line"/>
      <point x="157" y="0" type="line"/>
      <point x="157" y="1030" type="line"/>
      <point x="387" y="1030" type="line"/>
      <point x="387" y="1053" type="line"/>
      <point x="341" y="957"/>
      <point x="425" y="1003" type="qcurve"/>
      <point x="508" y="1056"/>
      <point x="613" y="1054" type="qcurve"/>
      <point x="734" y="1054"/>
      <point x="823" y="992" type="qcurve"/>
      <point x="915" y="931"/>
      <point x="911" y="941" type="qcurve"/>
      <point x="908" y="931"/>
      <point x="1003" y="990" type="qcurve"/>
      <point x="1098" y="1054"/>
    </contour>
  </outline>
</glyph>
<glyph name="n" format="2">
  <advance width="1196"/>
  <unicode hex="006E"/>
  <outline>
    <contour>
      <point x="649" y="1054" type="qcurve"/>
      <point x="766" y="1057"/>
      <point x="854" y="1002" type="qcurve"/>
      <point x="949" y="952"/>
      <point x="998" y="854" type="qcurve"/>
      <point x="1051" y="764"/>
      <point x="1048" y="645" type="qcurve"/>
      <point x="1048" y="0" type="line"/>
      <point x="820" y="0" type="line"/>
      <point x="820" y="625" type="line"/>
      <point x="820" y="722"/>
      <point x="765" y="781" type="qcurve"/>
      <point x="716" y="838"/>
      <point x="634" y="837" type="qcurve"/>
      <point x="568" y="837"/>
      <point x="508" y="809" type="qcurve"/>
      <point x="453" y="785"/>
      <point x="419" y="735" type="qcurve"/>
      <point x="390" y="695"/>
      <point x="389" y="644" type="qcurve"/>
      <point x="389" y="0" type="line"/>
      <point x="159" y="0" type="line"/>
      <point x="159" y="1030" type="line"/>
      <point x="389" y="1030" type="line"/>
      <point x="389" y="1022" type="line"/>
      <point x="348" y="943"/>
      <point x="444" y="998" type="qcurve"/>
      <point x="541" y="1055"/>
    </contour>
  </outline>
</glyph>
<glyph name="r" format="2">
  <advance width="816"/>
  <unicode hex="0072"/>
  <outline>
    <contour>
      <point x="400" y="1020" type="line"/>
      <point x="358" y="929"/>
      <point x="468" y="989" type="qcurve"/>
      <point x="575" y="1055"/>
      <point x="762" y="1054" type="qcurve"/>
      <point x="762" y="837" type="line"/>
      <point x="621" y="837"/>
      <point x="548" y="803" type="qcurve"/>
      <point x="481" y="770"/>
      <point x="441" y="708" type="qcurve"/>
      <point x="400" y="647"/>
      <point x="400" y="571" type="qcurve"/>
      <point x="400" y="0" type="line"/>
      <point x="171" y="0" type="line"/>
      <point x="171" y="1030" type="line"/>
      <point x="400" y="1030" type="line"/>
    </contour>
  </outline>
</glyph>
<glyph name="s" format="2">
  <advance width="1045"/>
  <unicode hex="0073"/>
  <outline>
    <contour>
      <point x="932" y="864" type="qcurve"/>
      <point x="770" y="698" type="line"/>
      <point x="644" y="832"/>
      <point x="520" y="837" type="qcurve"/>
      <point x="395" y="832"/>
      <point x="383" y="745" type="qcurve"/>
      <point x="383" y="699"/>
      <point x="415" y="684" type="qcurve"/>
      <point x="474" y="659"/>
      <point x="577" y="624" type="qcurve"/>
      <point x="764" y="580"/>
      <point x="847" y="518" type="qcurve"/>
      <point x="943" y="450"/>
      <point x="943" y="304" type="qcurve"/>
      <point x="919" y="-6"/>
      <point x="572" y="-22" type="qcurve"/>
      <point x="288" y="-21"/>
      <point x="101" y="185" type="qcurve"/>
      <point x="266" y="353" type="line"/>
      <point x="400" y="193"/>
      <point x="572" y="195" type="qcurve"/>
      <point x="697" y="191"/>
      <point x="712" y="308" type="qcurve"/>
      <point x="712" y="374"/>
      <point x="518" y="410" type="qcurve"/>
      <point x="325" y="455"/>
      <point x="242" y="525" type="qcurve"/>
      <point x="152" y="605"/>
      <point x="152" y="748" type="qcurve"/>
      <point x="152" y="877"/>
      <point x="269" y="967" type="qcurve"/>
      <point x="381" y="1054"/>
      <point x="536" y="1054" type="qcurve"/>
      <point x="662" y="1046"/>
      <point x="741" y="1009" type="qcurve"/>
      <point x="823" y="974"/>
    </contour>
  </outline>
</glyph>
<glyph name="v" format="2">
  <advance width="1159"/>
  <unicode hex="0076"/>
  <outline>
    <contour>
      <point x="46" y="1030" type="line"/>
      <point x="300" y="1030" type="line"/>
      <point x="579" y="334" type="line"/>
      <point x="854" y="1030" type="line"/>
      <point x="1109" y="1030" type="line"/>
      <point x="677" y="0" type="line"/>
      <point x="486" y="0" type="line"/>
    </contour>
  </outline>
</glyph>
<glyph name="w" format="2">
  <advance width="1647"/>
  <unicode hex="0077"/>
  <outline>
    <contour>
      <point x="67" y="1030" type="line"/>
      <point x="310" y="1030" type="line"/>
      <point x="513" y="381" type="line"/>
      <point x="731" y="1030" type="line"/>
      <point x="918" y="1030" type="line"/>
      <point x="1137" y="382" type="line"/>
      <point x="1338" y="1030" type="line"/>
      <point x="1583" y="1030" type="line"/>
      <point x="1236" y="0" type="line"/>
      <point x="1040" y="0" type="line"/>
      <point x="825" y="648" type="line"/>
      <point x="606" y="0" type="line"/>
      <point x="412" y="0" type="line"/>
    </contour>
  </outline>
</glyph>
<glyph name="x" format="2">
  <advance width="1163"/>
  <unicode hex="0078"/>
  <outline>
    <contour>
      <point x="825" y="0" type="line"/>
      <point x="566" y="343" type="line"/>
      <point x="308" y="0" type="line"/>
      <point x="30" y="0" type="line"/>
      <point x="428" y="525" type="line"/>
      <point x="45" y="1030" type="line"/>
      <point x="323" y="1030" type="line"/>
      <point x="566" y="709" type="line"/>
      <point x="810" y="1030" type="line"/>
      <point x="1088" y="1030" type="line"/>
      <point x="706" y="525" type="line"/>
      <point x="1101" y="0" type="line"/>
    </contour>
  </outline>
</glyph>
<glyph name="z" format="2">
  <advance width="1052"/>
  <unicode hex="007A"/>
  <outline>
    <contour>
      <point x="117" y="169" type="line"/>
      <point x="620" y="809" type="line"/>
      <point x="129" y="809" type="line"/>
      <point x="129" y="1030" type="line"/>
      <point x="948" y="1030" type="line"/>
      <point x="948" y="860" type="line"/>
      <point x="442" y="221" type="line"/>
      <point x="951" y="221" type="line"/>
      <point x="951" y="0" type="line"/>
      <point x="117" y="0" type="line"/>
    </contour>
  </outline>
</glyph>
<glyph name="braceleft" format="2">
  <advance width="838"/>
  <unicode hex="007B"/>
  <outline>
    <contour>
      <point x="435" y="594" type="qcurve"/>
      <point x="411" y="603"/>
      <point x="450" y="540" type="qcurve"/>
      <point x="489" y="478"/>
      <point x="491" y="384" type="qcurve"/>
      <point x="489" y="60" type="line"/>
      <point x="489" y="-4"/>
      <point x="502" y="-32" type="qcurve"/>
      <point x="517" y="-57"/>
      <point x="553" y="-73" type="qcurve"/>
      <point x="601" y="-95"/>
      <point x="751" y="-114" type="qcurve"/>
      <point x="729" y="-306" type="line"/>
      <point x="538" y="-283"/>
      <point x="450" y="-244" type="qcurve"/>
      <point x="354" y="-206"/>
      <point x="313" y="-127" type="qcurve"/>
      <point x="277" y="-55"/>
      <point x="277" y="53" type="qcurve"/>
      <point x="277" y="368" type="line"/>
      <point x="277" y="441"/>
      <point x="248" y="469" type="qcurve"/>
      <point x="225" y="494"/>
      <point x="100" y="494" type="qcurve"/>
      <point x="100" y="687" type="line"/>
      <point x="226" y="688"/>
      <point x="249" y="712" type="qcurve"/>
      <point x="277" y="741"/>
      <point x="277" y="812" type="qcurve"/>
      <point x="277" y="1128" type="line"/>
      <point x="277" y="1238"/>
      <point x="312" y="1308" type="qcurve"/>
      <point x="353" y="1388"/>
      <point x="450" y="1426" type="qcurve"/>
      <point x="538" y="1465"/>
      <point x="729" y="1486" type="qcurve"/>
      <point x="752" y="1298" type="line"/>
      <point x="603" y="1277"/>
      <point x="554" y="1255" type="qcurve"/>
      <point x="516" y="1238"/>
      <point x="503" y="1213" type="qcurve"/>
      <point x="489" y="1186"/>
      <point x="489" y="1120" type="qcurve"/>
      <point x="491" y="795" type="line"/>
      <point x="489" y="705"/>
      <point x="450" y="640" type="qcurve"/>
      <point x="407" y="582"/>
    </contour>
  </outline>
</glyph>
<glyph name="asciitilde" format="2">
  <advance width="934"/>
  <unicode hex="007E"/>
  <outline>
    <contour>
      <point x="588" y="543" type="qcurve"/>
      <point x="535" y="543"/>
      <point x="496" y="570" type="qcurve"/>
      <point x="470" y="588"/>
      <point x="418" y="622" type="qcurve"/>
      <point x="395" y="648"/>
      <point x="374" y="655" type="qcurve"/>
      <point x="365" y="664"/>
      <point x="352" y="663" type="qcurve"/>
      <point x="342" y="663"/>
      <point x="336" y="653" type="qcurve"/>
      <point x="321" y="633"/>
      <point x="302" y="533" type="qcurve"/>
      <point x="126" y="561" type="line"/>
      <point x="170" y="863"/>
      <point x="352" y="863" type="qcurve"/>
      <point x="406" y="863"/>
      <point x="441" y="840" type="qcurve"/>
      <point x="475" y="823"/>
      <point x="523" y="785" type="qcurve"/>
      <point x="554" y="759"/>
      <point x="570" y="747" type="qcurve"/>
      <point x="578" y="742"/>
      <point x="588" y="742" type="qcurve"/>
      <point x="600" y="742"/>
      <point x="608" y="755" type="qcurve"/>
      <point x="625" y="775"/>
      <point x="638" y="873" type="qcurve"/>
      <point x="814" y="845" type="line"/>
      <point x="775" y="543"/>
    </contour>
  </outline>
</glyph>
<glyph name="cent" format="2">
  <advance width="1120"/>
  <unicode hex="00A2"/>
  <outline>
    <contour>
      <point x="1046" y="167" type="qcurve"/>
      <point x="947" y="70"/>
      <point x="866" y="30" type="qcurve"/>
      <point x="785" y="-7"/>
      <point x="735" y="-13" type="qcurve"/>
      <point x="735" y="-133" type="line"/>
      <point x="498" y="-133" type="line"/>
      <point x="498" y="-4" type="line"/>
      <point x="417" y="14"/>
      <point x="318" y="90" type="qcurve"/>
      <point x="223" y="167"/>
      <point x="165" y="279" type="qcurve"/>
      <point x="109" y="391"/>
      <point x="109" y="515" type="qcurve"/>
      <point x="107" y="640"/>
      <point x="163" y="752" type="qcurve"/>
      <point x="221" y="863"/>
      <point x="316" y="941" type="qcurve"/>
      <point x="418" y="1020"/>
      <point x="498" y="1036" type="qcurve"/>
      <point x="498" y="1162" type="line"/>
      <point x="735" y="1162" type="line"/>
      <point x="735" y="1049" type="line"/>
      <point x="782" y="1046"/>
      <point x="864" y="1003" type="qcurve"/>
      <point x="943" y="965"/>
      <point x="1041" y="867" type="qcurve"/>
      <point x="878" y="707" type="line"/>
      <point x="778" y="821"/>
      <point x="735" y="826" type="qcurve"/>
      <point x="735" y="207" type="line"/>
      <point x="779" y="216"/>
      <point x="883" y="329" type="qcurve"/>
      <point x="948" y="266"/>
      <point x="964" y="248" type="qcurve"/>
      <point x="981" y="232"/>
    </contour>
    <contour>
      <point x="346" y="515" type="qcurve"/>
      <point x="344" y="409"/>
      <point x="407" y="322" type="qcurve"/>
      <point x="469" y="238"/>
      <point x="498" y="227" type="qcurve"/>
      <point x="498" y="806" type="line"/>
      <point x="469" y="796"/>
      <point x="407" y="710" type="qcurve"/>
      <point x="344" y="624"/>
    </contour>
  </outline>
</glyph>
<glyph name="sterling" format="2">
  <advance width="1329"/>
  <unicode hex="00A3"/>
  <outline>
    <contour>
      <point x="1241" y="227" type="line"/>
      <point x="1241" y="0" type="line"/>
      <point x="118" y="0" type="line"/>
      <point x="118" y="140" type="line"/>
      <point x="251" y="211" type="line"/>
      <point x="251" y="524" type="line"/>
      <point x="124" y="524" type="line"/>
      <point x="124" y="740" type="line"/>
      <point x="251" y="740" type="line"/>
      <point x="251" y="970" type="line"/>
      <point x="251" y="1120"/>
      <point x="310" y="1234" type="qcurve"/>
      <point x="372" y="1353"/>
      <point x="479" y="1418" type="qcurve"/>
      <point x="589" y="1484"/>
      <point x="726" y="1484" type="qcurve"/>
      <point x="876" y="1487"/>
      <point x="1002" y="1415" type="qcurve"/>
      <point x="1134" y="1349"/>
      <point x="1199" y="1207" type="qcurve"/>
      <point x="1015" y="1031" type="line"/>
      <point x="976" y="1167"/>
      <point x="900" y="1213" type="qcurve"/>
      <point x="825" y="1264"/>
      <point x="727" y="1264" type="qcurve"/>
      <point x="623" y="1265"/>
      <point x="555" y="1183" type="qcurve"/>
      <point x="485" y="1104"/>
      <point x="485" y="970" type="qcurve"/>
      <point x="485" y="740" type="line"/>
      <point x="892" y="740" type="line"/>
      <point x="892" y="524" type="line"/>
      <point x="485" y="524" type="line"/>
      <point x="485" y="227" type="line"/>
    </contour>
  </outline>
</glyph>
<glyph name="yen" format="2">
  <advance width="1469"/>
  <unicode hex="00A5"/>
  <outline>
    <contour>
      <point x="948" y="743" type="line"/>
      <point x="1262" y="743" type="line"/>
      <point x="1262" y="525" type="line"/>
      <point x="846" y="525" type="line"/>
      <point x="846" y="446" type="line"/>
      <point x="1262" y="446" type="line"/>
      <point x="1262" y="230" type="line"/>
      <point x="846" y="230" type="line"/>
      <point x="846" y="0" type="line"/>
      <point x="602" y="0" type="line"/>
      <point x="602" y="230" type="line"/>
      <point x="187" y="230" type="line"/>
      <point x="187" y="446" type="line"/>
      <point x="602" y="446" type="line"/>
      <point x="602" y="525" type="line"/>
      <point x="187" y="525" type="line"/>
      <point x="187" y="743" type="line"/>
      <point x="500" y="743" type="line"/>
      <point x="10" y="1463" type="line"/>
      <point x="299" y="1463" type="line"/>
      <point x="725" y="822" type="line"/>
      <point x="1152" y="1463" type="line"/>
      <point x="1438" y="1463" type="line"/>
    </contour>
  </outline>
</glyph>
<glyph name="paragraph" format="2">
  <advance width="1327"/>
  <unicode hex="00B6"/>
  <outline>
    <contour>
      <point x="553" y="600" type="line"/>
      <point x="448" y="602"/>
      <point x="334" y="651" type="qcurve"/>
      <point x="221" y="708"/>
      <point x="153" y="804" type="qcurve"/>
      <point x="88" y="901"/>
      <point x="88" y="1029" type="qcurve"/>
      <point x="88" y="1156"/>
      <point x="150" y="1255" type="qcurve"/>
      <point x="214" y="1356"/>
      <point x="322" y="1407" type="qcurve"/>
      <point x="429" y="1463"/>
      <point x="564" y="1463" type="qcurve"/>
      <point x="1117" y="1463" type="line"/>
      <point x="1117" y="-102" type="line"/>
      <point x="914" y="-102" type="line"/>
      <point x="914" y="1269" type="line"/>
      <point x="759" y="1269" type="line"/>
      <point x="759" y="-102" type="line"/>
      <point x="553" y="-102" type="line"/>
    </contour>
  </outline>
</glyph>
<glyph name="questiondown" format="2">
  <advance width="1052"/>
  <unicode hex="00BF"/>
  <outline>
    <contour>
      <point x="580" y="1054" type="qcurve"/>
      <point x="642" y="1055"/>
      <point x="684" y="1011" type="qcurve"/>
      <point x="728" y="969"/>
      <point x="728" y="906" type="qcurve"/>
      <point x="728" y="849"/>
      <point x="684" y="807" type="qcurve"/>
      <point x="641" y="763"/>
      <point x="580" y="763" type="qcurve"/>
      <point x="521" y="763"/>
      <point x="481" y="807" type="qcurve"/>
      <point x="440" y="849"/>
      <point x="439" y="905" type="qcurve"/>
      <point x="438" y="968"/>
      <point x="479" y="1010" type="qcurve"/>
      <point x="522" y="1055"/>
    </contour>
    <contour>
      <point x="700" y="252" type="line"/>
      <point x="560" y="241"/>
      <point x="483" y="210" type="qcurve"/>
      <point x="415" y="183"/>
      <point x="373" y="138" type="qcurve"/>
      <point x="338" y="103"/>
      <point x="338" y="62" type="qcurve"/>
      <point x="338" y="21"/>
      <point x="361" y="-21" type="qcurve"/>
      <point x="385" y="-58"/>
      <point x="429" y="-81" type="qcurve"/>
      <point x="476" y="-106"/>
      <point x="534" y="-106" type="qcurve"/>
      <point x="619" y="-105"/>
      <point x="679" y="-69" type="qcurve"/>
      <point x="749" y="-25"/>
      <point x="842" y="88" type="qcurve"/>
      <point x="1000" y="-71" type="line"/>
      <point x="795" y="-327"/>
      <point x="526" y="-330" type="qcurve"/>
      <point x="404" y="-327"/>
      <point x="309" y="-280" type="qcurve"/>
      <point x="213" y="-232"/>
      <point x="154" y="-143" type="qcurve"/>
      <point x="102" y="-55"/>
      <point x="102" y="49" type="qcurve"/>
      <point x="102" y="141"/>
      <point x="152" y="227" type="qcurve"/>
      <point x="207" y="308"/>
      <point x="297" y="365" type="qcurve"/>
      <point x="389" y="423"/>
      <point x="464" y="439" type="qcurve"/>
      <point x="464" y="682" type="line"/>
      <point x="700" y="682" type="line"/>
    </contour>
  </outline>
</glyph>
<glyph name="Adieresis" format="2">
  <advance width="1409"/>
  <unicode hex="00C4"/>
  <outline>
    <contour>
      <point x="595" y="1463" type="line"/>
      <point x="815" y="1463" type="line"/>
      <point x="1345" y="0" type="line"/>
      <point x="1094" y="0" type="line"/>
      <point x="953" y="393" type="line"/>
      <point x="456" y="393" type="line"/>
      <point x="312" y="0" type="line"/>
      <point x="59" y="0" type="line"/>
    </contour>
    <contour>
      <point x="705" y="1071" type="line"/>
      <point x="539" y="619" type="line"/>
      <point x="870" y="619" type="line"/>
    </contour>
    <contour>
      <point x="525" y="1726" type="qcurve"/>
      <point x="580" y="1726"/>
      <point x="618" y="1687" type="qcurve"/>
      <point x="657" y="1650"/>
      <point x="657" y="1594" type="qcurve"/>
      <point x="657" y="1541"/>
      <point x="618" y="1503" type="qcurve"/>
      <point x="580" y="1465"/>
      <point x="525" y="1465" type="qcurve"/>
      <point x="473" y="1465"/>
      <point x="433" y="1502" type="qcurve"/>
      <point x="396" y="1542"/>
      <point x="396" y="1594" type="qcurve"/>
      <point x="396" y="1648"/>
      <point x="432" y="1686" type="qcurve"/>
      <point x="473" y="1726"/>
    </contour>
    <contour>
      <point x="874" y="1726" type="qcurve"/>
      <point x="929" y="1726"/>
      <point x="966" y="1687" type="qcurve"/>
      <point x="1006" y="1650"/>
      <point x="1006" y="1597" type="qcurve"/>
      <point x="1008" y="1543"/>
      <point x="967" y="1504" type="qcurve"/>
      <point x="928" y="1465"/>
      <point x="874" y="1465" type="qcurve"/>
      <point x="821" y="1465"/>
      <point x="783" y="1504" type="qcurve"/>
      <point x="747" y="1543"/>
      <point x="746" y="1596" type="qcurve"/>
      <point x="746" y="1648"/>
      <point x="781" y="1685" type="qcurve"/>
      <point x="821" y="1726"/>
    </contour>
  </outline>
</glyph>
<glyph name="Ccedilla" format="2">
  <advance width="1472"/>
  <unicode hex="00C7"/>
  <outline>
    <contour>
      <point x="862" y="1483" type="qcurve"/>
      <point x="1064" y="1485"/>
      <point x="1231" y="1383" type="qcurve"/>
      <point x="1318" y="1328"/>
      <point x="1418" y="1227" type="qcurve"/>
      <point x="1254" y="1060" type="line"/>
      <point x="1172" y="1139"/>
      <point x="1113" y="1176" type="qcurve"/>
      <point x="995" y="1248"/>
      <point x="862" y="1246" type="qcurve"/>
      <point x="730" y="1248"/>
      <point x="609" y="1178" type="qcurve"/>
      <point x="550" y="1141"/>
      <point x="504" y="1096" type="qcurve"/>
      <point x="459" y="1053"/>
      <point x="422" y="991" type="qcurve"/>
      <point x="353" y="868"/>
      <point x="353" y="731" type="qcurve"/>
      <point x="351" y="599"/>
      <point x="419" y="478" type="qcurve"/>
      <point x="458" y="418"/>
      <point x="503" y="370" type="qcurve"/>
      <point x="549" y="324"/>
      <point x="608" y="287" type="qcurve"/>
      <point x="729" y="213"/>
      <point x="862" y="215" type="qcurve"/>
      <point x="993" y="213"/>
      <point x="1111" y="287" type="qcurve"/>
      <point x="1171" y="323"/>
      <point x="1252" y="403" type="qcurve"/>
      <point x="1418" y="236" type="line"/>
      <point x="1321" y="138"/>
      <point x="1233" y="85" type="qcurve"/>
      <point x="1064" y="-19"/>
      <point x="862" y="-22" type="qcurve"/>
      <point x="665" y="-21"/>
      <point x="493" y="82" type="qcurve"/>
      <point x="321" y="185"/>
      <point x="218" y="356" type="qcurve"/>
      <point x="113" y="529"/>
      <point x="113" y="731" type="qcurve"/>
      <point x="113" y="936"/>
      <point x="219" y="1106" type="qcurve"/>
      <point x="322" y="1278"/>
      <point x="491" y="1381" type="qcurve"/>
      <point x="664" y="1487"/>
    </contour>
    <contour>
      <point x="803" y="-126" type="qcurve"/>
      <point x="874" y="-123"/>
      <point x="921" y="-168" type="qcurve"/>
      <point x="978" y="-213"/>
      <point x="974" y="-292" type="qcurve"/>
      <point x="974" y="-378"/>
      <point x="904" y="-433" type="qcurve"/>
      <point x="842" y="-483"/>
      <point x="749" y="-484" type="qcurve"/>
      <point x="698" y="-484"/>
      <point x="646" y="-468" type="qcurve"/>
      <point x="594" y="-449"/>
      <point x="531" y="-401" type="qcurve"/>
      <point x="603" y="-239" type="line"/>
      <point x="693" y="-305"/>
      <point x="744" y="-306" type="qcurve"/>
      <point x="764" y="-306"/>
      <point x="776" y="-298" type="qcurve"/>
      <point x="785" y="-291"/>
      <point x="784" y="-286" type="qcurve"/>
      <point x="784" y="-277"/>
      <point x="781" y="-274" type="qcurve"/>
      <point x="775" y="-268"/>
      <point x="760" y="-268" type="qcurve"/>
      <point x="744" y="-268"/>
      <point x="694" y="-306" type="qcurve"/>
      <point x="617" y="-221" type="line"/>
      <point x="699" y="-24" type="line"/>
      <point x="894" y="-24" type="line"/>
      <point x="869" y="-84" type="line"/>
      <point x="783" y="-122"/>
    </contour>
  </outline>
</glyph>
<glyph name="Eacute" format="2">
  <advance width="1257"/>
  <unicode hex="00C9"/>
  <outline>
    <contour>
      <point x="400" y="1233" type="line"/>
      <point x="400" y="857" type="line"/>
      <point x="1078" y="857" type="line"/>
      <point x="1078" y="630" type="line"/>
      <point x="400" y="630" type="line"/>
      <point x="400" y="227" type="line"/>
      <point x="1152" y="227" type="line"/>
      <point x="1152" y="0" type="line"/>
      <point x="164" y="0" type="line"/>
      <point x="164" y="1463" type="line"/>
      <point x="1152" y="1463" type="line"/>
      <point x="1152" y="1233" type="line"/>
    </contour>
    <contour>
      <point x="679" y="1824" type="line"/>
      <point x="938" y="1764" type="line"/>
      <point x="600" y="1465" type="line"/>
      <point x="376" y="1465" type="line"/>
    </contour>
  </outline>
</glyph>
<glyph name="Edieresis" format="2">
  <advance width="1257"/>
  <unicode hex="00CB"/>
  <outline>
    <contour>
      <point x="400" y="1233" type="line"/>
      <point x="400" y="857" type="line"/>
      <point x="1078" y="857" type="line"/>
      <point x="1078" y="630" type="line"/>
      <point x="400" y="630" type="line"/>
      <point x="400" y="227" type="line"/>
      <point x="1152" y="227" type="line"/>
      <point x="1152" y="0" type="line"/>
      <point x="164" y="0" type="line"/>
      <point x="164" y="1463" type="line"/>
      <point x="1152" y="1463" type="line"/>
      <point x="1152" y="1233" type="line"/>
    </contour>
    <contour>
      <point x="482" y="1726" type="qcurve"/>
      <point x="537" y="1726"/>
      <point x="574" y="1687" type="qcurve"/>
      <point x="614" y="1650"/>
      <point x="614" y="1595" type="qcurve"/>
      <point x="616" y="1541"/>
      <point x="575" y="1502" type="qcurve"/>
      <point x="536" y="1465"/>
      <point x="482" y="1465" type="qcurve"/>
      <point x="431" y="1465"/>
      <point x="391" y="1501" type="qcurve"/>
      <point x="352" y="1542"/>
      <point x="352" y="1593" type="qcurve"/>
      <point x="351" y="1648"/>
      <point x="390" y="1686" type="qcurve"/>
      <point x="430" y="1726"/>
    </contour>
    <contour>
      <point x="831" y="1726" type="qcurve"/>
      <point x="885" y="1726"/>
      <point x="923" y="1687" type="qcurve"/>
      <point x="963" y="1650"/>
      <point x="963" y="1596" type="qcurve"/>
      <point x="963" y="1543"/>
      <point x="925" y="1504" type="qcurve"/>
      <point x="886" y="1465"/>
      <point x="831" y="1465" type="qcurve"/>
      <point x="777" y="1465"/>
      <point x="739" y="1504" type="qcurve"/>
      <point x="703" y="1544"/>
      <point x="703" y="1596" type="qcurve"/>
      <point x="703" y="1648"/>
      <point x="738" y="1685" type="qcurve"/>
      <point x="777" y="1726"/>
    </contour>
  </outline>
</glyph>
<glyph name="Igrave" format="2">
  <advance width="597"/>
  <unicode hex="00CC"/>
  <outline>
    <contour>
      <point x="164" y="1463" type="line"/>
      <point x="398" y="1463" type="line"/>
      <point x="398" y="0" type="line"/>
      <point x="164" y="0" type="line"/>
    </contour>
    <contour>
      <point x="-1" y="1764" type="line"/>
      <point x="261" y="1825" type="line"/>
      <point x="560" y="1465" type="line"/>
      <point x="339" y="1465" type="line"/>
    </contour>
  </outline>
</glyph>
<glyph name="Iacute" format="2">
  <advance width="596"/>
  <unicode hex="00CD"/>
  <outline>
    <contour>
      <point x="164" y="1463" type="line"/>
      <point x="398" y="1463" type="line"/>
      <point x="398" y="0" type="line"/>
      <point x="164" y="0" type="line"/>
    </contour>
    <contour>
      <point x="301" y="1824" type="line"/>
      <point x="559" y="1764" type="line"/>
      <point x="223" y="1465" type="line"/>
      <point x="-2" y="1465" type="line"/>
    </contour>
  </outline>
</glyph>
<glyph name="multiply" format="2">
  <advance width="1123"/>
  <unicode hex="00D7"/>
  <outline>
    <contour>
      <point x="721" y="654" type="line"/>
      <point x="965" y="406" type="line"/>
      <point x="804" y="246" type="line"/>
      <point x="559" y="492" type="line"/>
      <point x="312" y="247" type="line"/>
      <point x="149" y="404" type="line"/>
      <point x="397" y="652" type="line"/>
      <point x="150" y="899" type="line"/>
      <point x="311" y="1062" type="line"/>
      <point x="559" y="814" type="line"/>
      <point x="807" y="1062" type="line"/>
      <point x="964" y="899" type="line"/>
    </contour>
  </outline>
</glyph>
<glyph name="Ugrave" format="2">
  <advance width="1476"/>
  <unicode hex="00D9"/>
  <outline>
    <contour>
      <point x="744" y="-22" type="qcurve"/>
      <point x="586" y="-22"/>
      <point x="452" y="55" type="qcurve"/>
      <point x="322" y="133"/>
      <point x="250" y="264" type="qcurve"/>
      <point x="180" y="400"/>
      <point x="177" y="562" type="qcurve"/>
      <point x="177" y="1463" type="line"/>
      <point x="412" y="1463" type="line"/>
      <point x="412" y="563" type="line"/>
      <point x="412" y="459"/>
      <point x="456" y="375" type="qcurve"/>
      <point x="498" y="294"/>
      <point x="572" y="247" type="qcurve"/>
      <point x="648" y="202"/>
      <point x="744" y="200" type="qcurve"/>
      <point x="838" y="203"/>
      <point x="913" y="247" type="qcurve"/>
      <point x="989" y="293"/>
      <point x="1032" y="373" type="qcurve"/>
      <point x="1077" y="457"/>
      <point x="1074" y="563" type="qcurve"/>
      <point x="1074" y="1463" type="line"/>
      <point x="1309" y="1463" type="line"/>
      <point x="1309" y="564" type="line"/>
      <point x="1313" y="400"/>
      <point x="1240" y="263" type="qcurve"/>
      <point x="1170" y="134"/>
      <point x="1039" y="55" type="qcurve"/>
      <point x="905" y="-22"/>
    </contour>
    <contour>
      <point x="463" y="1764" type="line"/>
      <point x="726" y="1825" type="line"/>
      <point x="1025" y="1465" type="line"/>
      <point x="804" y="1465" type="line"/>
    </contour>
  </outline>
</glyph>
<glyph name="Thorn" format="2">
  <advance width="1285"/>
  <unicode hex="00DE"/>
  <outline>
    <contour>
      <point x="164" y="1339" type="line"/>
      <point x="401" y="1339" type="line"/>
      <point x="401" y="1120" type="line"/>
      <point x="715" y="1120" type="line"/>
      <point x="858" y="1120"/>
      <point x="968" y="1064" type="qcurve"/>
      <point x="1089" y="1010"/>
      <point x="1152" y="906" type="qcurve"/>
      <point x="1225" y="805"/>
      <point x="1223" y="676" type="qcurve"/>
      <point x="1226" y="544"/>
      <point x="1153" y="443" type="qcurve"/>
      <point x="1088" y="342"/>
      <point x="970" y="282" type="qcurve"/>
      <point x="857" y="227"/>
      <point x="714" y="229" type="qcurve"/>
      <point x="398" y="229" type="line"/>
      <point x="398" y="0" type="line"/>
      <point x="164" y="0" type="line"/>
    </contour>
    <contour>
      <point x="692" y="456" type="line"/>
      <point x="831" y="457"/>
      <point x="908" y="517" type="qcurve"/>
      <point x="986" y="576"/>
      <point x="986" y="676" type="qcurve"/>
      <point x="988" y="775"/>
      <point x="911" y="830" type="qcurve"/>
      <point x="830" y="895"/>
      <point x="693" y="892" type="qcurve"/>
      <point x="398" y="892" type="line"/>
      <point x="398" y="456" type="line"/>
    </contour>
  </outline>
</glyph>
<glyph name="germandbls" format="2">
  <advance width="1164"/>
  <unicode hex="00DF"/>
  <outline>
    <contour>
      <point x="173" y="1001" type="line"/>
      <point x="171" y="1109"/>
      <point x="229" y="1195" type="qcurve"/>
      <point x="287" y="1283"/>
      <point x="384" y="1328" type="qcurve"/>
      <point x="479" y="1375"/>
      <point x="600" y="1375" type="qcurve"/>
      <point x="720" y="1375"/>
      <point x="813" y="1328" type="qcurve"/>
      <point x="910" y="1283"/>
      <point x="966" y="1196" type="qcurve"/>
      <point x="1025" y="1109"/>
      <point x="1023" y="1001" type="qcurve"/>
      <point x="1026" y="786"/>
      <point x="899" y="712" type="qcurve"/>
      <point x="938" y="693"/>
      <point x="1003" y="602" type="qcurve"/>
      <point x="1075" y="509"/>
      <point x="1073" y="388" type="qcurve"/>
      <point x="1075" y="278"/>
      <point x="1017" y="188" type="qcurve"/>
      <point x="966" y="102"/>
      <point x="870" y="50" type="qcurve"/>
      <point x="777" y="0"/>
      <point x="655" y="0" type="qcurve"/>
      <point x="450" y="0" type="line"/>
      <point x="450" y="221" type="line"/>
      <point x="619" y="221" type="line"/>
      <point x="716" y="222"/>
      <point x="776" y="274" type="qcurve"/>
      <point x="838" y="327"/>
      <point x="836" y="405" type="qcurve"/>
      <point x="838" y="486"/>
      <point x="778" y="537" type="qcurve"/>
      <point x="719" y="589"/>
      <point x="619" y="589" type="qcurve"/>
      <point x="450" y="589" type="line"/>
      <point x="450" y="811" type="line"/>
      <point x="598" y="811" type="line"/>
      <point x="652" y="811"/>
      <point x="692" y="836" type="qcurve"/>
      <point x="738" y="859"/>
      <point x="761" y="896" type="qcurve"/>
      <point x="786" y="937"/>
      <point x="786" y="981" type="qcurve"/>
      <point x="788" y="1058"/>
      <point x="735" y="1103" type="qcurve"/>
      <point x="682" y="1152"/>
      <point x="597" y="1152" type="qcurve"/>
      <point x="515" y="1154"/>
      <point x="460" y="1104" type="qcurve"/>
      <point x="408" y="1057"/>
      <point x="408" y="978" type="qcurve"/>
      <point x="408" y="0" type="line"/>
      <point x="173" y="0" type="line"/>
    </contour>
  </outline>
</glyph>
<glyph name="atilde" format="2">
  <advance width="1279"/>
  <unicode hex="00E3"/>
  <outline>
    <contour>
      <point x="622" y="193" type="qcurve"/>
      <point x="699" y="196"/>
      <point x="760" y="233" type="qcurve"/>
      <point x="821" y="273"/>
      <point x="854" y="343" type="qcurve"/>
      <point x="891" y="420"/>
      <point x="890" y="515" type="qcurve"/>
      <point x="891" y="614"/>
      <point x="854" y="685" type="qcurve"/>
      <point x="821" y="759"/>
      <point x="760" y="798" type="qcurve"/>
      <point x="700" y="838"/>
      <point x="622" y="837" type="qcurve"/>
      <point x="548" y="838"/>
      <point x="486" y="796" type="qcurve"/>
      <point x="424" y="759"/>
      <point x="389" y="686" type="qcurve"/>
      <point x="355" y="614"/>
      <point x="355" y="515" type="qcurve"/>
      <point x="355" y="420"/>
      <point x="390" y="345" type="qcurve"/>
      <point x="425" y="274"/>
      <point x="484" y="233" type="qcurve"/>
      <point x="548" y="196"/>
    </contour>
    <contour>
      <point x="1120" y="1030" type="line"/>
      <point x="1120" y="0" type="line"/>
      <point x="890" y="0" type="line"/>
      <point x="890" y="49" type="line"/>
      <point x="919" y="99"/>
      <point x="822" y="39" type="qcurve"/>
      <point x="724" y="-22"/>
      <point x="598" y="-22" type="qcurve"/>
      <point x="463" y="-24"/>
      <point x="352" y="48" type="qcurve"/>
      <point x="243" y="119"/>
      <point x="180" y="243" type="qcurve"/>
      <point x="121" y="368"/>
      <point x="117" y="515" type="qcurve"/>
      <point x="120" y="667"/>
      <point x="180" y="789" type="qcurve"/>
      <point x="243" y="916"/>
      <point x="351" y="982" type="qcurve"/>
      <point x="463" y="1055"/>
      <point x="598" y="1054" type="qcurve"/>
      <point x="721" y="1055"/>
      <point x="820" y="995" type="qcurve"/>
      <point x="918" y="936"/>
      <point x="890" y="986" type="qcurve"/>
      <point x="890" y="1030" type="line"/>
    </contour>
    <contour>
      <point x="738" y="1060" type="qcurve"/>
      <point x="685" y="1058"/>
      <point x="643" y="1083" type="qcurve"/>
      <point x="616" y="1104"/>
      <point x="565" y="1138" type="qcurve"/>
      <point x="541" y="1164"/>
      <point x="520" y="1175" type="qcurve"/>
      <point x="512" y="1181"/>
      <point x="504" y="1180" type="qcurve"/>
      <point x="492" y="1180"/>
      <point x="483" y="1168" type="qcurve"/>
      <point x="467" y="1150"/>
      <point x="448" y="1049" type="qcurve"/>
      <point x="275" y="1075" type="line"/>
      <point x="316" y="1379"/>
      <point x="499" y="1377" type="qcurve"/>
      <point x="549" y="1381"/>
      <point x="590" y="1355" type="qcurve"/>
      <point x="624" y="1336"/>
      <point x="671" y="1300" type="qcurve"/>
      <point x="701" y="1275"/>
      <point x="715" y="1266" type="qcurve"/>
      <point x="727" y="1260"/>
      <point x="736" y="1260" type="qcurve"/>
      <point x="749" y="1260"/>
      <point x="757" y="1270" type="qcurve"/>
      <point x="771" y="1291"/>
      <point x="790" y="1386" type="qcurve"/>
      <point x="963" y="1363" type="line"/>
      <point x="923" y="1063"/>
    </contour>
  </outline>
</glyph>
<glyph name="ccedilla" format="2">
  <advance width="1120"/>
  <unicode hex="00E7"/>
  <outline>
    <contour>
      <point x="639" y="-22" type="qcurve"/>
      <point x="499" y="-19"/>
      <point x="375" y="53" type="qcurve"/>
      <point x="255" y="125"/>
      <point x="181" y="248" type="qcurve"/>
      <point x="109" y="375"/>
      <point x="109" y="515" type="qcurve"/>
      <point x="109" y="661"/>
      <point x="180" y="783" type="qcurve"/>
      <point x="254" y="911"/>
      <point x="375" y="980" type="qcurve"/>
      <point x="499" y="1054"/>
      <point x="640" y="1054" type="qcurve"/>
      <point x="744" y="1054"/>
      <point x="838" y="1013" type="qcurve"/>
      <point x="934" y="973"/>
      <point x="1041" y="867" type="qcurve"/>
      <point x="878" y="706" type="line"/>
      <point x="807" y="789"/>
      <point x="752" y="813" type="qcurve"/>
      <point x="701" y="837"/>
      <point x="639" y="837" type="qcurve"/>
      <point x="562" y="838"/>
      <point x="495" y="795" type="qcurve"/>
      <point x="426" y="752"/>
      <point x="384" y="676" type="qcurve"/>
      <point x="346" y="603"/>
      <point x="346" y="515" type="qcurve"/>
      <point x="344" y="429"/>
      <point x="382" y="354" type="qcurve"/>
      <point x="424" y="282"/>
      <point x="493" y="237" type="qcurve"/>
      <point x="564" y="196"/>
      <point x="641" y="193" type="qcurve"/>
      <point x="702" y="193"/>
      <point x="753" y="216" type="qcurve"/>
      <point x="807" y="243"/>
      <point x="882" y="330" type="qcurve"/>
      <point x="1046" y="168" type="line"/>
      <point x="941" y="64"/>
      <point x="844" y="21" type="qcurve"/>
      <point x="749" y="-21"/>
    </contour>
    <contour>
      <point x="614" y="-126" type="qcurve"/>
      <point x="685" y="-123"/>
      <point x="732" y="-168" type="qcurve"/>
      <point x="789" y="-213"/>
      <point x="785" y="-291" type="qcurve"/>
      <point x="786" y="-378"/>
      <point x="715" y="-433" type="qcurve"/>
      <point x="654" y="-483"/>
      <point x="560" y="-484" type="qcurve"/>
      <point x="509" y="-484"/>
      <point x="457" y="-468" type="qcurve"/>
      <point x="407" y="-449"/>
      <point x="340" y="-401" type="qcurve"/>
      <point x="416" y="-240" type="line"/>
      <point x="505" y="-305"/>
      <point x="555" y="-306" type="qcurve"/>
      <point x="576" y="-306"/>
      <point x="588" y="-297" type="qcurve"/>
      <point x="596" y="-291"/>
      <point x="594" y="-285" type="qcurve"/>
      <point x="595" y="-276"/>
      <point x="593" y="-274" type="qcurve"/>
      <point x="586" y="-267"/>
      <point x="571" y="-268" type="qcurve"/>
      <point x="555" y="-268"/>
      <point x="509" y="-307" type="qcurve"/>
      <point x="428" y="-221" type="line"/>
      <point x="510" y="-24" type="line"/>
      <point x="704" y="-24" type="line"/>
      <point x="682" y="-77" type="line"/>
      <point x="593" y="-122"/>
    </contour>
  </outline>
</glyph>
<glyph name="iacute" format="2">
  <advance width="576"/>
  <unicode hex="00ED"/>
  <outline>
    <contour>
      <point x="156" y="1030" type="line"/>
      <point x="386" y="1030" type="line"/>
      <point x="386" y="0" type="line"/>
      <point x="156" y="0" type="line"/>
    </contour>
    <contour>
      <point x="293" y="1391" type="line"/>
      <point x="551" y="1332" type="line"/>
      <point x="214" y="1032" type="line"/>
      <point x="-11" y="1032" type="line"/>
    </contour>
  </outline>
</glyph>
<glyph name="ntilde" format="2">
  <advance width="1196"/>
  <unicode hex="00F1"/>
  <outline>
    <contour>
      <point x="649" y="1054" type="qcurve"/>
      <point x="766" y="1057"/>
      <point x="854" y="1002" type="qcurve"/>
      <point x="949" y="952"/>
      <point x="998" y="854" type="qcurve"/>
      <point x="1051" y="764"/>
      <point x="1048" y="645" type="qcurve"/>
      <point x="1048" y="0" type="line"/>
      <point x="820" y="0" type="line"/>
      <point x="820" y="625" type="line"/>
      <point x="820" y="722"/>
      <point x="765" y="781" type="qcurve"/>
      <point x="716" y="838"/>
      <point x="634" y="837" type="qcurve"/>
      <point x="568" y="837"/>
      <point x="508" y="809" type="qcurve"/>
      <point x="453" y="785"/>
      <point x="419" y="735" type="qcurve"/>
      <point x="390" y="695"/>
      <point x="389" y="644" type="qcurve"/>
      <point x="389" y="0" type="line"/>
      <point x="159" y="0" type="line"/>
      <point x="159" y="1030" type="line"/>
      <point x="389" y="1030" type="line"/>
      <point x="389" y="1022" type="line"/>
      <point x="348" y="943"/>
      <point x="444" y="998" type="qcurve"/>
      <point x="541" y="1055"/>
    </contour>
    <contour>
      <point x="724" y="1062" type="qcurve"/>
      <point x="673" y="1059"/>
      <point x="628" y="1085" type="qcurve"/>
      <point x="601" y="1106"/>
      <point x="549" y="1140" type="qcurve"/>
      <point x="526" y="1167"/>
      <point x="506" y="1177" type="qcurve"/>
      <point x="498" y="1183"/>
      <point x="490" y="1182" type="qcurve"/>
      <point x="477" y="1182"/>
      <point x="467" y="1169" type="qcurve"/>
      <point x="452" y="1152"/>
      <point x="435" y="1052" type="qcurve"/>
      <point x="260" y="1077" type="line"/>
      <point x="302" y="1380"/>
      <point x="485" y="1379" type="qcurve"/>
      <point x="535" y="1383"/>
      <point x="576" y="1357" type="qcurve"/>
      <point x="610" y="1338"/>
      <point x="657" y="1302" type="qcurve"/>
      <point x="687" y="1277"/>
      <point x="701" y="1267" type="qcurve"/>
      <point x="712" y="1261"/>
      <point x="722" y="1261" type="qcurve"/>
      <point x="734" y="1261"/>
      <point x="741" y="1272" type="qcurve"/>
      <point x="758" y="1292"/>
      <point x="774" y="1388" type="qcurve"/>
      <point x="948" y="1365" type="line"/>
      <point x="909" y="1065"/>
    </contour>
  </outline>
</glyph>
<glyph name="odieresis" format="2">
  <advance width="1264"/>
  <unicode hex="00F6"/>
  <outline>
    <contour>
      <point x="640" y="-22" type="qcurve"/>
      <point x="499" y="-19"/>
      <point x="375" y="53" type="qcurve"/>
      <point x="255" y="125"/>
      <point x="181" y="248" type="qcurve"/>
      <point x="109" y="375"/>
      <point x="109" y="515" type="qcurve"/>
      <point x="109" y="661"/>
      <point x="180" y="783" type="qcurve"/>
      <point x="254" y="911"/>
      <point x="375" y="980" type="qcurve"/>
      <point x="499" y="1054"/>
      <point x="640" y="1054" type="qcurve"/>
      <point x="784" y="1054"/>
      <point x="904" y="980" type="qcurve"/>
      <point x="1029" y="911"/>
      <point x="1099" y="783" type="qcurve"/>
      <point x="1174" y="662"/>
      <point x="1170" y="515" type="qcurve"/>
      <point x="1170" y="443"/>
      <point x="1155" y="379" type="qcurve"/>
      <point x="1140" y="315"/>
      <point x="1101" y="251" type="qcurve"/>
      <point x="1032" y="128"/>
      <point x="907" y="53" type="qcurve"/>
      <point x="786" y="-19"/>
    </contour>
    <contour>
      <point x="640" y="193" type="qcurve"/>
      <point x="716" y="196"/>
      <point x="785" y="238" type="qcurve"/>
      <point x="854" y="281"/>
      <point x="891" y="352" type="qcurve"/>
      <point x="934" y="430"/>
      <point x="934" y="515" type="qcurve"/>
      <point x="936" y="602"/>
      <point x="893" y="676" type="qcurve"/>
      <point x="854" y="750"/>
      <point x="787" y="792" type="qcurve"/>
      <point x="716" y="837"/>
      <point x="639" y="837" type="qcurve"/>
      <point x="562" y="838"/>
      <point x="495" y="795" type="qcurve"/>
      <point x="426" y="752"/>
      <point x="384" y="676" type="qcurve"/>
      <point x="346" y="603"/>
      <point x="346" y="515" type="qcurve"/>
      <point x="344" y="429"/>
      <point x="382" y="354" type="qcurve"/>
      <point x="424" y="282"/>
      <point x="493" y="237" type="qcurve"/>
      <point x="564" y="196"/>
    </contour>
    <contour>
      <point x="466" y="1318" type="qcurve"/>
      <point x="522" y="1318"/>
      <point x="560" y="1278" type="qcurve"/>
      <point x="599" y="1239"/>
      <point x="599" y="1186" type="qcurve"/>
      <point x="599" y="1133"/>
      <point x="510" y="1045" type="qcurve"/>
      <point x="521" y="1056"/>
      <point x="466" y="1056" type="qcurve"/>
      <point x="413" y="1056"/>
      <point x="375" y="1094" type="qcurve"/>
      <point x="337" y="1134"/>
      <point x="337" y="1186" type="qcurve"/>
      <point x="337" y="1239"/>
      <point x="373" y="1278" type="qcurve"/>
      <point x="414" y="1318"/>
    </contour>
    <contour>
      <point x="815" y="1318" type="qcurve"/>
      <point x="870" y="1318"/>
      <point x="908" y="1278" type="qcurve"/>
      <point x="948" y="1239"/>
      <point x="948" y="1188" type="qcurve"/>
      <point x="948" y="1136"/>
      <point x="909" y="1095" type="qcurve"/>
      <point x="869" y="1056"/>
      <point x="815" y="1056" type="qcurve"/>
      <point x="762" y="1056"/>
      <point x="723" y="1096" type="qcurve"/>
      <point x="688" y="1136"/>
      <point x="687" y="1188" type="qcurve"/>
      <point x="687" y="1238"/>
      <point x="723" y="1277" type="qcurve"/>
      <point x="761" y="1318"/>
    </contour>
  </outline>
</glyph>
<glyph name="divide" format="2">
  <advance width="1197"/>
  <unicode hex="00F7"/>
  <outline>
    <contour>
      <point x="607" y="802" type="qcurve"/>
      <point x="548" y="803"/>
      <point x="503" y="842" type="qcurve"/>
      <point x="461" y="889"/>
      <point x="462" y="947" type="qcurve"/>
      <point x="461" y="1007"/>
      <point x="503" y="1049" type="qcurve"/>
      <point x="548" y="1094"/>
      <point x="607" y="1090" type="qcurve"/>
      <point x="666" y="1095"/>
      <point x="708" y="1049" type="qcurve"/>
      <point x="750" y="1007"/>
      <point x="750" y="947" type="qcurve"/>
      <point x="750" y="890"/>
      <point x="711" y="844" type="qcurve"/>
      <point x="667" y="803"/>
    </contour>
    <contour>
      <point x="142" y="766" type="line"/>
      <point x="1069" y="766" type="line"/>
      <point x="1069" y="538" type="line"/>
      <point x="142" y="538" type="line"/>
    </contour>
    <contour>
      <point x="607" y="214" type="qcurve"/>
      <point x="547" y="214"/>
      <point x="503" y="257" type="qcurve"/>
      <point x="461" y="302"/>
      <point x="462" y="359" type="qcurve"/>
      <point x="461" y="416"/>
      <point x="503" y="462" type="qcurve"/>
      <point x="547" y="506"/>
      <point x="607" y="505" type="qcurve"/>
      <point x="666" y="507"/>
      <point x="709" y="461" type="qcurve"/>
      <point x="750" y="417"/>
      <point x="750" y="359" type="qcurve"/>
      <point x="750" y="302"/>
      <point x="712" y="258" type="qcurve"/>
      <point x="667" y="214"/>
    </contour>
  </outline>
</glyph>
<glyph name="ucircumflex" format="2">
  <advance width="1196"/>
  <unicode hex="00FB"/>
  <outline>
    <contour>
      <point x="556" y="-24" type="qcurve"/>
      <point x="441" y="-24"/>
      <point x="351" y="29" type="qcurve"/>
      <point x="257" y="81"/>
      <point x="209" y="175" type="qcurve"/>
      <point x="156" y="267"/>
      <point x="159" y="387" type="qcurve"/>
      <point x="159" y="1030" type="line"/>
      <point x="387" y="1030" type="line"/>
      <point x="387" y="405" type="line"/>
      <point x="388" y="307"/>
      <point x="441" y="250" type="qcurve"/>
      <point x="491" y="194"/>
      <point x="573" y="195" type="qcurve"/>
      <point x="640" y="195"/>
      <point x="699" y="221" type="qcurve"/>
      <point x="755" y="246"/>
      <point x="788" y="295" type="qcurve"/>
      <point x="819" y="337"/>
      <point x="818" y="385" type="qcurve"/>
      <point x="818" y="1030" type="line"/>
      <point x="1048" y="1030" type="line"/>
      <point x="1048" y="0" type="line"/>
      <point x="818" y="0" type="line"/>
      <point x="818" y="7" type="line"/>
      <point x="860" y="88"/>
      <point x="762" y="33" type="qcurve"/>
      <point x="668" y="-24"/>
    </contour>
    <contour>
      <point x="517" y="1375" type="line"/>
      <point x="692" y="1375" type="line"/>
      <point x="946" y="1033" type="line"/>
      <point x="727" y="1033" type="line"/>
      <point x="604" y="1165" type="line"/>
      <point x="484" y="1033" type="line"/>
      <point x="268" y="1033" type="line"/>
    </contour>
  </outline>
</glyph>
<glyph name="thorn" format="2">
  <advance width="1276"/>
  <unicode hex="00FE"/>
  <outline>
    <contour>
      <point x="695" y="1054" type="qcurve"/>
      <point x="832" y="1057"/>
      <point x="939" y="984" type="qcurve"/>
      <point x="1054" y="917"/>
      <point x="1112" y="791" type="qcurve"/>
      <point x="1175" y="667"/>
      <point x="1172" y="515" type="qcurve"/>
      <point x="1175" y="369"/>
      <point x="1112" y="243" type="qcurve"/>
      <point x="1054" y="121"/>
      <point x="941" y="50" type="qcurve"/>
      <point x="834" y="-22"/>
      <point x="696" y="-22" type="qcurve"/>
      <point x="573" y="-24"/>
      <point x="473" y="36" type="qcurve"/>
      <point x="376" y="95"/>
      <point x="400" y="57" type="qcurve"/>
      <point x="400" y="-312" type="line"/>
      <point x="171" y="-312" type="line"/>
      <point x="171" y="1360" type="line"/>
      <point x="400" y="1360" type="line"/>
      <point x="400" y="980" type="line"/>
      <point x="374" y="936"/>
      <point x="472" y="994" type="qcurve"/>
      <point x="572" y="1054"/>
    </contour>
    <contour>
      <point x="671" y="193" type="qcurve"/>
      <point x="746" y="196"/>
      <point x="806" y="233" type="qcurve"/>
      <point x="868" y="273"/>
      <point x="901" y="342" type="qcurve"/>
      <point x="936" y="420"/>
      <point x="936" y="515" type="qcurve"/>
      <point x="936" y="614"/>
      <point x="900" y="686" type="qcurve"/>
      <point x="869" y="759"/>
      <point x="807" y="797" type="qcurve"/>
      <point x="747" y="838"/>
      <point x="671" y="837" type="qcurve"/>
      <point x="596" y="838"/>
      <point x="532" y="797" type="qcurve"/>
      <point x="472" y="760"/>
      <point x="435" y="685" type="qcurve"/>
      <point x="400" y="614"/>
      <point x="400" y="515" type="qcurve"/>
      <point x="400" y="420"/>
      <point x="435" y="345" type="qcurve"/>
      <point x="471" y="274"/>
      <point x="532" y="233" type="qcurve"/>
      <point x="596" y="196"/>
    </contour>
  </outline>
</glyph>
<glyph name="ydieresis" format="2">
  <advance width="1217"/>
  <unicode hex="00FF"/>
  <outline>
    <contour>
      <point x="329" y="-356" type="line"/>
      <point x="484" y="46" type="line"/>
      <point x="49" y="1030" type="line"/>
      <point x="303" y="1030" type="line"/>
      <point x="602" y="333" type="line"/>
      <point x="879" y="1030" type="line"/>
      <point x="1128" y="1030" type="line"/>
      <point x="561" y="-356" type="line"/>
    </contour>
    <contour>
      <point x="414" y="1294" type="qcurve"/>
      <point x="469" y="1296"/>
      <point x="508" y="1256" type="qcurve"/>
      <point x="546" y="1216"/>
      <point x="546" y="1164" type="qcurve"/>
      <point x="548" y="1110"/>
      <point x="508" y="1072" type="qcurve"/>
      <point x="468" y="1033"/>
      <point x="415" y="1033" type="qcurve"/>
      <point x="363" y="1031"/>
      <point x="322" y="1071" type="qcurve"/>
      <point x="285" y="1110"/>
      <point x="285" y="1162" type="qcurve"/>
      <point x="283" y="1216"/>
      <point x="322" y="1255" type="qcurve"/>
      <point x="362" y="1294"/>
    </contour>
    <contour>
      <point x="762" y="1294" type="qcurve"/>
      <point x="818" y="1296"/>
      <point x="856" y="1256" type="qcurve"/>
      <point x="895" y="1216"/>
      <point x="895" y="1165" type="qcurve"/>
      <point x="895" y="1112"/>
      <point x="857" y="1073" type="qcurve"/>
      <point x="819" y="1033"/>
      <point x="764" y="1033" type="qcurve"/>
      <point x="709" y="1031"/>
      <point x="671" y="1073" type="qcurve"/>
      <point x="635" y="1111"/>
      <point x="635" y="1165" type="qcurve"/>
      <point x="635" y="1216"/>
      <point x="670" y="1254" type="qcurve"/>
      <point x="710" y="1294"/>
    </contour>
  </outline>
</glyph>
<glyph name="Abreve" format="2">
  <advance width="1409"/>
  <unicode hex="0102"/>
  <outline>
    <contour>
      <point x="595" y="1463" type="line"/>
      <point x="815" y="1463" type="line"/>
      <point x="1345" y="0" type="line"/>
      <point x="1094" y="0" type="line"/>
      <point x="953" y="393" type="line"/>
      <point x="456" y="393" type="line"/>
      <point x="312" y="0" type="line"/>
      <point x="59" y="0" type="line"/>
    </contour>
    <contour>
      <point x="705" y="1071" type="line"/>
      <point x="539" y="619" type="line"/>
      <point x="870" y="619" type="line"/>
    </contour>
    <contour>
      <point x="702" y="1465" type="qcurve"/>
      <point x="624" y="1465"/>
      <point x="544" y="1495" type="qcurve"/>
      <point x="467" y="1528"/>
      <point x="369" y="1622" type="qcurve"/>
      <point x="524" y="1772" type="line"/>
      <point x="587" y="1710"/>
      <point x="623" y="1692" type="qcurve"/>
      <point x="664" y="1676"/>
      <point x="702" y="1676" type="qcurve"/>
      <point x="741" y="1676"/>
      <point x="776" y="1692" type="qcurve"/>
      <point x="821" y="1711"/>
      <point x="882" y="1774" type="qcurve"/>
      <point x="1030" y="1622" type="line"/>
      <point x="944" y="1531"/>
      <point x="863" y="1497" type="qcurve"/>
      <point x="788" y="1465"/>
    </contour>
  </outline>
</glyph>
<glyph name="Aogonek" format="2">
  <advance width="1409"/>
  <unicode hex="0104"/>
  <outline>
    <contour>
      <point x="595" y="1463" type="line"/>
      <point x="815" y="1463" type="line"/>
      <point x="1345" y="0" type="line"/>
      <point x="1094" y="0" type="line"/>
      <point x="953" y="393" type="line"/>
      <point x="456" y="393" type="line"/>
      <point x="312" y="0" type="line"/>
      <point x="59" y="0" type="line"/>
    </contour>
    <contour>
      <point x="705" y="1071" type="line"/>
      <point x="539" y="619" type="line"/>
      <point x="870" y="619" type="line"/>
    </contour>
    <contour>
      <point x="727" y="-444" type="qcurve"/>
      <point x="620" y="-446"/>
      <point x="548" y="-382" type="qcurve"/>
      <point x="480" y="-310"/>
      <point x="480" y="-204" type="qcurve"/>
      <point x="477" y="-136"/>
      <point x="516" y="-82" type="qcurve"/>
      <point x="553" y="-28"/>
      <point x="620" y="1" type="qcurve"/>
      <point x="1060" y="-137" type="line"/>
      <point x="710" y="-130"/>
      <point x="693" y="-147" type="qcurve"/>
      <point x="677" y="-161"/>
      <point x="677" y="-186" type="qcurve"/>
      <point x="678" y="-215"/>
      <point x="691" y="-231" type="qcurve"/>
      <point x="703" y="-244"/>
      <point x="731" y="-243" type="qcurve"/>
      <point x="769" y="-242"/>
      <point x="829" y="-180" type="qcurve"/>
      <point x="938" y="-356" type="line"/>
      <point x="831" y="-444"/>
    </contour>
  </outline>
</glyph>
<glyph name="Dcaron" format="2">
  <advance width="1500"/>
  <unicode hex="010E"/>
  <outline>
    <contour>
      <point x="190" y="1463" type="line"/>
      <point x="659" y="1463" type="line"/>
      <point x="866" y="1463"/>
      <point x="1029" y="1369" type="qcurve"/>
      <point x="1194" y="1277"/>
      <point x="1289" y="1108" type="qcurve"/>
      <point x="1379" y="943"/>
      <point x="1379" y="731" type="qcurve"/>
      <point x="1379" y="525"/>
      <point x="1289" y="358" type="qcurve"/>
      <point x="1198" y="192"/>
      <point x="1031" y="95" type="qcurve"/>
      <point x="866" y="0"/>
      <point x="659" y="0" type="qcurve"/>
      <point x="190" y="0" type="line"/>
    </contour>
    <contour>
      <point x="659" y="221" type="line"/>
      <point x="799" y="221"/>
      <point x="906" y="288" type="qcurve"/>
      <point x="1018" y="355"/>
      <point x="1078" y="466" type="qcurve"/>
      <point x="1145" y="588"/>
      <point x="1142" y="731" type="qcurve"/>
      <point x="1146" y="879"/>
      <point x="1080" y="995" type="qcurve"/>
      <point x="1020" y="1111"/>
      <point x="909" y="1176" type="qcurve"/>
      <point x="799" y="1241"/>
      <point x="660" y="1239" type="qcurve"/>
      <point x="427" y="1239" type="line"/>
      <point x="427" y="221" type="line"/>
    </contour>
    <contour>
      <point x="446" y="1807" type="line"/>
      <point x="663" y="1807" type="line"/>
      <point x="783" y="1674" type="line"/>
      <point x="904" y="1807" type="line"/>
      <point x="1125" y="1807" type="line"/>
      <point x="870" y="1465" type="line"/>
      <point x="696" y="1465" type="line"/>
    </contour>
  </outline>
</glyph>
<glyph name="Emacron" format="2">
  <advance width="1257"/>
  <unicode hex="0112"/>
  <outline>
    <contour>
      <point x="400" y="1233" type="line"/>
      <point x="400" y="857" type="line"/>
      <point x="1078" y="857" type="line"/>
      <point x="1078" y="630" type="line"/>
      <point x="400" y="630" type="line"/>
      <point x="400" y="227" type="line"/>
      <point x="1152" y="227" type="line"/>
      <point x="1152" y="0" type="line"/>
      <point x="164" y="0" type="line"/>
      <point x="164" y="1463" type="line"/>
      <point x="1152" y="1463" type="line"/>
      <point x="1152" y="1233" type="line"/>
    </contour>
    <contour>
      <point x="468" y="1864" type="line"/>
      <point x="1056" y="1864" type="line"/>
      <point x="1056" y="1667" type="line"/>
      <point x="468" y="1667" type="line"/>
    </contour>
    <contour>
      <point x="308" y="1512" type="line"/>
      <point x="308" y="1512" type="line"/>
      <point x="308" y="1512" type="line"/>
      <point x="308" y="1512" type="line"/>
    </contour>
    <contour>
      <point x="308" y="1512" type="line"/>
      <point x="308" y="1512" type="line"/>
      <point x="308" y="1512" type="line"/>
      <point x="308" y="1512" type="line"/>
    </contour>
  </outline>
</glyph>
<glyph name="Ebreve" format="2">
  <advance width="1257"/>
  <unicode hex="0114"/>
  <outline>
    <contour>
      <point x="400" y="1233" type="line"/>
      <point x="400" y="857" type="line"/>
      <point x="1078" y="857" type="line"/>
      <point x="1078" y="630" type="line"/>
      <point x="400" y="630" type="line"/>
      <point x="400" y="227" type="line"/>
      <point x="1152" y="227" type="line"/>
      <point x="1152" y="0" type="line"/>
      <point x="164" y="0" type="line"/>
      <point x="164" y="1463" type="line"/>
      <point x="1152" y="1463" type="line"/>
      <point x="1152" y="1233" type="line"/>
    </contour>
    <contour>
      <point x="659" y="1465" type="qcurve"/>
      <point x="580" y="1465"/>
      <point x="501" y="1495" type="qcurve"/>
      <point x="424" y="1528"/>
      <point x="325" y="1622" type="qcurve"/>
      <point x="480" y="1772" type="line"/>
      <point x="543" y="1710"/>
      <point x="580" y="1692" type="qcurve"/>
      <point x="619" y="1676"/>
      <point x="659" y="1676" type="qcurve"/>
      <point x="697" y="1676"/>
      <point x="733" y="1692" type="qcurve"/>
      <point x="777" y="1711"/>
      <point x="838" y="1774" type="qcurve"/>
      <point x="987" y="1622" type="line"/>
      <point x="901" y="1531"/>
      <point x="820" y="1497" type="qcurve"/>
      <point x="744" y="1465"/>
    </contour>
  </outline>
</glyph>
<glyph name="Eogonek" format="2">
  <advance width="1257"/>
  <unicode hex="0118"/>
  <outline>
    <contour>
      <point x="400" y="1233" type="line"/>
      <point x="400" y="857" type="line"/>
      <point x="1078" y="857" type="line"/>
      <point x="1078" y="630" type="line"/>
      <point x="400" y="630" type="line"/>
      <point x="400" y="227" type="line"/>
      <point x="1152" y="227" type="line"/>
      <point x="1152" y="0" type="line"/>
      <point x="164" y="0" type="line"/>
      <point x="164" y="1463" type="line"/>
      <point x="1152" y="1463" type="line"/>
      <point x="1152" y="1233" type="line"/>
    </contour>
    <contour>
      <point x="683" y="-444" type="qcurve"/>
      <point x="576" y="-446"/>
      <point x="506" y="-382" type="qcurve"/>
      <point x="437" y="-310"/>
      <point x="437" y="-203" type="qcurve"/>
      <point x="436" y="-136"/>
      <point x="473" y="-83" type="qcurve"/>
      <point x="508" y="-28"/>
      <point x="578" y="1" type="qcurve"/>
      <point x="1017" y="-137" type="line"/>
      <point x="666" y="-130"/>
      <point x="649" y="-148" type="qcurve"/>
      <point x="633" y="-162"/>
      <point x="633" y="-186" type="qcurve"/>
      <point x="634" y="-215"/>
      <point x="648" y="-231" type="qcurve"/>
      <point x="660" y="-244"/>
      <point x="688" y="-243" type="qcurve"/>
      <point x="726" y="-242"/>
      <point x="784" y="-180" type="qcurve"/>
      <point x="894" y="-356" type="line"/>
      <point x="788" y="-444"/>
    </contour>
  </outline>
</glyph>
<glyph name="eogonek" format="2">
  <advance width="1198"/>
  <unicode hex="0119"/>
  <outline>
    <contour>
      <point x="629" y="193" type="qcurve"/>
      <point x="703" y="196"/>
      <point x="777" y="222" type="qcurve"/>
      <point x="854" y="251"/>
      <point x="922" y="330" type="qcurve"/>
      <point x="1070" y="171" type="line"/>
      <point x="975" y="66"/>
      <point x="856" y="22" type="qcurve"/>
      <point x="743" y="-19"/>
      <point x="631" y="-22" type="qcurve"/>
      <point x="491" y="-22"/>
      <point x="371" y="49" type="qcurve"/>
      <point x="254" y="118"/>
      <point x="181" y="242" type="qcurve"/>
      <point x="109" y="368"/>
      <point x="109" y="517" type="qcurve"/>
      <point x="107" y="667"/>
      <point x="175" y="790" type="qcurve"/>
      <point x="245" y="915"/>
      <point x="359" y="983" type="qcurve"/>
      <point x="479" y="1055"/>
      <point x="617" y="1054" type="qcurve"/>
      <point x="850" y="1054"/>
      <point x="979" y="889" type="qcurve"/>
      <point x="1109" y="730"/>
      <point x="1109" y="418" type="qcurve"/>
      <point x="348" y="418" type="line"/>
      <point x="355" y="346"/>
      <point x="432" y="270" type="qcurve"/>
      <point x="511" y="195"/>
    </contour>
    <contour>
      <point x="622" y="837" type="qcurve"/>
      <point x="513" y="838"/>
      <point x="437" y="768" type="qcurve"/>
      <point x="361" y="698"/>
      <point x="351" y="632" type="qcurve"/>
      <point x="875" y="632" type="line"/>
      <point x="869" y="700"/>
      <point x="801" y="769" type="qcurve"/>
      <point x="739" y="837"/>
    </contour>
    <contour>
      <point x="635" y="-464" type="qcurve"/>
      <point x="528" y="-466"/>
      <point x="457" y="-402" type="qcurve"/>
      <point x="389" y="-331"/>
      <point x="389" y="-226" type="qcurve"/>
      <point x="386" y="-160"/>
      <point x="423" y="-103" type="qcurve"/>
      <point x="462" y="-51"/>
      <point x="528" y="-20" type="qcurve"/>
      <point x="947" y="-152" type="line"/>
      <point x="619" y="-152"/>
      <point x="601" y="-168" type="qcurve"/>
      <point x="585" y="-183"/>
      <point x="585" y="-208" type="qcurve"/>
      <point x="585" y="-237"/>
      <point x="599" y="-252" type="qcurve"/>
      <point x="612" y="-266"/>
      <point x="640" y="-264" type="qcurve"/>
      <point x="676" y="-262"/>
      <point x="737" y="-200" type="qcurve"/>
      <point x="847" y="-379" type="line"/>
      <point x="739" y="-464"/>
    </contour>
  </outline>
</glyph>
<glyph name="Ecaron" format="2">
  <advance width="1257"/>
  <unicode hex="011A"/>
  <outline>
    <contour>
      <point x="400" y="1233" type="line"/>
      <point x="400" y="857" type="line"/>
      <point x="1078" y="857" type="line"/>
      <point x="1078" y="630" type="line"/>
      <point x="400" y="630" type="line"/>
      <point x="400" y="227" type="line"/>
      <point x="1152" y="227" type="line"/>
      <point x="1152" y="0" type="line"/>
      <point x="164" y="0" type="line"/>
      <point x="164" y="1463" type="line"/>
      <point x="1152" y="1463" type="line"/>
      <point x="1152" y="1233" type="line"/>
    </contour>
    <contour>
      <point x="319" y="1807" type="line"/>
      <point x="536" y="1807" type="line"/>
      <point x="655" y="1673" type="line"/>
      <point x="777" y="1807" type="line"/>
      <point x="998" y="1807" type="line"/>
      <point x="743" y="1465" type="line"/>
      <point x="569" y="1465" type="line"/>
    </contour>
  </outline>
</glyph>
<glyph name="itilde" format="2">
  <advance width="523"/>
  <unicode hex="0129"/>
  <outline>
    <contour>
      <point x="156" y="1030" type="line"/>
      <point x="386" y="1030" type="line"/>
      <point x="386" y="0" type="line"/>
      <point x="156" y="0" type="line"/>
    </contour>
    <contour>
      <point x="390" y="1036" type="qcurve"/>
      <point x="341" y="1033"/>
      <point x="294" y="1058" type="qcurve"/>
      <point x="267" y="1080"/>
      <point x="215" y="1115" type="qcurve"/>
      <point x="194" y="1142"/>
      <point x="174" y="1150" type="qcurve"/>
      <point x="165" y="1156"/>
      <point x="155" y="1155" type="qcurve"/>
      <point x="143" y="1155"/>
      <point x="133" y="1144" type="qcurve"/>
      <point x="119" y="1125"/>
      <point x="100" y="1026" type="qcurve"/>
      <point x="-74" y="1050" type="line"/>
      <point x="-32" y="1356"/>
      <point x="151" y="1354" type="qcurve"/>
      <point x="203" y="1359"/>
      <point x="243" y="1331" type="qcurve"/>
      <point x="275" y="1314"/>
      <point x="323" y="1276" type="qcurve"/>
      <point x="352" y="1250"/>
      <point x="366" y="1242" type="qcurve"/>
      <point x="378" y="1236"/>
      <point x="387" y="1236" type="qcurve"/>
      <point x="401" y="1236"/>
      <point x="408" y="1246" type="qcurve"/>
      <point x="424" y="1266"/>
      <point x="440" y="1363" type="qcurve"/>
      <point x="614" y="1340" type="line"/>
      <point x="574" y="1041"/>
    </contour>
  </outline>
</glyph>
<glyph name="Imacron" format="2">
  <advance width="534"/>
  <unicode hex="012A"/>
  <outline>
    <contour>
      <point x="164" y="1463" type="line"/>
      <point x="398" y="1463" type="line"/>
      <point x="398" y="0" type="line"/>
      <point x="164" y="0" type="line"/>
    </contour>
    <contour>
      <point x="90" y="1864" type="line"/>
      <point x="678" y="1864" type="line"/>
      <point x="678" y="1667" type="line"/>
      <point x="90" y="1667" type="line"/>
    </contour>
    <contour>
      <point x="-70" y="1512" type="line"/>
      <point x="-70" y="1512" type="line"/>
      <point x="-70" y="1512" type="line"/>
      <point x="-70" y="1512" type="line"/>
    </contour>
    <contour>
      <point x="-70" y="1512" type="line"/>
      <point x="-70" y="1512" type="line"/>
      <point x="-70" y="1512" type="line"/>
      <point x="-70" y="1512" type="line"/>
    </contour>
  </outline>
</glyph>
<glyph name="imacron" format="2">
  <advance width="513"/>
  <unicode hex="012B"/>
  <outline>
    <contour>
      <point x="156" y="1030" type="line"/>
      <point x="386" y="1030" type="line"/>
      <point x="386" y="0" type="line"/>
      <point x="156" y="0" type="line"/>
    </contour>
    <contour>
      <point x="81" y="1432" type="line"/>
      <point x="668" y="1432" type="line"/>
      <point x="668" y="1234" type="line"/>
      <point x="81" y="1234" type="line"/>
    </contour>
    <contour>
      <point x="-79" y="1079" type="line"/>
      <point x="-79" y="1079" type="line"/>
      <point x="-79" y="1079" type="line"/>
      <point x="-79" y="1079" type="line"/>
    </contour>
    <contour>
      <point x="-79" y="1079" type="line"/>
      <point x="-79" y="1079" type="line"/>
      <point x="-79" y="1079" type="line"/>
      <point x="-79" y="1079" type="line"/>
    </contour>
  </outline>
</glyph>
<glyph name="Ibreve" format="2">
  <advance width="558"/>
  <unicode hex="012C"/>
  <outline>
    <contour>
      <point x="164" y="1463" type="line"/>
      <point x="398" y="1463" type="line"/>
      <point x="398" y="0" type="line"/>
      <point x="164" y="0" type="line"/>
    </contour>
    <contour>
      <point x="282" y="1465" type="qcurve"/>
      <point x="203" y="1465"/>
      <point x="123" y="1495" type="qcurve"/>
      <point x="45" y="1528"/>
      <point x="-52" y="1622" type="qcurve"/>
      <point x="102" y="1772" type="line"/>
      <point x="165" y="1710"/>
      <point x="202" y="1692" type="qcurve"/>
      <point x="243" y="1676"/>
      <point x="282" y="1676" type="qcurve"/>
      <point x="320" y="1676"/>
      <point x="355" y="1692" type="qcurve"/>
      <point x="400" y="1711"/>
      <point x="461" y="1774" type="qcurve"/>
      <point x="609" y="1622" type="line"/>
      <point x="523" y="1531"/>
      <point x="442" y="1497" type="qcurve"/>
      <point x="368" y="1465"/>
    </contour>
  </outline>
</glyph>
<glyph name="ibreve" format="2">
  <advance width="538"/>
  <unicode hex="012D"/>
  <outline>
    <contour>
      <point x="156" y="1030" type="line"/>
      <point x="386" y="1030" type="line"/>
      <point x="386" y="0" type="line"/>
      <point x="156" y="0" type="line"/>
    </contour>
    <contour>
      <point x="273" y="1032" type="qcurve"/>
      <point x="194" y="1032"/>
      <point x="115" y="1061" type="qcurve"/>
      <point x="36" y="1096"/>
      <point x="-61" y="1189" type="qcurve"/>
      <point x="91" y="1339" type="line"/>
      <point x="157" y="1279"/>
      <point x="194" y="1258" type="qcurve"/>
      <point x="233" y="1244"/>
      <point x="273" y="1244" type="qcurve"/>
      <point x="310" y="1244"/>
      <point x="346" y="1258" type="qcurve"/>
      <point x="390" y="1279"/>
      <point x="452" y="1340" type="qcurve"/>
      <point x="601" y="1190" type="line"/>
      <point x="514" y="1100"/>
      <point x="434" y="1064" type="qcurve"/>
      <point x="357" y="1032"/>
    </contour>
  </outline>
</glyph>
<glyph name="Iogonek" format="2">
  <advance width="679"/>
  <unicode hex="012E"/>
  <outline>
    <contour>
      <point x="164" y="1463" type="line"/>
      <point x="398" y="1463" type="line"/>
      <point x="398" y="0" type="line"/>
      <point x="164" y="0" type="line"/>
    </contour>
    <contour>
      <point x="306" y="-444" type="qcurve"/>
      <point x="198" y="-446"/>
      <point x="128" y="-382" type="qcurve"/>
      <point x="59" y="-310"/>
      <point x="59" y="-203" type="qcurve"/>
      <point x="58" y="-136"/>
      <point x="95" y="-83" type="qcurve"/>
      <point x="131" y="-28"/>
      <point x="201" y="1" type="qcurve"/>
      <point x="636" y="-137" type="line"/>
      <point x="289" y="-130"/>
      <point x="272" y="-147" type="qcurve"/>
      <point x="256" y="-161"/>
      <point x="256" y="-186" type="qcurve"/>
      <point x="256" y="-215"/>
      <point x="270" y="-231" type="qcurve"/>
      <point x="282" y="-244"/>
      <point x="310" y="-243" type="qcurve"/>
      <point x="348" y="-242"/>
      <point x="408" y="-180" type="qcurve"/>
      <point x="517" y="-356" type="line"/>
      <point x="410" y="-444"/>
    </contour>
  </outline>
</glyph>
<glyph name="iogonek" format="2">
  <advance width="662"/>
  <unicode hex="012F"/>
  <outline>
    <contour>
      <point x="156" y="1030" type="line"/>
      <point x="386" y="1030" type="line"/>
      <point x="386" y="0" type="line"/>
      <point x="156" y="0" type="line"/>
    </contour>
    <contour>
      <point x="297" y="-443" type="qcurve"/>
      <point x="192" y="-444"/>
      <point x="119" y="-382" type="qcurve"/>
      <point x="51" y="-308"/>
      <point x="51" y="-203" type="qcurve"/>
      <point x="51" y="-136"/>
      <point x="86" y="-83" type="qcurve"/>
      <point x="123" y="-28"/>
      <point x="191" y="1" type="qcurve"/>
      <point x="631" y="-137" type="line"/>
      <point x="280" y="-130"/>
      <point x="263" y="-147" type="qcurve"/>
      <point x="247" y="-161"/>
      <point x="247" y="-186" type="qcurve"/>
      <point x="248" y="-215"/>
      <point x="260" y="-231" type="qcurve"/>
      <point x="274" y="-243"/>
      <point x="301" y="-243" type="qcurve"/>
      <point x="339" y="-240"/>
      <point x="400" y="-180" type="qcurve"/>
      <point x="509" y="-357" type="line"/>
      <point x="401" y="-442"/>
    </contour>
  </outline>
</glyph>
<glyph name="Jcircumflex" format="2">
  <advance width="1102"/>
  <unicode hex="0134"/>
  <outline>
    <contour>
      <point x="497" y="-22" type="qcurve"/>
      <point x="375" y="-22"/>
      <point x="258" y="42" type="qcurve"/>
      <point x="140" y="107"/>
      <point x="55" y="239" type="qcurve"/>
      <point x="232" y="411" type="line"/>
      <point x="291" y="289"/>
      <point x="358" y="244" type="qcurve"/>
      <point x="430" y="203"/>
      <point x="497" y="200" type="qcurve"/>
      <point x="586" y="202"/>
      <point x="643" y="269" type="qcurve"/>
      <point x="703" y="338"/>
      <point x="701" y="453" type="qcurve"/>
      <point x="701" y="1463" type="line"/>
      <point x="937" y="1463" type="line"/>
      <point x="937" y="455" type="line"/>
      <point x="940" y="320"/>
      <point x="884" y="211" type="qcurve"/>
      <point x="829" y="101"/>
      <point x="725" y="39" type="qcurve"/>
      <point x="626" y="-21"/>
    </contour>
    <contour>
      <point x="416" y="1807" type="line"/>
      <point x="590" y="1807" type="line"/>
      <point x="846" y="1465" type="line"/>
      <point x="625" y="1465" type="line"/>
      <point x="503" y="1596" type="line"/>
      <point x="384" y="1465" type="line"/>
      <point x="166" y="1465" type="line"/>
    </contour>
  </outline>
</glyph>
<glyph name="Lacute" format="2">
  <advance width="1123"/>
  <unicode hex="0139"/>
  <outline>
    <contour>
      <point x="1058" y="227" type="line"/>
      <point x="1058" y="0" type="line"/>
      <point x="144" y="0" type="line"/>
      <point x="144" y="1463" type="line"/>
      <point x="381" y="1463" type="line"/>
      <point x="381" y="227" type="line"/>
    </contour>
    <contour>
      <point x="623" y="1824" type="line"/>
      <point x="883" y="1764" type="line"/>
      <point x="544" y="1465" type="line"/>
      <point x="319" y="1465" type="line"/>
    </contour>
  </outline>
</glyph>
<glyph name="lcedilla" format="2">
  <advance width="529"/>
  <unicode hex="013C"/>
  <outline>
    <contour>
      <point x="158" y="1463" type="line"/>
      <point x="388" y="1463" type="line"/>
      <point x="388" y="0" type="line"/>
      <point x="158" y="0" type="line"/>
    </contour>
    <contour>
      <point x="321" y="-103" type="qcurve"/>
      <point x="391" y="-101"/>
      <point x="438" y="-147" type="qcurve"/>
      <point x="494" y="-193"/>
      <point x="491" y="-271" type="qcurve"/>
      <point x="491" y="-356"/>
      <point x="420" y="-412" type="qcurve"/>
      <point x="359" y="-462"/>
      <point x="264" y="-462" type="qcurve"/>
      <point x="215" y="-462"/>
      <point x="163" y="-446" type="qcurve"/>
      <point x="113" y="-428"/>
      <point x="45" y="-383" type="qcurve"/>
      <point x="121" y="-219" type="line"/>
      <point x="210" y="-284"/>
      <point x="259" y="-286" type="qcurve"/>
      <point x="281" y="-286"/>
      <point x="293" y="-276" type="qcurve"/>
      <point x="301" y="-271"/>
      <point x="300" y="-263" type="qcurve"/>
      <point x="300" y="-256"/>
      <point x="300" y="-256" type="qcurve"/>
      <point x="291" y="-246"/>
      <point x="275" y="-246" type="qcurve"/>
      <point x="260" y="-246"/>
      <point x="211" y="-285" type="qcurve"/>
      <point x="133" y="-199" type="line"/>
      <point x="216" y="-2" type="line"/>
      <point x="409" y="-2" type="line"/>
      <point x="395" y="-37" type="line"/>
      <point x="297" y="-99"/>
    </contour>
  </outline>
</glyph>
<glyph name="Nacute" format="2">
  <advance width="1597"/>
  <unicode hex="0143"/>
  <outline>
    <contour>
      <point x="190" y="1463" type="line"/>
      <point x="403" y="1463" type="line"/>
      <point x="1181" y="422" type="line"/>
      <point x="1181" y="1463" type="line"/>
      <point x="1416" y="1463" type="line"/>
      <point x="1416" y="0" type="line"/>
      <point x="1204" y="0" type="line"/>
      <point x="427" y="1042" type="line"/>
      <point x="427" y="0" type="line"/>
      <point x="190" y="0" type="line"/>
    </contour>
    <contour>
      <point x="825" y="1824" type="line"/>
      <point x="1085" y="1764" type="line"/>
      <point x="746" y="1465" type="line"/>
      <point x="521" y="1465" type="line"/>
    </contour>
  </outline>
</glyph>
<glyph name="Ncedilla" format="2">
  <advance width="1597"/>
  <unicode hex="0145"/>
  <outline>
    <contour>
      <point x="190" y="1463" type="line"/>
      <point x="403" y="1463" type="line"/>
      <point x="1181" y="422" type="line"/>
      <point x="1181" y="1463" type="line"/>
      <point x="1416" y="1463" type="line"/>
      <point x="1416" y="0" type="line"/>
      <point x="1204" y="0" type="line"/>
      <point x="427" y="1042" type="line"/>
      <point x="427" y="0" type="line"/>
      <point x="190" y="0" type="line"/>
    </contour>
    <contour>
      <point x="851" y="-103" type="qcurve"/>
      <point x="921" y="-101"/>
      <point x="968" y="-147" type="qcurve"/>
      <point x="1025" y="-193"/>
      <point x="1021" y="-271" type="qcurve"/>
      <point x="1021" y="-356"/>
      <point x="950" y="-412" type="qcurve"/>
      <point x="889" y="-462"/>
      <point x="794" y="-462" type="qcurve"/>
      <point x="745" y="-462"/>
      <point x="693" y="-447" type="qcurve"/>
      <point x="640" y="-428"/>
      <point x="575" y="-382" type="qcurve"/>
      <point x="651" y="-219" type="line"/>
      <point x="740" y="-284"/>
      <point x="790" y="-286" type="qcurve"/>
      <point x="810" y="-286"/>
      <point x="822" y="-276" type="qcurve"/>
      <point x="831" y="-270"/>
      <point x="830" y="-263" type="qcurve"/>
      <point x="830" y="-256"/>
      <point x="830" y="-256" type="qcurve"/>
      <point x="822" y="-246"/>
      <point x="806" y="-246" type="qcurve"/>
      <point x="790" y="-246"/>
      <point x="743" y="-286" type="qcurve"/>
      <point x="663" y="-199" type="line"/>
      <point x="745" y="-2" type="line"/>
      <point x="939" y="-2" type="line"/>
      <point x="925" y="-37" type="line"/>
      <point x="827" y="-99"/>
    </contour>
  </outline>
</glyph>
<glyph name="ncedilla" format="2">
  <advance width="1196"/>
  <unicode hex="0146"/>
  <outline>
    <contour>
      <point x="649" y="1054" type="qcurve"/>
      <point x="766" y="1057"/>
      <point x="854" y="1002" type="qcurve"/>
      <point x="949" y="952"/>
      <point x="998" y="854" type="qcurve"/>
      <point x="1051" y="764"/>
      <point x="1048" y="645" type="qcurve"/>
      <point x="1048" y="0" type="line"/>
      <point x="820" y="0" type="line"/>
      <point x="820" y="625" type="line"/>
      <point x="820" y="722"/>
      <point x="765" y="781" type="qcurve"/>
      <point x="716" y="838"/>
      <point x="634" y="837" type="qcurve"/>
      <point x="568" y="837"/>
      <point x="508" y="809" type="qcurve"/>
      <point x="453" y="785"/>
      <point x="419" y="735" type="qcurve"/>
      <point x="390" y="695"/>
      <point x="389" y="644" type="qcurve"/>
      <point x="389" y="0" type="line"/>
      <point x="159" y="0" type="line"/>
      <point x="159" y="1030" type="line"/>
      <point x="389" y="1030" type="line"/>
      <point x="389" y="1022" type="line"/>
      <point x="348" y="943"/>
      <point x="444" y="998" type="qcurve"/>
      <point x="541" y="1055"/>
    </contour>
    <contour>
      <point x="651" y="-104" type="qcurve"/>
      <point x="722" y="-101"/>
      <point x="768" y="-148" type="qcurve"/>
      <point x="824" y="-193"/>
      <point x="821" y="-271" type="qcurve"/>
      <point x="821" y="-356"/>
      <point x="751" y="-412" type="qcurve"/>
      <point x="689" y="-462"/>
      <point x="595" y="-462" type="qcurve"/>
      <point x="546" y="-462"/>
      <point x="493" y="-446" type="qcurve"/>
      <point x="441" y="-428"/>
      <point x="376" y="-382" type="qcurve"/>
      <point x="449" y="-218" type="line"/>
      <point x="539" y="-284"/>
      <point x="590" y="-286" type="qcurve"/>
      <point x="612" y="-286"/>
      <point x="623" y="-276" type="qcurve"/>
      <point x="632" y="-270"/>
      <point x="631" y="-264" type="qcurve"/>
      <point x="631" y="-257"/>
      <point x="629" y="-255" type="qcurve"/>
      <point x="621" y="-246"/>
      <point x="606" y="-246" type="qcurve"/>
      <point x="590" y="-246"/>
      <point x="540" y="-285" type="qcurve"/>
      <point x="463" y="-199" type="line"/>
      <point x="546" y="-2" type="line"/>
      <point x="740" y="-2" type="line"/>
      <point x="721" y="-48" type="line"/>
      <point x="631" y="-98"/>
    </contour>
  </outline>
</glyph>
<glyph name="Ncaron" format="2">
  <advance width="1597"/>
  <unicode hex="0147"/>
  <outline>
    <contour>
      <point x="190" y="1463" type="line"/>
      <point x="403" y="1463" type="line"/>
      <point x="1181" y="422" type="line"/>
      <point x="1181" y="1463" type="line"/>
      <point x="1416" y="1463" type="line"/>
      <point x="1416" y="0" type="line"/>
      <point x="1204" y="0" type="line"/>
      <point x="427" y="1042" type="line"/>
      <point x="427" y="0" type="line"/>
      <point x="190" y="0" type="line"/>
    </contour>
    <contour>
      <point x="465" y="1807" type="line"/>
      <point x="682" y="1807" type="line"/>
      <point x="802" y="1674" type="line"/>
      <point x="924" y="1807" type="line"/>
      <point x="1145" y="1807" type="line"/>
      <point x="889" y="1465" type="line"/>
      <point x="714" y="1465" type="line"/>
    </contour>
  </outline>
</glyph>
<glyph name="odblacute" format="2">
  <advance width="1264"/>
  <unicode hex="0151"/>
  <outline>
    <contour>
      <point x="640" y="-22" type="qcurve"/>
      <point x="499" y="-19"/>
      <point x="375" y="53" type="qcurve"/>
      <point x="255" y="125"/>
      <point x="181" y="248" type="qcurve"/>
      <point x="109" y="375"/>
      <point x="109" y="515" type="qcurve"/>
      <point x="109" y="661"/>
      <point x="180" y="783" type="qcurve"/>
      <point x="254" y="911"/>
      <point x="375" y="980" type="qcurve"/>
      <point x="499" y="1054"/>
      <point x="640" y="1054" type="qcurve"/>
      <point x="784" y="1054"/>
      <point x="904" y="980" type="qcurve"/>
      <point x="1029" y="911"/>
      <point x="1099" y="783" type="qcurve"/>
      <point x="1174" y="662"/>
      <point x="1170" y="515" type="qcurve"/>
      <point x="1170" y="443"/>
      <point x="1155" y="379" type="qcurve"/>
      <point x="1140" y="315"/>
      <point x="1101" y="251" type="qcurve"/>
      <point x="1032" y="128"/>
      <point x="907" y="53" type="qcurve"/>
      <point x="786" y="-19"/>
    </contour>
    <contour>
      <point x="640" y="193" type="qcurve"/>
      <point x="716" y="196"/>
      <point x="785" y="238" type="qcurve"/>
      <point x="854" y="281"/>
      <point x="891" y="352" type="qcurve"/>
      <point x="934" y="430"/>
      <point x="934" y="515" type="qcurve"/>
      <point x="936" y="602"/>
      <point x="893" y="676" type="qcurve"/>
      <point x="854" y="750"/>
      <point x="787" y="792" type="qcurve"/>
      <point x="716" y="837"/>
      <point x="639" y="837" type="qcurve"/>
      <point x="562" y="838"/>
      <point x="495" y="795" type="qcurve"/>
      <point x="426" y="752"/>
      <point x="384" y="676" type="qcurve"/>
      <point x="346" y="603"/>
      <point x="346" y="515" type="qcurve"/>
      <point x="344" y="429"/>
      <point x="382" y="354" type="qcurve"/>
      <point x="424" y="282"/>
      <point x="493" y="237" type="qcurve"/>
      <point x="564" y="196"/>
    </contour>
    <contour>
      <point x="482" y="1418" type="line"/>
      <point x="741" y="1357" type="line"/>
      <point x="403" y="1056" type="line"/>
      <point x="180" y="1056" type="line"/>
    </contour>
    <contour>
      <point x="845" y="1413" type="line"/>
      <point x="1104" y="1354" type="line"/>
      <point x="766" y="1056" type="line"/>
      <point x="540" y="1056" type="line"/>
    </contour>
  </outline>
</glyph>
<glyph name="OE" format="2">
  <advance width="2191"/>
  <unicode hex="0152"/>
  <outline>
    <contour>
      <point x="1240" y="1231" type="line"/>
      <point x="1240" y="857" type="line"/>
      <point x="1995" y="857" type="line"/>
      <point x="1991" y="628" type="line"/>
      <point x="1240" y="628" type="line"/>
      <point x="1240" y="229" type="line"/>
      <point x="2076" y="229" type="line"/>
      <point x="2072" y="0" type="line"/>
      <point x="881" y="0" type="line"/>
      <point x="682" y="0"/>
      <point x="511" y="92" type="qcurve"/>
      <point x="339" y="185"/>
      <point x="234" y="345" type="qcurve"/>
      <point x="132" y="512"/>
      <point x="129" y="711" type="qcurve"/>
      <point x="129" y="914"/>
      <point x="233" y="1087" type="qcurve"/>
      <point x="337" y="1258"/>
      <point x="509" y="1359" type="qcurve"/>
      <point x="682" y="1463"/>
      <point x="881" y="1463" type="qcurve"/>
      <point x="2073" y="1463" type="line"/>
      <point x="2073" y="1231" type="line"/>
    </contour>
    <contour>
      <point x="999" y="222" type="line"/>
      <point x="999" y="1237" type="line"/>
      <point x="881" y="1237" type="line"/>
      <point x="745" y="1240"/>
      <point x="631" y="1166" type="qcurve"/>
      <point x="571" y="1128"/>
      <point x="525" y="1081" type="qcurve"/>
      <point x="479" y="1033"/>
      <point x="442" y="973" type="qcurve"/>
      <point x="376" y="853"/>
      <point x="373" y="711" type="qcurve"/>
      <point x="373" y="571"/>
      <point x="440" y="461" type="qcurve"/>
      <point x="506" y="352"/>
      <point x="624" y="289" type="qcurve"/>
      <point x="741" y="226"/>
      <point x="882" y="223" type="qcurve"/>
    </contour>
  </outline>
</glyph>
<glyph name="Rcedilla" format="2">
  <advance width="1414"/>
  <unicode hex="0156"/>
  <outline>
    <contour>
      <point x="164" y="1463" type="line"/>
      <point x="715" y="1463" type="line"/>
      <point x="858" y="1463"/>
      <point x="968" y="1407" type="qcurve"/>
      <point x="1089" y="1353"/>
      <point x="1152" y="1250" type="qcurve"/>
      <point x="1224" y="1149"/>
      <point x="1223" y="1018" type="qcurve"/>
      <point x="1224" y="859"/>
      <point x="1114" y="737" type="qcurve"/>
      <point x="1011" y="621"/>
      <point x="916" y="600" type="qcurve"/>
      <point x="1336" y="0" type="line"/>
      <point x="1057" y="0" type="line"/>
      <point x="658" y="571" type="line"/>
      <point x="398" y="571" type="line"/>
      <point x="398" y="0" type="line"/>
      <point x="164" y="0" type="line"/>
    </contour>
    <contour>
      <point x="398" y="1233" type="line"/>
      <point x="398" y="799" type="line"/>
      <point x="692" y="799" type="line"/>
      <point x="831" y="799"/>
      <point x="909" y="860" type="qcurve"/>
      <point x="986" y="918"/>
      <point x="986" y="1019" type="qcurve"/>
      <point x="988" y="1118"/>
      <point x="911" y="1172" type="qcurve"/>
      <point x="831" y="1234"/>
      <point x="693" y="1233" type="qcurve"/>
    </contour>
    <contour>
      <point x="774" y="-103" type="qcurve"/>
      <point x="844" y="-101"/>
      <point x="891" y="-147" type="qcurve"/>
      <point x="948" y="-193"/>
      <point x="944" y="-271" type="qcurve"/>
      <point x="944" y="-356"/>
      <point x="873" y="-412" type="qcurve"/>
      <point x="812" y="-462"/>
      <point x="717" y="-462" type="qcurve"/>
      <point x="668" y="-462"/>
      <point x="616" y="-447" type="qcurve"/>
      <point x="563" y="-428"/>
      <point x="498" y="-382" type="qcurve"/>
      <point x="574" y="-219" type="line"/>
      <point x="663" y="-284"/>
      <point x="713" y="-286" type="qcurve"/>
      <point x="733" y="-286"/>
      <point x="745" y="-276" type="qcurve"/>
      <point x="754" y="-270"/>
      <point x="753" y="-263" type="qcurve"/>
      <point x="753" y="-256"/>
      <point x="753" y="-256" type="qcurve"/>
      <point x="744" y="-246"/>
      <point x="728" y="-246" type="qcurve"/>
      <point x="713" y="-246"/>
      <point x="666" y="-286" type="qcurve"/>
      <point x="586" y="-199" type="line"/>
      <point x="668" y="-2" type="line"/>
      <point x="862" y="-2" type="line"/>
      <point x="848" y="-37" type="line"/>
      <point x="750" y="-99"/>
    </contour>
  </outline>
</glyph>
<glyph name="sacute" format="2">
  <advance width="1067"/>
  <unicode hex="015B"/>
  <outline>
    <contour>
      <point x="917" y="865" type="qcurve"/>
      <point x="756" y="698" type="line"/>
      <point x="630" y="832"/>
      <point x="505" y="837" type="qcurve"/>
      <point x="381" y="832"/>
      <point x="369" y="745" type="qcurve"/>
      <point x="369" y="699"/>
      <point x="401" y="684" type="qcurve"/>
      <point x="460" y="659"/>
      <point x="562" y="624" type="qcurve"/>
      <point x="750" y="580"/>
      <point x="833" y="518" type="qcurve"/>
      <point x="928" y="450"/>
      <point x="928" y="304" type="qcurve"/>
      <point x="905" y="-6"/>
      <point x="558" y="-22" type="qcurve"/>
      <point x="274" y="-21"/>
      <point x="86" y="185" type="qcurve"/>
      <point x="252" y="353" type="line"/>
      <point x="386" y="193"/>
      <point x="558" y="195" type="qcurve"/>
      <point x="683" y="191"/>
      <point x="697" y="308" type="qcurve"/>
      <point x="697" y="374"/>
      <point x="504" y="410" type="qcurve"/>
      <point x="311" y="455"/>
      <point x="228" y="525" type="qcurve"/>
      <point x="138" y="605"/>
      <point x="138" y="748" type="qcurve"/>
      <point x="137" y="877"/>
      <point x="254" y="967" type="qcurve"/>
      <point x="366" y="1054"/>
      <point x="522" y="1054" type="qcurve"/>
      <point x="647" y="1046"/>
      <point x="726" y="1009" type="qcurve"/>
      <point x="807" y="974"/>
    </contour>
    <contour>
      <point x="523" y="1415" type="line"/>
      <point x="782" y="1355" type="line"/>
      <point x="444" y="1056" type="line"/>
      <point x="220" y="1056" type="line"/>
    </contour>
  </outline>
</glyph>
<glyph name="Scedilla" format="2">
  <advance width="1232"/>
  <unicode hex="015E"/>
  <outline>
    <contour>
      <point x="642" y="-19" type="qcurve"/>
      <point x="332" y="-19"/>
      <point x="90" y="241" type="qcurve"/>
      <point x="234" y="429" type="line"/>
      <point x="355" y="305"/>
      <point x="446" y="255" type="qcurve"/>
      <point x="537" y="209"/>
      <point x="648" y="208" type="qcurve"/>
      <point x="730" y="208"/>
      <point x="784" y="233" type="qcurve"/>
      <point x="838" y="262"/>
      <point x="862" y="305" type="qcurve"/>
      <point x="891" y="350"/>
      <point x="890" y="398" type="qcurve"/>
      <point x="891" y="441"/>
      <point x="876" y="477" type="qcurve"/>
      <point x="863" y="510"/>
      <point x="833" y="531" type="qcurve"/>
      <point x="760" y="583"/>
      <point x="590" y="626" type="qcurve"/>
      <point x="447" y="663"/>
      <point x="359" y="708" type="qcurve"/>
      <point x="261" y="755"/>
      <point x="204" y="840" type="qcurve"/>
      <point x="176" y="885"/>
      <point x="162" y="933" type="qcurve"/>
      <point x="149" y="982"/>
      <point x="148" y="1047" type="qcurve"/>
      <point x="149" y="1167"/>
      <point x="209" y="1266" type="qcurve"/>
      <point x="269" y="1366"/>
      <point x="375" y="1426" type="qcurve"/>
      <point x="483" y="1481"/>
      <point x="610" y="1481" type="qcurve"/>
      <point x="755" y="1484"/>
      <point x="870" y="1429" type="qcurve"/>
      <point x="987" y="1372"/>
      <point x="1109" y="1243" type="qcurve"/>
      <point x="966" y="1054" type="line"/>
      <point x="853" y="1172"/>
      <point x="769" y="1214" type="qcurve"/>
      <point x="690" y="1257"/>
      <point x="603" y="1255" type="qcurve"/>
      <point x="541" y="1257"/>
      <point x="490" y="1229" type="qcurve"/>
      <point x="441" y="1206"/>
      <point x="414" y="1161" type="qcurve"/>
      <point x="389" y="1117"/>
      <point x="386" y="1063" type="qcurve"/>
      <point x="386" y="1026"/>
      <point x="400" y="993" type="qcurve"/>
      <point x="413" y="964"/>
      <point x="441" y="944" type="qcurve"/>
      <point x="515" y="897"/>
      <point x="685" y="852" type="qcurve"/>
      <point x="897" y="798"/>
      <point x="1006" y="704" type="qcurve"/>
      <point x="1128" y="605"/>
      <point x="1126" y="419" type="qcurve"/>
      <point x="1128" y="299"/>
      <point x="1074" y="196" type="qcurve"/>
      <point x="1019" y="96"/>
      <point x="904" y="37" type="qcurve"/>
      <point x="795" y="-19"/>
    </contour>
    <contour>
      <point x="663" y="-124" type="qcurve"/>
      <point x="734" y="-121"/>
      <point x="781" y="-166" type="qcurve"/>
      <point x="838" y="-212"/>
      <point x="834" y="-290" type="qcurve"/>
      <point x="835" y="-376"/>
      <point x="763" y="-431" type="qcurve"/>
      <point x="701" y="-481"/>
      <point x="607" y="-481" type="qcurve"/>
      <point x="559" y="-481"/>
      <point x="507" y="-466" type="qcurve"/>
      <point x="456" y="-448"/>
      <point x="388" y="-400" type="qcurve"/>
      <point x="464" y="-237" type="line"/>
      <point x="553" y="-303"/>
      <point x="603" y="-305" type="qcurve"/>
      <point x="625" y="-305"/>
      <point x="636" y="-296" type="qcurve"/>
      <point x="643" y="-290"/>
      <point x="643" y="-282" type="qcurve"/>
      <point x="643" y="-274"/>
      <point x="642" y="-274" type="qcurve"/>
      <point x="634" y="-265"/>
      <point x="619" y="-266" type="qcurve"/>
      <point x="603" y="-266"/>
      <point x="555" y="-303" type="qcurve"/>
      <point x="475" y="-220" type="line"/>
      <point x="559" y="-22" type="line"/>
      <point x="752" y="-22" type="line"/>
      <point x="728" y="-83" type="line"/>
      <point x="643" y="-120"/>
    </contour>
  </outline>
</glyph>
<glyph name="scedilla" format="2">
  <advance width="1067"/>
  <unicode hex="015F"/>
  <outline>
    <contour>
      <point x="917" y="865" type="qcurve"/>
      <point x="756" y="698" type="line"/>
      <point x="630" y="832"/>
      <point x="505" y="837" type="qcurve"/>
      <point x="381" y="832"/>
      <point x="369" y="745" type="qcurve"/>
      <point x="369" y="699"/>
      <point x="401" y="684" type="qcurve"/>
      <point x="460" y="659"/>
      <point x="562" y="624" type="qcurve"/>
      <point x="750" y="580"/>
      <point x="833" y="518" type="qcurve"/>
      <point x="928" y="450"/>
      <point x="928" y="304" type="qcurve"/>
      <point x="905" y="-6"/>
      <point x="558" y="-22" type="qcurve"/>
      <point x="274" y="-21"/>
      <point x="86" y="185" type="qcurve"/>
      <point x="252" y="353" type="line"/>
      <point x="386" y="193"/>
      <point x="558" y="195" type="qcurve"/>
      <point x="683" y="191"/>
      <point x="697" y="308" type="qcurve"/>
      <point x="697" y="374"/>
      <point x="504" y="410" type="qcurve"/>
      <point x="311" y="455"/>
      <point x="228" y="525" type="qcurve"/>
      <point x="138" y="605"/>
      <point x="138" y="748" type="qcurve"/>
      <point x="137" y="877"/>
      <point x="254" y="967" type="qcurve"/>
      <point x="366" y="1054"/>
      <point x="522" y="1054" type="qcurve"/>
      <point x="647" y="1046"/>
      <point x="726" y="1009" type="qcurve"/>
      <point x="807" y="974"/>
    </contour>
    <contour>
      <point x="546" y="-126" type="qcurve"/>
      <point x="617" y="-123"/>
      <point x="666" y="-167" type="qcurve"/>
      <point x="722" y="-213"/>
      <point x="718" y="-292" type="qcurve"/>
      <point x="718" y="-378"/>
      <point x="648" y="-433" type="qcurve"/>
      <point x="587" y="-483"/>
      <point x="493" y="-484" type="qcurve"/>
      <point x="442" y="-484"/>
      <point x="390" y="-468" type="qcurve"/>
      <point x="340" y="-450"/>
      <point x="273" y="-402" type="qcurve"/>
      <point x="349" y="-240" type="line"/>
      <point x="437" y="-305"/>
      <point x="487" y="-306" type="qcurve"/>
      <point x="509" y="-306"/>
      <point x="521" y="-297" type="qcurve"/>
      <point x="528" y="-291"/>
      <point x="526" y="-285" type="qcurve"/>
      <point x="527" y="-276"/>
      <point x="526" y="-275" type="qcurve"/>
      <point x="519" y="-267"/>
      <point x="503" y="-268" type="qcurve"/>
      <point x="487" y="-268"/>
      <point x="441" y="-307" type="qcurve"/>
      <point x="360" y="-221" type="line"/>
      <point x="444" y="-24" type="line"/>
      <point x="636" y="-24" type="line"/>
      <point x="615" y="-77" type="line"/>
      <point x="525" y="-122"/>
    </contour>
  </outline>
</glyph>
<glyph name="Scaron" format="2">
  <advance width="1232"/>
  <unicode hex="0160"/>
  <outline>
    <contour>
      <point x="642" y="-19" type="qcurve"/>
      <point x="332" y="-19"/>
      <point x="90" y="241" type="qcurve"/>
      <point x="234" y="429" type="line"/>
      <point x="355" y="305"/>
      <point x="446" y="255" type="qcurve"/>
      <point x="537" y="209"/>
      <point x="648" y="208" type="qcurve"/>
      <point x="730" y="208"/>
      <point x="784" y="233" type="qcurve"/>
      <point x="838" y="262"/>
      <point x="862" y="305" type="qcurve"/>
      <point x="891" y="350"/>
      <point x="890" y="398" type="qcurve"/>
      <point x="891" y="441"/>
      <point x="876" y="477" type="qcurve"/>
      <point x="863" y="510"/>
      <point x="833" y="531" type="qcurve"/>
      <point x="760" y="583"/>
      <point x="590" y="626" type="qcurve"/>
      <point x="447" y="663"/>
      <point x="359" y="708" type="qcurve"/>
      <point x="261" y="755"/>
      <point x="204" y="840" type="qcurve"/>
      <point x="176" y="885"/>
      <point x="162" y="933" type="qcurve"/>
      <point x="149" y="982"/>
      <point x="148" y="1047" type="qcurve"/>
      <point x="149" y="1167"/>
      <point x="209" y="1266" type="qcurve"/>
      <point x="269" y="1366"/>
      <point x="375" y="1426" type="qcurve"/>
      <point x="483" y="1481"/>
      <point x="610" y="1481" type="qcurve"/>
      <point x="755" y="1484"/>
      <point x="870" y="1429" type="qcurve"/>
      <point x="987" y="1372"/>
      <point x="1109" y="1243" type="qcurve"/>
      <point x="966" y="1054" type="line"/>
      <point x="853" y="1172"/>
      <point x="769" y="1214" type="qcurve"/>
      <point x="690" y="1257"/>
      <point x="603" y="1255" type="qcurve"/>
      <point x="541" y="1257"/>
      <point x="490" y="1229" type="qcurve"/>
      <point x="441" y="1206"/>
      <point x="414" y="1161" type="qcurve"/>
      <point x="389" y="1117"/>
      <point x="386" y="1063" type="qcurve"/>
      <point x="386" y="1026"/>
      <point x="400" y="993" type="qcurve"/>
      <point x="413" y="964"/>
      <point x="441" y="944" type="qcurve"/>
      <point x="515" y="897"/>
      <point x="685" y="852" type="qcurve"/>
      <point x="897" y="798"/>
      <point x="1006" y="704" type="qcurve"/>
      <point x="1128" y="605"/>
      <point x="1126" y="419" type="qcurve"/>
      <point x="1128" y="299"/>
      <point x="1074" y="196" type="qcurve"/>
      <point x="1019" y="96"/>
      <point x="904" y="37" type="qcurve"/>
      <point x="795" y="-19"/>
    </contour>
    <contour>
      <point x="278" y="1828" type="line"/>
      <point x="495" y="1828" type="line"/>
      <point x="615" y="1695" type="line"/>
      <point x="737" y="1828" type="line"/>
      <point x="958" y="1828" type="line"/>
      <point x="702" y="1486" type="line"/>
      <point x="528" y="1486" type="line"/>
    </contour>
  </outline>
</glyph>
<glyph name="Tcedilla" format="2">
  <advance width="1261"/>
  <unicode hex="0162"/>
  <outline>
    <contour>
      <point x="520" y="1233" type="line"/>
      <point x="103" y="1233" type="line"/>
      <point x="103" y="1463" type="line"/>
      <point x="1175" y="1463" type="line"/>
      <point x="1175" y="1233" type="line"/>
      <point x="755" y="1233" type="line"/>
      <point x="755" y="0" type="line"/>
      <point x="520" y="0" type="line"/>
    </contour>
    <contour>
      <point x="687" y="-103" type="qcurve"/>
      <point x="758" y="-101"/>
      <point x="804" y="-148" type="qcurve"/>
      <point x="860" y="-193"/>
      <point x="856" y="-270" type="qcurve"/>
      <point x="857" y="-356"/>
      <point x="787" y="-412" type="qcurve"/>
      <point x="726" y="-462"/>
      <point x="631" y="-462" type="qcurve"/>
      <point x="582" y="-462"/>
      <point x="528" y="-446" type="qcurve"/>
      <point x="478" y="-428"/>
      <point x="411" y="-383" type="qcurve"/>
      <point x="487" y="-219" type="line"/>
      <point x="575" y="-284"/>
      <point x="625" y="-286" type="qcurve"/>
      <point x="647" y="-286"/>
      <point x="659" y="-276" type="qcurve"/>
      <point x="667" y="-270"/>
      <point x="666" y="-263" type="qcurve"/>
      <point x="666" y="-256"/>
      <point x="666" y="-255" type="qcurve"/>
      <point x="657" y="-246"/>
      <point x="642" y="-246" type="qcurve"/>
      <point x="626" y="-246"/>
      <point x="576" y="-285" type="qcurve"/>
      <point x="499" y="-199" type="line"/>
      <point x="582" y="-2" type="line"/>
      <point x="776" y="-2" type="line"/>
      <point x="758" y="-46" type="line"/>
      <point x="665" y="-98"/>
    </contour>
  </outline>
</glyph>
<glyph name="tcaron" format="2">
  <advance width="827"/>
  <unicode hex="0165"/>
  <outline>
    <contour>
      <point x="235" y="0" type="line"/>
      <point x="235" y="815" type="line"/>
      <point x="88" y="815" type="line"/>
      <point x="88" y="1028" type="line"/>
      <point x="235" y="1028" type="line"/>
      <point x="235" y="1285" type="line"/>
      <point x="463" y="1285" type="line"/>
      <point x="463" y="1028" type="line"/>
      <point x="697" y="1028" type="line"/>
      <point x="697" y="815" type="line"/>
      <point x="463" y="815" type="line"/>
      <point x="465" y="0" type="line"/>
    </contour>
    <contour>
      <point x="55" y="1630" type="line"/>
      <point x="272" y="1630" type="line"/>
      <point x="391" y="1496" type="line"/>
      <point x="513" y="1630" type="line"/>
      <point x="733" y="1630" type="line"/>
      <point x="478" y="1287" type="line"/>
      <point x="305" y="1287" type="line"/>
    </contour>
  </outline>
</glyph>
<glyph name="utilde" format="2">
  <advance width="1196"/>
  <unicode hex="0169"/>
  <outline>
    <contour>
      <point x="556" y="-24" type="qcurve"/>
      <point x="441" y="-24"/>
      <point x="351" y="29" type="qcurve"/>
      <point x="257" y="81"/>
      <point x="209" y="175" type="qcurve"/>
      <point x="156" y="267"/>
      <point x="159" y="387" type="qcurve"/>
      <point x="159" y="1030" type="line"/>
      <point x="387" y="1030" type="line"/>
      <point x="387" y="405" type="line"/>
      <point x="388" y="307"/>
      <point x="441" y="250" type="qcurve"/>
      <point x="491" y="194"/>
      <point x="573" y="195" type="qcurve"/>
      <point x="640" y="195"/>
      <point x="699" y="221" type="qcurve"/>
      <point x="755" y="246"/>
      <point x="788" y="295" type="qcurve"/>
      <point x="819" y="337"/>
      <point x="818" y="385" type="qcurve"/>
      <point x="818" y="1030" type="line"/>
      <point x="1048" y="1030" type="line"/>
      <point x="1048" y="0" type="line"/>
      <point x="818" y="0" type="line"/>
      <point x="818" y="7" type="line"/>
      <point x="860" y="88"/>
      <point x="762" y="33" type="qcurve"/>
      <point x="668" y="-24"/>
    </contour>
    <contour>
      <point x="726" y="1037" type="qcurve"/>
      <point x="675" y="1034"/>
      <point x="630" y="1059" type="qcurve"/>
      <point x="602" y="1081"/>
      <point x="552" y="1117" type="qcurve"/>
      <point x="528" y="1142"/>
      <point x="508" y="1152" type="qcurve"/>
      <point x="501" y="1157"/>
      <point x="492" y="1156" type="qcurve"/>
      <point x="479" y="1156"/>
      <point x="471" y="1145" type="qcurve"/>
      <point x="455" y="1125"/>
      <point x="436" y="1027" type="qcurve"/>
      <point x="261" y="1051" type="line"/>
      <point x="304" y="1355"/>
      <point x="487" y="1355" type="qcurve"/>
      <point x="538" y="1358"/>
      <point x="578" y="1332" type="qcurve"/>
      <point x="612" y="1314"/>
      <point x="660" y="1276" type="qcurve"/>
      <point x="689" y="1251"/>
      <point x="702" y="1243" type="qcurve"/>
      <point x="712" y="1237"/>
      <point x="724" y="1237" type="qcurve"/>
      <point x="737" y="1237"/>
      <point x="743" y="1246" type="qcurve"/>
      <point x="759" y="1266"/>
      <point x="776" y="1365" type="qcurve"/>
      <point x="950" y="1339" type="line"/>
      <point x="911" y="1040"/>
    </contour>
  </outline>
</glyph>
<glyph name="Umacron" format="2">
  <advance width="1476"/>
  <unicode hex="016A"/>
  <outline>
    <contour>
      <point x="744" y="-22" type="qcurve"/>
      <point x="586" y="-22"/>
      <point x="452" y="55" type="qcurve"/>
      <point x="322" y="133"/>
      <point x="250" y="264" type="qcurve"/>
      <point x="180" y="400"/>
      <point x="177" y="562" type="qcurve"/>
      <point x="177" y="1463" type="line"/>
      <point x="412" y="1463" type="line"/>
      <point x="412" y="563" type="line"/>
      <point x="412" y="459"/>
      <point x="456" y="375" type="qcurve"/>
      <point x="498" y="294"/>
      <point x="572" y="247" type="qcurve"/>
      <point x="648" y="202"/>
      <point x="744" y="200" type="qcurve"/>
      <point x="838" y="203"/>
      <point x="913" y="247" type="qcurve"/>
      <point x="989" y="293"/>
      <point x="1032" y="373" type="qcurve"/>
      <point x="1077" y="457"/>
      <point x="1074" y="563" type="qcurve"/>
      <point x="1074" y="1463" type="line"/>
      <point x="1309" y="1463" type="line"/>
      <point x="1309" y="564" type="line"/>
      <point x="1313" y="401"/>
      <point x="1240" y="263" type="qcurve"/>
      <point x="1170" y="134"/>
      <point x="1039" y="55" type="qcurve"/>
      <point x="905" y="-22"/>
    </contour>
    <contour>
      <point x="555" y="1864" type="line"/>
      <point x="1142" y="1864" type="line"/>
      <point x="1142" y="1667" type="line"/>
      <point x="555" y="1667" type="line"/>
    </contour>
    <contour>
      <point x="395" y="1512" type="line"/>
      <point x="395" y="1512" type="line"/>
      <point x="395" y="1512" type="line"/>
      <point x="395" y="1512" type="line"/>
    </contour>
    <contour>
      <point x="395" y="1512" type="line"/>
      <point x="395" y="1512" type="line"/>
      <point x="395" y="1512" type="line"/>
      <point x="395" y="1512" type="line"/>
    </contour>
  </outline>
</glyph>
<glyph name="umacron" format="2">
  <advance width="1196"/>
  <unicode hex="016B"/>
  <outline>
    <contour>
      <point x="552" y="-24" type="qcurve"/>
      <point x="436" y="-24"/>
      <point x="347" y="29" type="qcurve"/>
      <point x="253" y="81"/>
      <point x="205" y="175" type="qcurve"/>
      <point x="151" y="267"/>
      <point x="153" y="387" type="qcurve"/>
      <point x="153" y="1030" type="line"/>
      <point x="383" y="1030" type="line"/>
      <point x="383" y="405" type="line"/>
      <point x="384" y="307"/>
      <point x="436" y="250" type="qcurve"/>
      <point x="485" y="195"/>
      <point x="569" y="195" type="qcurve"/>
      <point x="635" y="195"/>
      <point x="695" y="221" type="qcurve"/>
      <point x="749" y="245"/>
      <point x="784" y="296" type="qcurve"/>
      <point x="814" y="337"/>
      <point x="813" y="385" type="qcurve"/>
      <point x="813" y="1030" type="line"/>
      <point x="1043" y="1030" type="line"/>
      <point x="1043" y="0" type="line"/>
      <point x="813" y="0" type="line"/>
      <point x="813" y="3" type="line"/>
      <point x="856" y="87"/>
      <point x="758" y="34" type="qcurve"/>
      <point x="664" y="-24"/>
    </contour>
    <contour>
      <point x="407" y="1432" type="line"/>
      <point x="995" y="1432" type="line"/>
      <point x="995" y="1234" type="line"/>
      <point x="407" y="1234" type="line"/>
    </contour>
    <contour>
      <point x="247" y="1079" type="line"/>
      <point x="247" y="1079" type="line"/>
      <point x="247" y="1079" type="line"/>
      <point x="247" y="1079" type="line"/>
    </contour>
    <contour>
      <point x="247" y="1079" type="line"/>
      <point x="247" y="1079" type="line"/>
      <point x="247" y="1079" type="line"/>
      <point x="247" y="1079" type="line"/>
    </contour>
  </outline>
</glyph>
<glyph name="Uogonek" format="2">
  <advance width="1476"/>
  <unicode hex="0172"/>
  <outline>
    <contour>
      <point x="744" y="-22" type="qcurve"/>
      <point x="586" y="-22"/>
      <point x="452" y="55" type="qcurve"/>
      <point x="322" y="133"/>
      <point x="250" y="264" type="qcurve"/>
      <point x="180" y="400"/>
      <point x="177" y="562" type="qcurve"/>
      <point x="177" y="1463" type="line"/>
      <point x="412" y="1463" type="line"/>
      <point x="412" y="563" type="line"/>
      <point x="412" y="459"/>
      <point x="456" y="375" type="qcurve"/>
      <point x="498" y="294"/>
      <point x="572" y="247" type="qcurve"/>
      <point x="648" y="202"/>
      <point x="744" y="200" type="qcurve"/>
      <point x="838" y="203"/>
      <point x="913" y="247" type="qcurve"/>
      <point x="989" y="293"/>
      <point x="1032" y="373" type="qcurve"/>
      <point x="1077" y="457"/>
      <point x="1074" y="563" type="qcurve"/>
      <point x="1074" y="1463" type="line"/>
      <point x="1309" y="1463" type="line"/>
      <point x="1309" y="564" type="line"/>
      <point x="1313" y="400"/>
      <point x="1240" y="263" type="qcurve"/>
      <point x="1170" y="134"/>
      <point x="1039" y="55" type="qcurve"/>
      <point x="905" y="-22"/>
    </contour>
    <contour>
      <point x="770" y="-464" type="qcurve"/>
      <point x="663" y="-466"/>
      <point x="591" y="-402" type="qcurve"/>
      <point x="524" y="-331"/>
      <point x="524" y="-225" type="qcurve"/>
      <point x="523" y="-159"/>
      <point x="558" y="-104" type="qcurve"/>
      <point x="594" y="-51"/>
      <point x="665" y="-21" type="qcurve"/>
      <point x="1078" y="-152" type="line"/>
      <point x="753" y="-152"/>
      <point x="735" y="-168" type="qcurve"/>
      <point x="720" y="-182"/>
      <point x="720" y="-208" type="qcurve"/>
      <point x="720" y="-238"/>
      <point x="733" y="-252" type="qcurve"/>
      <point x="746" y="-266"/>
      <point x="775" y="-264" type="qcurve"/>
      <point x="812" y="-262"/>
      <point x="872" y="-200" type="qcurve"/>
      <point x="981" y="-378" type="line"/>
      <point x="873" y="-464"/>
    </contour>
  </outline>
</glyph>
<glyph name="Ycircumflex" format="2">
  <advance width="1469"/>
  <unicode hex="0176"/>
  <outline>
    <contour>
      <point x="604" y="591" type="line"/>
      <point x="12" y="1463" type="line"/>
      <point x="300" y="1463" type="line"/>
      <point x="729" y="836" type="line"/>
      <point x="1153" y="1463" type="line"/>
      <point x="1435" y="1463" type="line"/>
      <point x="847" y="591" type="line"/>
      <point x="847" y="0" type="line"/>
      <point x="604" y="0" type="line"/>
    </contour>
    <contour>
      <point x="635" y="1807" type="line"/>
      <point x="810" y="1807" type="line"/>
      <point x="1064" y="1465" type="line"/>
      <point x="845" y="1465" type="line"/>
      <point x="723" y="1596" type="line"/>
      <point x="603" y="1465" type="line"/>
      <point x="386" y="1465" type="line"/>
    </contour>
  </outline>
</glyph>
<glyph name="Ydieresis" format="2">
  <advance width="1469"/>
  <unicode hex="0178"/>
  <outline>
    <contour>
      <point x="604" y="591" type="line"/>
      <point x="12" y="1463" type="line"/>
      <point x="300" y="1463" type="line"/>
      <point x="729" y="836" type="line"/>
      <point x="1153" y="1463" type="line"/>
      <point x="1435" y="1463" type="line"/>
      <point x="847" y="591" type="line"/>
      <point x="847" y="0" type="line"/>
      <point x="604" y="0" type="line"/>
    </contour>
    <contour>
      <point x="549" y="1726" type="qcurve"/>
      <point x="604" y="1726"/>
      <point x="642" y="1687" type="qcurve"/>
      <point x="682" y="1650"/>
      <point x="682" y="1594" type="qcurve"/>
      <point x="682" y="1541"/>
      <point x="642" y="1502" type="qcurve"/>
      <point x="603" y="1465"/>
      <point x="549" y="1465" type="qcurve"/>
      <point x="496" y="1465"/>
      <point x="457" y="1502" type="qcurve"/>
      <point x="419" y="1542"/>
      <point x="419" y="1594" type="qcurve"/>
      <point x="419" y="1649"/>
      <point x="458" y="1686" type="qcurve"/>
      <point x="495" y="1726"/>
    </contour>
    <contour>
      <point x="899" y="1726" type="qcurve"/>
      <point x="951" y="1726"/>
      <point x="991" y="1688" type="qcurve"/>
      <point x="1030" y="1650"/>
      <point x="1030" y="1596" type="qcurve"/>
      <point x="1030" y="1543"/>
      <point x="991" y="1504" type="qcurve"/>
      <point x="951" y="1465"/>
      <point x="899" y="1465" type="qcurve"/>
      <point x="845" y="1465"/>
      <point x="807" y="1504" type="qcurve"/>
      <point x="771" y="1543"/>
      <point x="770" y="1596" type="qcurve"/>
      <point x="772" y="1648"/>
      <point x="806" y="1685" type="qcurve"/>
      <point x="845" y="1726"/>
    </contour>
  </outline>
</glyph>
<glyph name="Zcaron" format="2">
  <advance width="1357"/>
  <unicode hex="017D"/>
  <outline>
    <contour>
      <point x="125" y="175" type="line"/>
      <point x="924" y="1233" type="line"/>
      <point x="140" y="1233" type="line"/>
      <point x="140" y="1463" type="line"/>
      <point x="1252" y="1463" type="line"/>
      <point x="1252" y="1276" type="line"/>
      <point x="460" y="227" type="line"/>
      <point x="1252" y="227" type="line"/>
      <point x="1252" y="0" type="line"/>
      <point x="125" y="0" type="line"/>
    </contour>
    <contour>
      <point x="350" y="1807" type="line"/>
      <point x="566" y="1807" type="line"/>
      <point x="686" y="1674" type="line"/>
      <point x="808" y="1807" type="line"/>
      <point x="1027" y="1807" type="line"/>
      <point x="774" y="1465" type="line"/>
      <point x="599" y="1465" type="line"/>
    </contour>
  </outline>
</glyph>
<glyph name="Icaron" format="2">
  <advance width="587"/>
  <unicode hex="01CF"/>
  <outline>
    <contour>
      <point x="164" y="1463" type="line"/>
      <point x="398" y="1463" type="line"/>
      <point x="398" y="0" type="line"/>
      <point x="164" y="0" type="line"/>
    </contour>
    <contour>
      <point x="-59" y="1807" type="line"/>
      <point x="158" y="1807" type="line"/>
      <point x="277" y="1673" type="line"/>
      <point x="400" y="1807" type="line"/>
      <point x="620" y="1807" type="line"/>
      <point x="365" y="1465" type="line"/>
      <point x="191" y="1465" type="line"/>
    </contour>
  </outline>
</glyph>
<glyph name="Kcaron" format="2">
  <advance width="1376"/>
  <unicode hex="01E8"/>
  <outline>
    <contour>
      <point x="186" y="1463" type="line"/>
      <point x="423" y="1463" type="line"/>
      <point x="423" y="881" type="line"/>
      <point x="1007" y="1463" type="line"/>
      <point x="1324" y="1463" type="line"/>
      <point x="608" y="750" type="line"/>
      <point x="1361" y="0" type="line"/>
      <point x="1042" y="0" type="line"/>
      <point x="423" y="619" type="line"/>
      <point x="423" y="0" type="line"/>
      <point x="186" y="0" type="line"/>
    </contour>
    <contour>
      <point x="401" y="1807" type="line"/>
      <point x="619" y="1807" type="line"/>
      <point x="738" y="1673" type="line"/>
      <point x="860" y="1807" type="line"/>
      <point x="1081" y="1807" type="line"/>
      <point x="825" y="1465" type="line"/>
      <point x="651" y="1465" type="line"/>
    </contour>
  </outline>
</glyph>
<glyph name="Oogonek" format="2">
  <advance width="1722"/>
  <unicode hex="01EA"/>
  <outline>
    <contour>
      <point x="862" y="-22" type="qcurve"/>
      <point x="665" y="-21"/>
      <point x="493" y="82" type="qcurve"/>
      <point x="321" y="185"/>
      <point x="218" y="356" type="qcurve"/>
      <point x="113" y="529"/>
      <point x="113" y="731" type="qcurve"/>
      <point x="113" y="936"/>
      <point x="219" y="1106" type="qcurve"/>
      <point x="322" y="1278"/>
      <point x="491" y="1381" type="qcurve"/>
      <point x="664" y="1487"/>
      <point x="862" y="1483" type="qcurve"/>
      <point x="1064" y="1485"/>
      <point x="1231" y="1383" type="qcurve"/>
      <point x="1400" y="1281"/>
      <point x="1503" y="1108" type="qcurve"/>
      <point x="1608" y="938"/>
      <point x="1605" y="731" type="qcurve"/>
      <point x="1607" y="530"/>
      <point x="1503" y="356" type="qcurve"/>
      <point x="1404" y="189"/>
      <point x="1233" y="84" type="qcurve"/>
      <point x="1064" y="-19"/>
    </contour>
    <contour>
      <point x="861" y="215" type="qcurve"/>
      <point x="991" y="218"/>
      <point x="1112" y="288" type="qcurve"/>
      <point x="1232" y="358"/>
      <point x="1298" y="478" type="qcurve"/>
      <point x="1371" y="599"/>
      <point x="1368" y="731" type="qcurve"/>
      <point x="1369" y="864"/>
      <point x="1298" y="987" type="qcurve"/>
      <point x="1232" y="1107"/>
      <point x="1114" y="1176" type="qcurve"/>
      <point x="994" y="1246"/>
      <point x="862" y="1246" type="qcurve"/>
      <point x="730" y="1248"/>
      <point x="609" y="1178" type="qcurve"/>
      <point x="550" y="1141"/>
      <point x="504" y="1096" type="qcurve"/>
      <point x="459" y="1053"/>
      <point x="422" y="991" type="qcurve"/>
      <point x="353" y="868"/>
      <point x="353" y="731" type="qcurve"/>
      <point x="351" y="599"/>
      <point x="419" y="478" type="qcurve"/>
      <point x="458" y="418"/>
      <point x="503" y="370" type="qcurve"/>
      <point x="549" y="324"/>
      <point x="608" y="287" type="qcurve"/>
      <point x="729" y="213"/>
    </contour>
    <contour>
      <point x="885" y="-464" type="qcurve"/>
      <point x="780" y="-466"/>
      <point x="707" y="-403" type="qcurve"/>
      <point x="639" y="-331"/>
      <point x="639" y="-226" type="qcurve"/>
      <point x="636" y="-159"/>
      <point x="675" y="-104" type="qcurve"/>
      <point x="713" y="-51"/>
      <point x="780" y="-20" type="qcurve"/>
      <point x="1194" y="-152" type="line"/>
      <point x="869" y="-152"/>
      <point x="852" y="-169" type="qcurve"/>
      <point x="836" y="-183"/>
      <point x="836" y="-208" type="qcurve"/>
      <point x="837" y="-238"/>
      <point x="850" y="-253" type="qcurve"/>
      <point x="862" y="-266"/>
      <point x="890" y="-264" type="qcurve"/>
      <point x="928" y="-262"/>
      <point x="988" y="-200" type="qcurve"/>
      <point x="1096" y="-378" type="line"/>
      <point x="992" y="-464"/>
    </contour>
  </outline>
</glyph>
<glyph name="Adblgrave" format="2">
  <advance width="1409"/>
  <unicode hex="0200"/>
  <outline>
    <contour>
      <point x="595" y="1463" type="line"/>
      <point x="815" y="1463" type="line"/>
      <point x="1345" y="0" type="line"/>
      <point x="1094" y="0" type="line"/>
      <point x="953" y="393" type="line"/>
      <point x="456" y="393" type="line"/>
      <point x="312" y="0" type="line"/>
      <point x="59" y="0" type="line"/>
    </contour>
    <contour>
      <point x="705" y="1071" type="line"/>
      <point x="539" y="619" type="line"/>
      <point x="870" y="619" type="line"/>
    </contour>
    <contour>
      <point x="827" y="1721" type="line"/>
      <point x="801" y="1716" type="line"/>
      <point x="976" y="1559" type="line"/>
      <point x="963" y="1559" type="line"/>
    </contour>
    <contour>
      <point x="465" y="1718" type="line"/>
      <point x="439" y="1712" type="line"/>
      <point x="614" y="1559" type="line"/>
      <point x="601" y="1559" type="line"/>
    </contour>
  </outline>
</glyph>
<glyph name="Edblgrave" format="2">
  <advance width="1257"/>
  <unicode hex="0204"/>
  <outline>
    <contour>
      <point x="400" y="1233" type="line"/>
      <point x="400" y="857" type="line"/>
      <point x="1078" y="857" type="line"/>
      <point x="1078" y="630" type="line"/>
      <point x="400" y="630" type="line"/>
      <point x="400" y="227" type="line"/>
      <point x="1152" y="227" type="line"/>
      <point x="1152" y="0" type="line"/>
      <point x="164" y="0" type="line"/>
      <point x="164" y="1463" type="line"/>
      <point x="1152" y="1463" type="line"/>
      <point x="1152" y="1233" type="line"/>
    </contour>
    <contour>
      <point x="783" y="1721" type="line"/>
      <point x="757" y="1716" type="line"/>
      <point x="932" y="1559" type="line"/>
      <point x="919" y="1559" type="line"/>
    </contour>
    <contour>
      <point x="421" y="1718" type="line"/>
      <point x="395" y="1712" type="line"/>
      <point x="570" y="1559" type="line"/>
      <point x="556" y="1559" type="line"/>
    </contour>
  </outline>
</glyph>
<glyph name="Idblgrave" format="2">
  <advance width="398"/>
  <unicode hex="0208"/>
  <outline>
    <contour>
      <point x="164" y="1463" type="line"/>
      <point x="398" y="1463" type="line"/>
      <point x="398" y="0" type="line"/>
      <point x="164" y="0" type="line"/>
    </contour>
    <contour>
      <point x="405" y="1721" type="line"/>
      <point x="379" y="1716" type="line"/>
      <point x="554" y="1559" type="line"/>
      <point x="541" y="1559" type="line"/>
    </contour>
    <contour>
      <point x="43" y="1718" type="line"/>
      <point x="17" y="1712" type="line"/>
      <point x="192" y="1559" type="line"/>
      <point x="179" y="1559" type="line"/>
    </contour>
  </outline>
</glyph>
<glyph name="idblgrave" format="2">
  <advance width="377"/>
  <unicode hex="0209"/>
  <outline>
    <contour>
      <point x="156" y="1030" type="line"/>
      <point x="386" y="1030" type="line"/>
      <point x="386" y="0" type="line"/>
      <point x="156" y="0" type="line"/>
    </contour>
    <contour>
      <point x="396" y="1289" type="line"/>
      <point x="369" y="1283" type="line"/>
      <point x="544" y="1126" type="line"/>
      <point x="532" y="1126" type="line"/>
    </contour>
    <contour>
      <point x="34" y="1286" type="line"/>
      <point x="8" y="1279" type="line"/>
      <point x="182" y="1126" type="line"/>
      <point x="169" y="1126" type="line"/>
    </contour>
  </outline>
</glyph>
<glyph name="Rdblgrave" format="2">
  <advance width="1414"/>
  <unicode hex="0210"/>
  <outline>
    <contour>
      <point x="164" y="1463" type="line"/>
      <point x="715" y="1463" type="line"/>
      <point x="859" y="1463"/>
      <point x="969" y="1408" type="qcurve"/>
      <point x="1088" y="1355"/>
      <point x="1152" y="1250" type="qcurve"/>
      <point x="1224" y="1149"/>
      <point x="1223" y="1019" type="qcurve"/>
      <point x="1225" y="860"/>
      <point x="1114" y="737" type="qcurve"/>
      <point x="1011" y="621"/>
      <point x="916" y="600" type="qcurve"/>
      <point x="1336" y="0" type="line"/>
      <point x="1057" y="0" type="line"/>
      <point x="658" y="571" type="line"/>
      <point x="398" y="571" type="line"/>
      <point x="398" y="0" type="line"/>
      <point x="164" y="0" type="line"/>
    </contour>
    <contour>
      <point x="398" y="1233" type="line"/>
      <point x="398" y="799" type="line"/>
      <point x="692" y="799" type="line"/>
      <point x="831" y="799"/>
      <point x="909" y="860" type="qcurve"/>
      <point x="986" y="918"/>
      <point x="986" y="1019" type="qcurve"/>
      <point x="988" y="1118"/>
      <point x="911" y="1172" type="qcurve"/>
      <point x="831" y="1234"/>
      <point x="693" y="1233" type="qcurve"/>
    </contour>
    <contour>
      <point x="853" y="1721" type="line"/>
      <point x="826" y="1716" type="line"/>
      <point x="1001" y="1559" type="line"/>
      <point x="989" y="1559" type="line"/>
    </contour>
    <contour>
      <point x="491" y="1718" type="line"/>
      <point x="464" y="1712" type="line"/>
      <point x="639" y="1559" type="line"/>
      <point x="626" y="1559" type="line"/>
    </contour>
  </outline>
</glyph>
<glyph name="udblgrave" format="2">
  <advance width="1196"/>
  <unicode hex="0215"/>
  <outline>
    <contour>
      <point x="552" y="-24" type="qcurve"/>
      <point x="436" y="-24"/>
      <point x="347" y="29" type="qcurve"/>
      <point x="253" y="81"/>
      <point x="205" y="175" type="qcurve"/>
      <point x="151" y="267"/>
      <point x="153" y="387" type="qcurve"/>
      <point x="153" y="1030" type="line"/>
      <point x="383" y="1030" type="line"/>
      <point x="383" y="405" type="line"/>
      <point x="384" y="307"/>
      <point x="436" y="250" type="qcurve"/>
      <point x="485" y="195"/>
      <point x="569" y="195" type="qcurve"/>
      <point x="635" y="195"/>
      <point x="695" y="221" type="qcurve"/>
      <point x="749" y="245"/>
      <point x="784" y="296" type="qcurve"/>
      <point x="814" y="337"/>
      <point x="813" y="385" type="qcurve"/>
      <point x="813" y="1030" type="line"/>
      <point x="1043" y="1030" type="line"/>
      <point x="1043" y="0" type="line"/>
      <point x="813" y="0" type="line"/>
      <point x="813" y="3" type="line"/>
      <point x="856" y="87"/>
      <point x="758" y="34" type="qcurve"/>
      <point x="664" y="-24"/>
    </contour>
    <contour>
      <point x="722" y="1289" type="line"/>
      <point x="696" y="1283" type="line"/>
      <point x="870" y="1126" type="line"/>
      <point x="858" y="1126" type="line"/>
    </contour>
    <contour>
      <point x="360" y="1286" type="line"/>
      <point x="334" y="1279" type="line"/>
      <point x="509" y="1126" type="line"/>
      <point x="495" y="1126" type="line"/>
    </contour>
  </outline>
</glyph>
<glyph name="tcommabelow" format="2">
  <advance width="791"/>
  <unicode hex="021B"/>
  <outline>
    <contour>
      <point x="235" y="0" type="line"/>
      <point x="235" y="815" type="line"/>
      <point x="88" y="815" type="line"/>
      <point x="88" y="1028" type="line"/>
      <point x="235" y="1028" type="line"/>
      <point x="235" y="1285" type="line"/>
      <point x="463" y="1285" type="line"/>
      <point x="463" y="1028" type="line"/>
      <point x="697" y="1028" type="line"/>
      <point x="697" y="815" type="line"/>
      <point x="463" y="815" type="line"/>
      <point x="465" y="0" type="line"/>
    </contour>
    <contour>
      <point x="238" y="-368" type="line"/>
      <point x="326" y="-264"/>
      <point x="326" y="-266" type="qcurve"/>
      <point x="337" y="-265"/>
      <point x="294" y="-225" type="qcurve"/>
      <point x="258" y="-183"/>
      <point x="258" y="-136" type="qcurve"/>
      <point x="255" y="-86"/>
      <point x="293" y="-44" type="qcurve"/>
      <point x="337" y="0"/>
      <point x="388" y="-5" type="qcurve"/>
      <point x="451" y="-5"/>
      <point x="491" y="-55" type="qcurve"/>
      <point x="530" y="-101"/>
      <point x="529" y="-174" type="qcurve"/>
      <point x="533" y="-227"/>
      <point x="498" y="-290" type="qcurve"/>
      <point x="472" y="-338"/>
      <point x="371" y="-465" type="qcurve"/>
    </contour>
  </outline>
</glyph>
<glyph name="Adotabove" format="2">
  <advance width="1409"/>
  <unicode hex="0226"/>
  <outline>
    <contour>
      <point x="595" y="1463" type="line"/>
      <point x="815" y="1463" type="line"/>
      <point x="1345" y="0" type="line"/>
      <point x="1094" y="0" type="line"/>
      <point x="953" y="393" type="line"/>
      <point x="456" y="393" type="line"/>
      <point x="312" y="0" type="line"/>
      <point x="59" y="0" type="line"/>
    </contour>
    <contour>
      <point x="705" y="1071" type="line"/>
      <point x="539" y="619" type="line"/>
      <point x="870" y="619" type="line"/>
    </contour>
    <contour>
      <point x="698" y="1726" type="qcurve"/>
      <point x="754" y="1726"/>
      <point x="791" y="1687" type="qcurve"/>
      <point x="831" y="1650"/>
      <point x="831" y="1596" type="qcurve"/>
      <point x="831" y="1543"/>
      <point x="791" y="1504" type="qcurve"/>
      <point x="754" y="1465"/>
      <point x="698" y="1465" type="qcurve"/>
      <point x="645" y="1465"/>
      <point x="606" y="1504" type="qcurve"/>
      <point x="572" y="1543"/>
      <point x="569" y="1596" type="qcurve"/>
      <point x="572" y="1649"/>
      <point x="606" y="1685" type="qcurve"/>
      <point x="644" y="1726"/>
    </contour>
  </outline>
</glyph>
<glyph name="ecedilla" format="2">
  <advance width="1198"/>
  <unicode hex="0229"/>
  <outline>
    <contour>
      <point x="629" y="193" type="qcurve"/>
      <point x="703" y="196"/>
      <point x="777" y="222" type="qcurve"/>
      <point x="854" y="251"/>
      <point x="922" y="330" type="qcurve"/>
      <point x="1070" y="171" type="line"/>
      <point x="975" y="66"/>
      <point x="856" y="22" type="qcurve"/>
      <point x="743" y="-19"/>
      <point x="631" y="-22" type="qcurve"/>
      <point x="491" y="-22"/>
      <point x="371" y="49" type="qcurve"/>
      <point x="254" y="118"/>
      <point x="181" y="242" type="qcurve"/>
      <point x="109" y="368"/>
      <point x="109" y="517" type="qcurve"/>
      <point x="107" y="667"/>
      <point x="175" y="790" type="qcurve"/>
      <point x="245" y="915"/>
      <point x="359" y="983" type="qcurve"/>
      <point x="479" y="1055"/>
      <point x="617" y="1054" type="qcurve"/>
      <point x="850" y="1054"/>
      <point x="979" y="889" type="qcurve"/>
      <point x="1109" y="730"/>
      <point x="1109" y="418" type="qcurve"/>
      <point x="348" y="418" type="line"/>
      <point x="355" y="346"/>
      <point x="432" y="270" type="qcurve"/>
      <point x="511" y="195"/>
    </contour>
    <contour>
      <point x="622" y="837" type="qcurve"/>
      <point x="513" y="838"/>
      <point x="437" y="768" type="qcurve"/>
      <point x="361" y="698"/>
      <point x="351" y="632" type="qcurve"/>
      <point x="875" y="632" type="line"/>
      <point x="869" y="700"/>
      <point x="801" y="769" type="qcurve"/>
      <point x="739" y="837"/>
    </contour>
    <contour>
      <point x="655" y="-126" type="qcurve"/>
      <point x="727" y="-123"/>
      <point x="774" y="-168" type="qcurve"/>
      <point x="827" y="-214"/>
      <point x="825" y="-291" type="qcurve"/>
      <point x="825" y="-378"/>
      <point x="756" y="-433" type="qcurve"/>
      <point x="694" y="-483"/>
      <point x="601" y="-484" type="qcurve"/>
      <point x="551" y="-484"/>
      <point x="499" y="-468" type="qcurve"/>
      <point x="446" y="-449"/>
      <point x="382" y="-401" type="qcurve"/>
      <point x="457" y="-239" type="line"/>
      <point x="545" y="-305"/>
      <point x="595" y="-306" type="qcurve"/>
      <point x="617" y="-306"/>
      <point x="628" y="-298" type="qcurve"/>
      <point x="636" y="-291"/>
      <point x="634" y="-285" type="qcurve"/>
      <point x="635" y="-276"/>
      <point x="634" y="-275" type="qcurve"/>
      <point x="627" y="-267"/>
      <point x="611" y="-268" type="qcurve"/>
      <point x="596" y="-268"/>
      <point x="548" y="-307" type="qcurve"/>
      <point x="468" y="-221" type="line"/>
      <point x="551" y="-24" type="line"/>
      <point x="744" y="-24" type="line"/>
      <point x="720" y="-85" type="line"/>
      <point x="635" y="-122"/>
    </contour>
  </outline>
</glyph>
<glyph name="firsttonechinese" format="2">
  <advance width="842"/>
  <unicode hex="02C9"/>
  <unicode hex="0304"/>
  <outline>
    <contour>
      <point x="134" y="1335" type="line"/>
      <point x="722" y="1335" type="line"/>
      <point x="722" y="1137" type="line"/>
      <point x="134" y="1137" type="line"/>
    </contour>
    <contour>
      <point x="-25" y="982" type="line"/>
      <point x="-25" y="982" type="line"/>
      <point x="-25" y="982" type="line"/>
      <point x="-25" y="982" type="line"/>
    </contour>
    <contour>
      <point x="-25" y="982" type="line"/>
      <point x="-25" y="982" type="line"/>
      <point x="-25" y="982" type="line"/>
      <point x="-25" y="982" type="line"/>
    </contour>
  </outline>
</glyph>
<glyph name="ring" format="2">
  <advance width="725"/>
  <unicode hex="02DA"/>
  <unicode hex="030A"/>
  <outline>
    <contour>
      <point x="368" y="1068" type="qcurve"/>
      <point x="273" y="1068"/>
      <point x="203" y="1135" type="qcurve"/>
      <point x="134" y="1203"/>
      <point x="134" y="1302" type="qcurve"/>
      <point x="134" y="1402"/>
      <point x="203" y="1466" type="qcurve"/>
      <point x="273" y="1536"/>
      <point x="368" y="1535" type="qcurve"/>
      <point x="471" y="1536"/>
      <point x="535" y="1465" type="qcurve"/>
      <point x="603" y="1402"/>
      <point x="603" y="1302" type="qcurve"/>
      <point x="603" y="1202"/>
      <point x="535" y="1136" type="qcurve"/>
      <point x="470" y="1068"/>
    </contour>
    <contour>
      <point x="368" y="1243" type="qcurve"/>
      <point x="393" y="1243"/>
      <point x="412" y="1261" type="qcurve"/>
      <point x="430" y="1278"/>
      <point x="430" y="1302" type="qcurve"/>
      <point x="430" y="1326"/>
      <point x="413" y="1342" type="qcurve"/>
      <point x="395" y="1360"/>
      <point x="368" y="1360" type="qcurve"/>
      <point x="344" y="1360"/>
      <point x="328" y="1345" type="qcurve"/>
      <point x="310" y="1327"/>
      <point x="309" y="1301" type="qcurve"/>
      <point x="309" y="1277"/>
      <point x="325" y="1261" type="qcurve"/>
      <point x="346" y="1243"/>
    </contour>
  </outline>
</glyph>
<glyph name="acute" format="2">
  <advance width="765"/>
  <unicode hex="0301"/>
  <unicode hex="00B4"/>
  <outline>
    <contour>
      <point x="384" y="1403" type="line"/>
      <point x="642" y="1344" type="line"/>
      <point x="306" y="1044" type="line"/>
      <point x="80" y="1044" type="line"/>
    </contour>
  </outline>
</glyph>
<glyph name="hungarumlaut" format="2">
  <advance width="1130"/>
  <unicode hex="030B"/>
  <unicode hex="02DD"/>
  <outline>
    <contour>
      <point x="384" y="1404" type="line"/>
      <point x="642" y="1344" type="line"/>
      <point x="306" y="1042" type="line"/>
      <point x="81" y="1042" type="line"/>
    </contour>
    <contour>
      <point x="746" y="1400" type="line"/>
      <point x="1006" y="1340" type="line"/>
      <point x="667" y="1042" type="line"/>
      <point x="442" y="1042" type="line"/>
    </contour>
  </outline>
</glyph>
<glyph name="dblgravecmb" format="2">
  <advance width="942"/>
  <unicode hex="030F"/>
  <outline>
    <contour>
      <point x="672" y="1299" type="line"/>
      <point x="646" y="1293" type="line"/>
      <point x="821" y="1136" type="line"/>
      <point x="808" y="1136" type="line"/>
    </contour>
    <contour>
      <point x="310" y="1296" type="line"/>
      <point x="284" y="1290" type="line"/>
      <point x="459" y="1136" type="line"/>
      <point x="446" y="1136" type="line"/>
    </contour>
  </outline>
</glyph>
<glyph name="breveinvertedcmb" format="2">
  <advance width="898"/>
  <unicode hex="0311"/>
  <outline>
    <contour>
      <point x="447" y="1353" type="qcurve"/>
      <point x="527" y="1353"/>
      <point x="606" y="1324" type="qcurve"/>
      <point x="685" y="1290"/>
      <point x="780" y="1195" type="qcurve"/>
      <point x="626" y="1043" type="line"/>
      <point x="565" y="1108"/>
      <point x="527" y="1126" type="qcurve"/>
      <point x="487" y="1141"/>
      <point x="447" y="1141" type="qcurve"/>
      <point x="412" y="1141"/>
      <point x="374" y="1126" type="qcurve"/>
      <point x="330" y="1107"/>
      <point x="269" y="1043" type="qcurve"/>
      <point x="120" y="1195" type="line"/>
      <point x="207" y="1289"/>
      <point x="287" y="1321" type="qcurve"/>
      <point x="363" y="1353"/>
    </contour>
  </outline>
</glyph>
<glyph name="endash" format="2">
  <advance width="1164"/>
  <unicode hex="2013"/>
  <outline>
    <contour>
      <point x="120" y="650" type="line"/>
      <point x="1057" y="650" type="line"/>
      <point x="1057" y="428" type="line"/>
      <point x="120" y="428" type="line"/>
    </contour>
  </outline>
</glyph>
<glyph name="emdash" format="2">
  <advance width="1717"/>
  <unicode hex="2014"/>
  <outline>
    <contour>
      <point x="120" y="650" type="line"/>
      <point x="1611" y="650" type="line"/>
      <point x="1611" y="428" type="line"/>
      <point x="120" y="428" type="line"/>
    </contour>
  </outline>
</glyph>
<glyph name="quoteleft" format="2">
  <advance width="619"/>
  <unicode hex="2018"/>
  <outline>
    <contour>
      <point x="472" y="1223" type="line"/>
      <point x="373" y="1112"/>
      <point x="368" y="1094" type="qcurve"/>
      <point x="369" y="1094"/>
      <point x="411" y="1052" type="qcurve"/>
      <point x="456" y="1009"/>
      <point x="454" y="947" type="qcurve"/>
      <point x="456" y="889"/>
      <point x="412" y="846" type="qcurve"/>
      <point x="366" y="807"/>
      <point x="306" y="806" type="qcurve"/>
      <point x="235" y="807"/>
      <point x="190" y="863" type="qcurve"/>
      <point x="150" y="917"/>
      <point x="148" y="996" type="qcurve"/>
      <point x="148" y="1060"/>
      <point x="184" y="1128" type="qcurve"/>
      <point x="217" y="1195"/>
      <point x="330" y="1332" type="qcurve"/>
    </contour>
  </outline>
</glyph>
<glyph name="quotesinglbase" format="2">
  <advance width="600"/>
  <unicode hex="201A"/>
  <outline>
    <contour>
      <point x="141" y="-151" type="line"/>
      <point x="240" y="-37"/>
      <point x="245" y="-20" type="qcurve"/>
      <point x="248" y="-21"/>
      <point x="201" y="22" type="qcurve"/>
      <point x="159" y="69"/>
      <point x="159" y="126" type="qcurve"/>
      <point x="159" y="186"/>
      <point x="202" y="227" type="qcurve"/>
      <point x="245" y="267"/>
      <point x="305" y="267" type="qcurve"/>
      <point x="381" y="267"/>
      <point x="422" y="208" type="qcurve"/>
      <point x="462" y="157"/>
      <point x="462" y="77" type="qcurve"/>
      <point x="464" y="13"/>
      <point x="428" y="-57" type="qcurve"/>
      <point x="399" y="-118"/>
      <point x="285" y="-258" type="qcurve"/>
    </contour>
  </outline>
</glyph>
<glyph name="quotedblright" format="2">
  <advance width="962"/>
  <unicode hex="201D"/>
  <outline>
    <contour>
      <point x="141" y="899" type="line"/>
      <point x="240" y="1013"/>
      <point x="244" y="1027" type="qcurve"/>
      <point x="248" y="1027"/>
      <point x="201" y="1070" type="qcurve"/>
      <point x="159" y="1115"/>
      <point x="159" y="1174" type="qcurve"/>
      <point x="159" y="1234"/>
      <point x="202" y="1275" type="qcurve"/>
      <point x="244" y="1315"/>
      <point x="304" y="1318" type="qcurve"/>
      <point x="381" y="1321"/>
      <point x="423" y="1259" type="qcurve"/>
      <point x="462" y="1208"/>
      <point x="462" y="1126" type="qcurve"/>
      <point x="463" y="1067"/>
      <point x="429" y="995" type="qcurve"/>
      <point x="399" y="935"/>
      <point x="285" y="791" type="qcurve"/>
    </contour>
    <contour>
      <point x="502" y="899" type="line"/>
      <point x="602" y="1013"/>
      <point x="607" y="1027" type="qcurve"/>
      <point x="613" y="1027"/>
      <point x="567" y="1069" type="qcurve"/>
      <point x="521" y="1115"/>
      <point x="521" y="1174" type="qcurve"/>
      <point x="521" y="1235"/>
      <point x="568" y="1275" type="qcurve"/>
      <point x="611" y="1315"/>
      <point x="668" y="1318" type="qcurve"/>
      <point x="746" y="1321"/>
      <point x="785" y="1258" type="qcurve"/>
      <point x="826" y="1209"/>
      <point x="826" y="1126" type="qcurve"/>
      <point x="826" y="1066"/>
      <point x="791" y="995" type="qcurve"/>
      <point x="761" y="935"/>
      <point x="648" y="791" type="qcurve"/>
    </contour>
  </outline>
</glyph>
<glyph name="dagger" format="2">
  <advance width="1263"/>
  <unicode hex="2020"/>
  <outline>
    <contour>
      <point x="520" y="801" type="line"/>
      <point x="103" y="801" type="line"/>
      <point x="103" y="1030" type="line"/>
      <point x="520" y="1030" type="line"/>
      <point x="520" y="1463" type="line"/>
      <point x="755" y="1463" type="line"/>
      <point x="755" y="1030" type="line"/>
      <point x="1175" y="1030" type="line"/>
      <point x="1175" y="801" type="line"/>
      <point x="755" y="801" type="line"/>
      <point x="755" y="0" type="line"/>
      <point x="520" y="0" type="line"/>
    </contour>
  </outline>
</glyph>
<glyph name="daggerdbl" format="2">
  <advance width="1263"/>
  <unicode hex="2021"/>
  <outline>
    <contour>
      <point x="756" y="1166" type="line"/>
      <point x="1175" y="1166" type="line"/>
      <point x="1175" y="936" type="line"/>
      <point x="755" y="936" type="line"/>
      <point x="755" y="526" type="line"/>
      <point x="1171" y="526" type="line"/>
      <point x="1171" y="297" type="line"/>
      <point x="755" y="297" type="line"/>
      <point x="708" y="47" type="line"/>
      <point x="708" y="48" type="line"/>
      <point x="755" y="0" type="line"/>
      <point x="520" y="0" type="line"/>
      <point x="520" y="297" type="line"/>
      <point x="100" y="297" type="line"/>
      <point x="100" y="526" type="line"/>
      <point x="520" y="527" type="line"/>
      <point x="520" y="936" type="line"/>
      <point x="103" y="936" type="line"/>
      <point x="103" y="1166" type="line"/>
      <point x="520" y="1166" type="line"/>
      <point x="567" y="1416" type="line"/>
      <point x="567" y="1415" type="line"/>
      <point x="520" y="1463" type="line"/>
      <point x="755" y="1463" type="line"/>
    </contour>
  </outline>
</glyph>
<glyph name="ellipsis" format="2">
  <advance width="1308"/>
  <unicode hex="2026"/>
  <outline>
    <contour>
      <point x="301" y="-22" type="qcurve"/>
      <point x="243" y="-21"/>
      <point x="197" y="21" type="qcurve"/>
      <point x="151" y="68"/>
      <point x="151" y="126" type="qcurve"/>
      <point x="151" y="184"/>
      <point x="197" y="227" type="qcurve"/>
      <point x="243" y="267"/>
      <point x="301" y="267" type="qcurve"/>
      <point x="361" y="267"/>
      <point x="400" y="225" type="qcurve"/>
      <point x="442" y="182"/>
      <point x="442" y="126" type="qcurve"/>
      <point x="442" y="70"/>
      <point x="404" y="24" type="qcurve"/>
      <point x="364" y="-20"/>
    </contour>
    <contour>
      <point x="663" y="-22" type="qcurve"/>
      <point x="604" y="-21"/>
      <point x="559" y="21" type="qcurve"/>
      <point x="514" y="68"/>
      <point x="514" y="126" type="qcurve"/>
      <point x="514" y="184"/>
      <point x="560" y="227" type="qcurve"/>
      <point x="604" y="267"/>
      <point x="663" y="267" type="qcurve"/>
      <point x="723" y="267"/>
      <point x="762" y="225" type="qcurve"/>
      <point x="805" y="183"/>
      <point x="805" y="126" type="qcurve"/>
      <point x="805" y="70"/>
      <point x="765" y="24" type="qcurve"/>
      <point x="726" y="-20"/>
    </contour>
    <contour>
      <point x="1026" y="-22" type="qcurve"/>
      <point x="966" y="-21"/>
      <point x="920" y="22" type="qcurve"/>
      <point x="878" y="68"/>
      <point x="878" y="126" type="qcurve"/>
      <point x="878" y="183"/>
      <point x="922" y="227" type="qcurve"/>
      <point x="966" y="267"/>
      <point x="1026" y="267" type="qcurve"/>
      <point x="1086" y="267"/>
      <point x="1125" y="225" type="qcurve"/>
      <point x="1167" y="182"/>
      <point x="1167" y="126" type="qcurve"/>
      <point x="1167" y="70"/>
      <point x="1129" y="24" type="qcurve"/>
      <point x="1089" y="-20"/>
    </contour>
  </outline>
</glyph>
<glyph name="a.salt" format="2">
  <advance width="1175"/>
  <outline>
    <contour>
      <point x="1016" y="94" type="line"/>
      <point x="970" y="47"/>
      <point x="788" y="0" type="qcurve"/>
      <point x="788" y="23" type="line"/>
      <point x="821" y="78"/>
      <point x="716" y="28" type="qcurve"/>
      <point x="615" y="-18"/>
      <point x="505" y="-22" type="qcurve"/>
      <point x="340" y="-22"/>
      <point x="228" y="70" type="qcurve"/>
      <point x="117" y="164"/>
      <point x="117" y="321" type="qcurve"/>
      <point x="115" y="429"/>
      <point x="172" y="512" type="qcurve"/>
      <point x="230" y="597"/>
      <point x="325" y="639" type="qcurve"/>
      <point x="422" y="684"/>
      <point x="530" y="683" type="qcurve"/>
      <point x="679" y="683"/>
      <point x="788" y="648" type="qcurve"/>
      <point x="788" y="618" type="line"/>
      <point x="790" y="716"/>
      <point x="738" y="783" type="qcurve"/>
      <point x="696" y="845"/>
      <point x="579" y="842" type="qcurve"/>
      <point x="526" y="845"/>
      <point x="468" y="823" type="qcurve"/>
      <point x="406" y="802"/>
      <point x="288" y="742" type="qcurve"/>
      <point x="189" y="934" type="line"/>
      <point x="424" y="1054"/>
      <point x="590" y="1054" type="qcurve"/>
      <point x="797" y="1057"/>
      <point x="908" y="932" type="qcurve"/>
      <point x="1016" y="814"/>
      <point x="1016" y="618" type="qcurve"/>
    </contour>
    <contour>
      <point x="528" y="190" type="qcurve"/>
      <point x="619" y="190"/>
      <point x="694" y="236" type="qcurve"/>
      <point x="768" y="279"/>
      <point x="788" y="347" type="qcurve"/>
      <point x="788" y="447" type="line"/>
      <point x="689" y="474"/>
      <point x="552" y="474" type="qcurve"/>
      <point x="462" y="474"/>
      <point x="398" y="429" type="qcurve"/>
      <point x="342" y="389"/>
      <point x="342" y="328" type="qcurve"/>
      <point x="342" y="269"/>
      <point x="388" y="232" type="qcurve"/>
      <point x="445" y="190"/>
    </contour>
  </outline>
</glyph>
<glyph name="a_mirror" format="2">
  <advance width="1203"/>
  <outline>
    <contour>
      <point x="1809" y="838" type="qcurve"/>
      <point x="1733" y="837"/>
      <point x="1672" y="797" type="qcurve"/>
      <point x="1611" y="760"/>
      <point x="1578" y="688" type="qcurve"/>
      <point x="1543" y="612"/>
      <point x="1542" y="515" type="qcurve"/>
      <point x="1543" y="416"/>
      <point x="1578" y="345" type="qcurve"/>
      <point x="1612" y="273"/>
      <point x="1673" y="233" type="qcurve"/>
      <point x="1733" y="194"/>
      <point x="1809" y="195" type="qcurve"/>
      <point x="1886" y="193"/>
      <point x="1946" y="233" type="qcurve"/>
      <point x="2009" y="273"/>
      <point x="2042" y="344" type="qcurve"/>
      <point x="2077" y="416"/>
      <point x="2076" y="515" type="qcurve"/>
      <point x="2077" y="612"/>
      <point x="2042" y="686" type="qcurve"/>
      <point x="2009" y="757"/>
      <point x="1948" y="797" type="qcurve"/>
      <point x="1886" y="838"/>
    </contour>
    <contour>
      <point x="1312" y="0" type="line"/>
      <point x="1312" y="1030" type="line"/>
      <point x="1542" y="1030" type="line"/>
      <point x="1542" y="985" type="line"/>
      <point x="1512" y="932"/>
      <point x="1610" y="992" type="qcurve"/>
      <point x="1711" y="1052"/>
      <point x="1834" y="1052" type="qcurve"/>
      <point x="1970" y="1055"/>
      <point x="2080" y="982" type="qcurve"/>
      <point x="2188" y="914"/>
      <point x="2252" y="789" type="qcurve"/>
      <point x="2314" y="664"/>
      <point x="2315" y="515" type="qcurve"/>
      <point x="2314" y="363"/>
      <point x="2253" y="242" type="qcurve"/>
      <point x="2188" y="118"/>
      <point x="2082" y="48" type="qcurve"/>
      <point x="1971" y="-24"/>
      <point x="1835" y="-24" type="qcurve"/>
      <point x="1713" y="-24"/>
      <point x="1613" y="35" type="qcurve"/>
      <point x="1514" y="95"/>
      <point x="1542" y="45" type="qcurve"/>
      <point x="1542" y="0" type="line"/>
    </contour>
  </outline>
</glyph>
<glyph name="descender" format="2">
  <advance width="1326"/>
  <outline>
    <contour>
      <point x="171" y="1030" type="line"/>
      <point x="400" y="1030" type="line"/>
      <point x="400" y="-312" type="line"/>
      <point x="171" y="-312" type="line"/>
    </contour>
  </outline>
</glyph>
<glyph name="g.salt" format="2">
  <advance width="1244"/>
  <outline>
    <contour>
      <point x="609" y="833" type="qcurve"/>
      <point x="536" y="833"/>
      <point x="486" y="791" type="qcurve"/>
      <point x="440" y="751"/>
      <point x="440" y="697" type="qcurve"/>
      <point x="440" y="644"/>
      <point x="486" y="604" type="qcurve"/>
      <point x="536" y="562"/>
      <point x="609" y="562" type="qcurve"/>
      <point x="681" y="562"/>
      <point x="732" y="604" type="qcurve"/>
      <point x="780" y="644"/>
      <point x="780" y="697" type="qcurve"/>
      <point x="780" y="750"/>
      <point x="732" y="789" type="qcurve"/>
      <point x="681" y="833"/>
    </contour>
    <contour>
      <point x="399" y="61" type="qcurve"/>
      <point x="361" y="34"/>
      <point x="361" y="-41" type="qcurve"/>
      <point x="361" y="-158"/>
      <point x="607" y="-159" type="qcurve"/>
      <point x="899" y="-159"/>
      <point x="898" y="-57" type="qcurve"/>
      <point x="898" y="40"/>
      <point x="721" y="40" type="qcurve"/>
      <point x="563" y="40" type="line"/>
      <point x="447" y="40"/>
    </contour>
    <contour>
      <point x="746" y="1030" type="qcurve"/>
      <point x="1136" y="1030" type="line"/>
      <point x="1136" y="813" type="line"/>
      <point x="1013" y="813" type="line"/>
      <point x="1019" y="806"/>
      <point x="1018" y="697" type="qcurve"/>
      <point x="1018" y="550"/>
      <point x="894" y="446" type="qcurve"/>
      <point x="776" y="346"/>
      <point x="609" y="345" type="qcurve"/>
      <point x="559" y="345"/>
      <point x="532" y="351" type="qcurve"/>
      <point x="485" y="321"/>
      <point x="485" y="271" type="qcurve"/>
      <point x="485" y="258"/>
      <point x="567" y="258" type="qcurve"/>
      <point x="719" y="258" type="line"/>
      <point x="1134" y="258"/>
      <point x="1136" y="-45" type="qcurve"/>
      <point x="1134" y="-376"/>
      <point x="611" y="-372" type="qcurve"/>
      <point x="124" y="-376"/>
      <point x="123" y="-55" type="qcurve"/>
      <point x="123" y="102"/>
      <point x="256" y="173" type="qcurve"/>
      <point x="246" y="183"/>
      <point x="246" y="267" type="qcurve"/>
      <point x="246" y="421"/>
      <point x="306" y="441" type="qcurve"/>
      <point x="364" y="413"/>
      <point x="323" y="446" type="qcurve"/>
      <point x="202" y="550"/>
      <point x="202" y="698" type="qcurve"/>
      <point x="203" y="845"/>
      <point x="323" y="949" type="qcurve"/>
      <point x="441" y="1051"/>
      <point x="609" y="1050" type="qcurve"/>
      <point x="687" y="1050"/>
    </contour>
  </outline>
</glyph>
<glyph name="q_stroke" format="2">
  <advance width="1013"/>
  <outline>
    <contour>
      <point x="1119" y="94" type="line"/>
      <point x="1119" y="-356" type="line"/>
      <point x="889" y="-356" type="line"/>
      <point x="889" y="94" type="line"/>
    </contour>
  </outline>
</glyph>
<glyph name="t.salt" format="2">
  <advance width="800"/>
  <outline>
    <contour>
      <point x="235" y="817" type="line"/>
      <point x="88" y="817" type="line"/>
      <point x="88" y="1030" type="line"/>
      <point x="235" y="1030" type="line"/>
      <point x="235" y="1285" type="line"/>
      <point x="463" y="1285" type="line"/>
      <point x="463" y="1030" type="line"/>
      <point x="695" y="1030" type="line"/>
      <point x="695" y="817" type="line"/>
      <point x="463" y="817" type="line"/>
      <point x="463" y="264" type="line"/>
      <point x="465" y="231"/>
      <point x="483" y="212" type="qcurve"/>
      <point x="498" y="196"/>
      <point x="527" y="197" type="qcurve"/>
      <point x="567" y="199"/>
      <point x="639" y="239" type="qcurve"/>
      <point x="706" y="22" type="line"/>
      <point x="594" y="-19"/>
      <point x="500" y="-22" type="qcurve"/>
      <point x="396" y="-25"/>
      <point x="309" y="57" type="qcurve"/>
      <point x="233" y="137"/>
      <point x="235" y="264" type="qcurve"/>
    </contour>
  </outline>
</glyph>
